<?xml version="1.0" encoding="UTF-8"?>
<svg width="120px" height="120px" viewBox="0 0 120 120" version="1.1" xmlns="http://www.w3.org/2000/svg" xmlns:xlink="http://www.w3.org/1999/xlink">
    <!-- Generator: Sketch 60 (88103) - https://sketch.com -->
    <title>证书已过期或无效配图</title>
    <desc>Created with Sketch.</desc>
    <defs>
        <circle id="path-1" cx="60" cy="60" r="60"></circle>
        <linearGradient x1="100%" y1="72.3811506%" x2="22.5097915%" y2="41.9692034%" id="linearGradient-3">
            <stop stop-color="#EFF3FF" offset="0%"></stop>
            <stop stop-color="#D6DFFF" offset="30.8638867%"></stop>
            <stop stop-color="#D0DAFF" offset="100%"></stop>
        </linearGradient>
        <linearGradient x1="100%" y1="72.3811506%" x2="-2.87571457%" y2="30.2231197%" id="linearGradient-4">
            <stop stop-color="#EFF3FF" offset="0%"></stop>
            <stop stop-color="#D6DFFF" offset="46.6204058%"></stop>
            <stop stop-color="#D0DAFF" offset="100%"></stop>
        </linearGradient>
        <ellipse id="path-5" cx="69.5" cy="49" rx="69.5" ry="49"></ellipse>
        <linearGradient x1="50%" y1="44.0848219%" x2="50.7125763%" y2="50.8174876%" id="linearGradient-7">
            <stop stop-color="#B0C2FF" offset="0%"></stop>
            <stop stop-color="#EDF1FF" offset="100%"></stop>
        </linearGradient>
        <path d="M101.477294,4.61902178 C103.344551,5.30118496 108.648047,7.78653679 113.737056,10.6976371 C117.8999,13.0789372 122.050462,16.0591789 126.12837,19.0713231 C125.951811,22.5150573 124.191442,24.7230722 120.845733,25.6976176 C115.478121,27.2611071 109.947989,24.0404897 107.786058,23.5031112 L107.652671,23.4725264 C101.71757,22.2371999 102.441209,18.7441578 101.854466,18.1244179 C100.668886,16.8721646 100.769292,16.0996735 101.477294,15.3844634 C102.185296,14.6692534 104.626449,14.8655272 103.442352,14.0643264 C102.258256,13.2631256 99.2037267,14.1631996 97.8540985,14.7302785 C96.5044704,15.2973575 96.3407149,14.3808864 95.2039668,14.1184474 C94.0672187,13.8560084 93.1551453,14.2596708 92.3746585,14.700541 C91.9445954,14.943469 91.122244,15.650148 90.2943297,16.0412005 C89.6197294,16.3598376 88.4135115,15.4620517 88.1813351,14.9677269 C87.9857893,14.5513921 88.3276224,13.0707506 88.7628075,12.449093 L89.2052754,11.8199415 C89.7248762,11.0977122 90.4378751,10.1931228 91.0022629,9.97803461 C92.3512593,9.46393212 90.9414668,8.85835763 92.2129031,7.73094619 C93.4843394,6.60353475 93.7040608,7.4408492 93.9734885,6.27382957 C94.1227476,5.62731711 95.6871499,5.27259364 94.7021606,4.61902178 C94.5101817,4.49163764 94.6063436,4.08457276 94.9906464,3.39782715 C97.0046109,3.36787633 99.1668268,3.77494121 101.477294,4.61902178 Z" id="path-8"></path>
        <filter x="-1.3%" y="-2.2%" width="102.6%" height="108.8%" filterUnits="objectBoundingBox" id="filter-9">
            <feOffset dx="0" dy="1" in="SourceAlpha" result="shadowOffsetOuter1"></feOffset>
            <feColorMatrix values="0 0 0 0 0.863681402   0 0 0 0 0.893974424   0 0 0 0 1  0 0 0 1 0" type="matrix" in="shadowOffsetOuter1"></feColorMatrix>
        </filter>
        <path d="M25.5845535,13.4222726 C25.2987955,14.9873931 23.8538064,16.1901749 25.7110891,16.2557885 L25.8784761,16.2586095 C27.2839339,16.2586095 27.7920833,16.7444282 27.4029243,17.7160656 L28.1860513,17.9536452 C28.5768166,18.1538282 28.9119541,18.2539197 29.1914638,18.2539197 C30.2244399,18.2539197 30.7211859,18.7601061 30.7211859,19.4523085 C30.7211859,20.1445108 32.2969891,19.9604897 32.2969891,19.9604897 L32.3637382,19.8938198 C32.5784754,19.6984847 33.3563844,19.1168015 35.3348063,18.7276587 C37.74332,18.2539197 39.166634,19.9611811 40.2305012,19.4523085 C41.2352647,18.9717066 42.3804699,19.2473293 43.0372632,19.8506979 L43.1479699,19.9604897 C43.5694926,20.4125681 44.5086359,20.7367676 45.9653997,20.9330883 C46.1551083,21.6893496 45.5647069,22.0846679 44.1941956,22.1190435 L43.2843095,22.1261843 C41.6599922,22.1519812 41.3926358,22.2979304 40.7110262,22.890083 C39.940511,23.5594729 39.1459658,24.8541853 36.9166877,25.3946356 C34.6874096,25.9351475 32.1647999,25.9032386 31.3832834,25.3946356 C30.6017668,24.8860325 29.4808395,24.413125 28.5012733,24.413125 C27.5217071,24.413125 26.6705691,24.757424 25.0898029,25.3946356 C23.5090367,26.0318472 20.6316041,25.7362472 17.6010983,25.7362472 C14.9877571,25.7362472 17.0658074,24.413125 14.189574,24.413125 C13.0230313,24.413125 12.4146579,25.9351475 11.2572941,25.9351475 C9.85526786,25.9351475 9.64240992,25.153311 9.29162691,24.413125 C10.9203232,22.6321392 12.8893235,20.2936552 16.2848778,17.4825245 C19.6804321,14.6713938 22.5779724,12.7477264 25.3566742,11.1398926 C25.7960452,11.6794064 25.7659545,12.4287241 25.5845535,13.4222726 Z" id="path-10"></path>
        <filter x="-1.4%" y="-3.4%" width="102.7%" height="113.5%" filterUnits="objectBoundingBox" id="filter-11">
            <feOffset dx="0" dy="1" in="SourceAlpha" result="shadowOffsetOuter1"></feOffset>
            <feColorMatrix values="0 0 0 0 0.863681402   0 0 0 0 0.893974424   0 0 0 0 1  0 0 0 1 0" type="matrix" in="shadowOffsetOuter1"></feColorMatrix>
        </filter>
        <linearGradient x1="50%" y1="0%" x2="50%" y2="100%" id="linearGradient-12">
            <stop stop-color="#BDCCFF" offset="0%"></stop>
            <stop stop-color="#D8E0FF" offset="100%"></stop>
        </linearGradient>
    </defs>
    <g id="引擎组件" stroke="none" stroke-width="1" fill="none" fill-rule="evenodd">
        <g id="证书已过期或无效配图">
            <mask id="mask-2" fill="white">
                <use xlink:href="#path-1"></use>
            </mask>
            <use id="蒙版" fill="#D0DAFF" xlink:href="#path-1"></use>
            <line x1="41" y1="17" x2="62.5639203" y2="30.5619334" id="路径-24" stroke="url(#linearGradient-3)" stroke-width="0.5" mask="url(#mask-2)"></line>
            <line x1="71.5639203" y1="31.7375107" x2="93.1278405" y2="45.2994441" id="路径-24备份" stroke="url(#linearGradient-3)" stroke-width="0.5" mask="url(#mask-2)"></line>
            <line x1="72.5639203" y1="34.7375107" x2="94.1278405" y2="48.2994441" id="路径-24备份" stroke="url(#linearGradient-3)" stroke-width="0.5" opacity="0.677199591" mask="url(#mask-2)"></line>
            <line x1="16" y1="34" x2="37.5639203" y2="47.5619334" id="路径-24备份-2" stroke="url(#linearGradient-4)" stroke-width="0.5" mask="url(#mask-2)"></line>
            <g id="编组" mask="url(#mask-2)">
                <g transform="translate(-6.000000, 57.000000)">
                    <mask id="mask-6" fill="white">
                        <use xlink:href="#path-5"></use>
                    </mask>
                    <use id="蒙版" stroke="none" fill="#EDF1FF" fill-rule="evenodd" xlink:href="#path-5"></use>
                    <path d="M38.0793645,57.0639999 C40.2588022,56.9268574 42.1764727,56.7161314 43.832376,56.4318219 C46.3162309,56.0053576 48.0937292,54.8555634 52.2498912,55.1975153 C56.4060531,55.5394671 57.2767848,58.0315337 59.2047133,58.342464 C61.1326417,58.6533944 62.4697287,58.6638785 63.1815916,57.0639999 C63.6087081,56.1040755 63.3906552,55.2607065 63.1815916,54.2932504 C62.9064403,53.0199688 62.22947,51.8317485 62.6053794,51.1549404 C62.9812887,50.4781323 64.6143456,50.7621141 65.0861835,50.7621141 C65.5580214,50.7621141 67.4746942,50.3274058 67.5508503,50.3135378 C70.6196332,49.7547141 71.0982208,50.1086994 72.8262607,49.8287577 C74.9301258,49.4879325 76.0605797,49.82068 77.6176439,50.3135378 C79.174708,50.8063955 79.5810501,50.7907487 80.844842,52.6756787 C82.1086339,54.5606088 81.0074628,54.7706217 82.1509947,55.1975153 C83.2945267,55.6244088 84.777809,55.6136223 85.5892435,54.6456679 C86.4006779,53.6777135 86.9904216,53.3430969 86.5,52.3427886 C86.0095784,51.3424802 85.9620743,49.1158163 86.8313064,47.9302672 C87.7005384,46.744718 88.7495357,46.3408229 90.0230959,45.4881377 C91.2966562,44.6354525 93.6866359,43.4019662 94.7334048,42.9858264 C95.7287369,42.5901351 101.869417,42.8330827 103.337074,42.3832546 C104.804732,41.9334265 106.792155,41.2436041 109.524199,41.2436041 C111.345561,41.2436041 112.822881,41.2436041 113.956158,41.2436041 C106.876769,49.9433683 100.469185,55.6429883 94.7334048,58.342464 C86.1297352,62.3916776 65.0302345,64.9371019 55.7549164,63.7283195 C49.571371,62.9224646 43.6795204,60.7010248 38.0793645,57.0639999 Z" id="路径-7" stroke="none" fill="#E7ECFF" fill-rule="evenodd" mask="url(#mask-6)"></path>
                    <path d="M86.3895231,20 L92.148477,24.2237032 L94.924097,27.0654008 C93.6703775,27.7573136 92.8223768,28.5688466 92.3800948,29.5 C91.9217895,30.4648881 91.3777058,32.9286194 94.4892279,35.0832361 C95.2561868,35.6143274 96.8488882,36.5472726 99.3183442,36.9087665 C100.435225,37.0722623 101.698927,37.0589524 103.10945,36.8688368 L103.586063,39 L56,39 L52,33.0923641 L46.7580411,27.0654008 C45.1132218,25.1260047 45.8713481,24.1935304 49.0324199,24.2679779 C52.1934917,24.3424254 55.9557835,24.3796491 60.3192953,24.3796491 L57.0599457,21.5998042 C54.9357918,21.5998042 53.6447623,21.5998042 53.1868574,21.5998042 C52.5,21.5998042 51.9108528,21.1261254 51.0642299,20.642466 C50.7905049,20.4860921 50.4357616,20.2719368 50,20 L86.3895231,20 Z M72.0797417,21.5998042 L69.0317017,21.5998042 L73.2687752,24.3796491 L76.343599,24.3796491 L72,22.5814457 L72.0797417,21.5998042 Z" id="形状" stroke="none" fill="url(#linearGradient-7)" fill-rule="evenodd" opacity="0.470749628" mask="url(#mask-6)"></path>
                    <g id="路径" stroke="none" fill="none" mask="url(#mask-6)">
                        <use fill="black" fill-opacity="1" filter="url(#filter-9)" xlink:href="#path-8"></use>
                        <use fill="#E3E9FF" fill-rule="evenodd" xlink:href="#path-8"></use>
                    </g>
                    <g id="路径" stroke="none" fill="none" mask="url(#mask-6)">
                        <use fill="black" fill-opacity="1" filter="url(#filter-11)" xlink:href="#path-10"></use>
                        <use fill="#E3E9FF" fill-rule="evenodd" xlink:href="#path-10"></use>
                    </g>
                    <path d="M99.5725837,36.6742235 C104.259366,37.0441844 108.273839,35.1259685 108.539159,32.3897682 C108.80448,29.653568 105.220176,27.1355268 100.533393,26.7655658 C95.8466105,26.3956049 91.8321379,28.3138208 91.5668176,31.0500211 C91.3014974,33.7862213 94.885801,36.3042625 99.5725837,36.6742235 Z" id="椭圆形" stroke="none" fill="#E1E7FF" fill-rule="evenodd" mask="url(#mask-6)"></path>
                    <ellipse id="椭圆形备份-24" stroke="none" fill="#E1E7FF" fill-rule="evenodd" mask="url(#mask-6)" cx="44.5" cy="55" rx="12.5" ry="8"></ellipse>
                    <ellipse id="椭圆形备份-22" stroke="none" fill="#E1E7FF" fill-rule="evenodd" mask="url(#mask-6)" cx="37" cy="14.5" rx="4" ry="2.5"></ellipse>
                    <ellipse id="椭圆形" stroke="none" fill="#D5DEFF" fill-rule="evenodd" mask="url(#mask-6)" transform="translate(100.052988, 32.719895) rotate(5.000000) translate(-100.052988, -32.719895) " cx="100.052988" cy="32.7198947" rx="6.5" ry="4"></ellipse>
                    <ellipse id="椭圆形备份-25" stroke="none" fill="#D5DEFF" fill-rule="evenodd" mask="url(#mask-6)" cx="44.5" cy="56.5" rx="9.5" ry="6.5"></ellipse>
                    <ellipse id="椭圆形备份-23" stroke="none" fill="#D5DEFF" fill-rule="evenodd" mask="url(#mask-6)" cx="37" cy="15" rx="3" ry="2"></ellipse>
                    <circle id="椭圆形备份-27" stroke="none" fill="#D0DAFF" fill-rule="evenodd" opacity="0.27780878" mask="url(#mask-6)" cx="63" cy="45" r="2"></circle>
                </g>
            </g>
            <g id="编组-3" mask="url(#mask-2)">
                <g transform="translate(2.000000, -2.000000)">
                    <circle id="椭圆形" fill="#D9E2FF" cx="24" cy="14" r="14"></circle>
                    <path d="M30.6748433,21.1984232 C29.4884053,22.13926 29.075982,23.0246703 27.8779177,23.4771878 C26.6798533,23.9297054 25.1835571,25.8203074 23.7667533,26.2323608 C22.7178262,26.5374235 20.2185598,26.8115355 18.7061978,26.9333161 C17.8409167,26.5821893 17.0181105,26.1492527 16.247003,25.644503 C17.6360656,25.6924591 18.751322,25.628522 19.5946629,25.4522115 C21.066895,25.1444239 23.7438088,25.5607662 25.0395975,24.2071917 C26.3353861,22.8536171 28.0090288,22.255457 29.3296007,21.4360413 C30.0555962,20.9855606 30.815666,20.4576315 31.4019917,19.9516353 C31.8821813,19.5372341 32.2365852,19.104702 32.438097,19.0176936 C32.8856608,18.8244455 31.8612812,20.2575863 30.6748433,21.1984232 Z" id="形状结合" fill="#D1DCFF"></path>
                    <circle id="椭圆形备份" fill="#EDF1FF" cx="93" cy="19" r="1"></circle>
                    <circle id="椭圆形备份-11" fill="#EDF1FF" cx="41.5" cy="16.5" r="1"></circle>
                    <circle id="椭圆形备份-7" fill="#EDF1FF" cx="57.5" cy="5.5" r="1"></circle>
                    <circle id="椭圆形备份-10" fill="#EDF1FF" cx="0.5" cy="54.5" r="1"></circle>
                    <circle id="椭圆形备份-8" fill="#EDF1FF" cx="24.25" cy="14.25" r="1"></circle>
                    <circle id="椭圆形备份-12" fill="#EDF1FF" cx="34.25" cy="14.25" r="1"></circle>
                    <circle id="椭圆形备份-9" fill="#EDF1FF" cx="12.25" cy="24.25" r="1"></circle>
                    <circle id="椭圆形备份-13" fill="#EDF1FF" cx="9.25" cy="46.25" r="1"></circle>
                    <circle id="椭圆形备份-14" fill="#EDF1FF" cx="10.25" cy="61.25" r="1"></circle>
                    <circle id="椭圆形备份-17" fill="#EDF1FF" cx="44.25" cy="66.25" r="1"></circle>
                    <circle id="椭圆形备份-6" fill="#EDF1FF" cx="91.5" cy="40.5" r="1"></circle>
                    <circle id="椭圆形备份-18" fill="#F0F4FF" cx="108.5" cy="78.5" r="1"></circle>
                    <circle id="椭圆形备份-2" fill="#EDF1FF" cx="112.25" cy="39.25" r="1"></circle>
                    <circle id="椭圆形备份-3" fill="#EDF1FF" cx="107.25" cy="36.25" r="1"></circle>
                    <circle id="椭圆形备份-4" fill="#EDF1FF" cx="82.25" cy="29.25" r="1"></circle>
                    <circle id="椭圆形备份-15" fill="#EDF1FF" cx="114.25" cy="55.25" r="1"></circle>
                    <circle id="椭圆形备份-26" fill="#D0DAFF" opacity="0.635974702" cx="109" cy="71" r="2"></circle>
                    <circle id="椭圆形备份-16" fill="#EDF1FF" cx="110.25" cy="63.25" r="1"></circle>
                    <circle id="椭圆形备份-19" fill="#DCE4FF" cx="101.25" cy="82.25" r="1"></circle>
                    <circle id="椭圆形备份-5" fill="#EDF1FF" cx="62.25" cy="11.25" r="1"></circle>
                    <circle id="椭圆形备份-20" fill="#EDF1FF" cx="61.25" cy="33.25" r="1"></circle>
                    <circle id="椭圆形备份-21" fill="#EDF1FF" cx="44.25" cy="28.25" r="1"></circle>
                    <circle id="椭圆形备份-21" fill="#EDF1FF" cx="39.25" cy="51.25" r="1"></circle>
                    <path d="M28.7349938,18.7122629 C19.8537712,24.3149424 12.7463557,26.3832126 11.7006858,25.9426533 C11.0035726,25.6489472 10.8266285,25.1227311 11.1698536,24.3640051 L11.371614,24.1246799 C10.8575465,24.9654081 11.0092959,25.4876062 11.8268625,25.6912744 C13.0532123,25.9967766 20.1346829,22.9569137 27.1681409,18.5126177 C33.109319,14.7585106 34.9118251,12.5919605 36.6798378,10.4316253 C37.7947563,9.06930594 38.5767332,7.47691757 38.6405567,6.96602037 C38.7227056,6.30843238 38.2652448,6.01242734 37.2681744,6.07800525 C38.142246,5.8741562 38.7038296,6.06984213 38.9529252,6.66506304 C39.3265686,7.5578944 37.6162164,13.1095833 28.7349938,18.7122629 Z" id="路径-14" fill="#E4EAFF"></path>
                    <path d="M36.4978901,7 C35.9127808,8.0207135 35.4899695,8.66769174 35.2294563,8.94093472 C34.8386866,9.35079918 34.5622941,9.47849406 34.1251665,10.058061 C33.6880388,10.6376279 33.3194672,10.6854531 32.8887491,11.1000148 C32.458031,11.5145766 31.7966522,11.4231083 31.3349304,12.0354547 C30.8732086,12.6478011 30.1308884,13.0990332 29.6507193,13.6475456 C29.1705502,14.1960579 27.9504286,14.8433996 27.3841391,15.3632203 C26.8178496,15.883041 24.8802163,17 25.0058371,17 C25.1314579,17 28.4762907,15.419686 28.922003,15.1283335 C29.3677153,14.836981 30.1176165,14.3379756 30.5475518,13.8362215 C30.9774871,13.3344674 31.5845461,12.8442317 31.8222228,12.6865224 C32.0598996,12.528813 33.3901353,12.0421602 33.6862677,11.658054 C33.9824,11.2739478 34.5649975,10.6530508 34.9783099,10.4972403 C35.3916224,10.3414299 36.2058242,9.32674855 36.4477011,9.0259932 C36.6089523,8.82548964 36.793052,8.5088625 37,8.07611178 C36.8937106,7.82823878 36.8051857,7.62613882 36.7344252,7.46981191 C36.6636648,7.31348499 36.5848198,7.15688102 36.4978901,7 Z" id="路径-15" fill="#D1DCFF"></path>
                    <path d="M13.0556936,22.7500419 C14.3651601,22.1521313 15.2000409,21.8087155 15.5603359,21.7197947 C16.1029701,21.5858727 16.9395125,21.2158942 17.3746484,21.1339308 C17.8097842,21.0519674 19.4494482,20.414108 19.8548565,20.3080789 C20.2602647,20.2020497 20.8905262,19.9172602 21.1298907,19.734606 C21.2968885,19.6071734 21.586925,19.3623047 22,19 C21.7208732,19.3646829 21.4308368,19.676247 21.1298907,19.9346923 C20.6784716,20.3223602 20.3154035,20.3223602 19.8548565,20.5949089 C19.3943094,20.8674576 18.5270394,21.0820172 18.1802206,21.2270032 C17.8334018,21.3719893 16.9519652,21.787829 16.4794584,22.1447527 C16.1644538,22.3827018 15.3148172,22.9184785 13.9305483,23.7520829 C13.7170657,23.5208442 13.5530337,23.3322542 13.4384524,23.186313 C13.3238711,23.0403717 13.1962848,22.894948 13.0556936,22.7500419 Z" id="路径-20" fill="#D1DCFF"></path>
                </g>
            </g>
            <g id="编组-4" mask="url(#mask-2)">
                <g transform="translate(32.000000, 36.000000)">
                    <rect id="矩形" stroke="none" fill="#D8E0FF" fill-rule="evenodd" x="17" y="32" width="13" height="7"></rect>
                    <path d="M13,39 L34.5,39 C34.7761424,39 35,39.2238576 35,39.5 L35,40.5 C35,40.7761424 34.7761424,41 34.5,41 L12,41 L12,41 L12,40 C12,39.4477153 12.4477153,39 13,39 Z" id="矩形备份" stroke="none" fill="#DBE3FF" fill-rule="evenodd"></path>
                    <path d="M14,39 L14.0664307,39 L14.0664307,39 L34.5,39 C34.7761424,39 35,39.2238576 35,39.5 L35,40.5 C35,40.7761424 34.7761424,41 34.5,41 L12,41 L12,41 C12,39.8954305 12.8954305,39 14,39 Z" id="矩形备份" stroke="none" fill="#DEE5FF" fill-rule="evenodd"></path>
                    <path d="M11.9999998,40 C12.1949338,39.69168 12.5843951,39.53752 13.1683838,39.53752 C13.4109188,39.53752 14.4912453,39.53752 18.0217413,39.53752 C18.1106209,39.53752 17.7700404,39.3583467 16.9999998,39 L34.9999998,39 L34.9999998,41 L11.9999998,41 L11.9999998,40 Z" id="矩形" stroke="none" fill="#D5DEFF" fill-rule="evenodd"></path>
                    <rect id="矩形" stroke="url(#linearGradient-12)" stroke-width="1" fill="#F4F7FF" fill-rule="evenodd" x="0" y="0" width="49" height="33" rx="3"></rect>
                    <rect id="矩形" stroke="none" fill="#D0DAFF" fill-rule="evenodd" transform="translate(17.397678, 12.096306) rotate(-52.000000) translate(-17.397678, -12.096306) " x="16.647678" y="9.09630617" width="1.5" height="6" rx="0.75"></rect>
                    <rect id="矩形备份-3" stroke="none" fill="#D0DAFF" fill-rule="evenodd" transform="translate(30.353201, 12.114270) rotate(-37.000000) translate(-30.353201, -12.114270) " x="29.6032015" y="9.11427009" width="1.5" height="6" rx="0.75"></rect>
                    <rect id="矩形备份-2" stroke="none" fill="#D0DAFF" fill-rule="evenodd" transform="translate(17.456587, 12.122732) rotate(-142.000000) translate(-17.456587, -12.122732) " x="16.7065874" y="9.12273174" width="1.5" height="6" rx="0.75"></rect>
                    <rect id="矩形备份-4" stroke="none" fill="#D0DAFF" fill-rule="evenodd" transform="translate(30.403264, 12.155042) rotate(-127.000000) translate(-30.403264, -12.155042) " x="29.6532641" y="9.1550421" width="1.5" height="6" rx="0.75"></rect>
                    <path d="M18,22.1430181 C19.5555556,20.8096847 21.6666667,20.1430181 24.3333333,20.1430181 C27,20.1430181 28.8888889,20.8096847 30,22.1430181" id="路径-43" stroke="#D0DAFF" stroke-width="2" fill="none" stroke-linecap="round"></path>
                    <polygon id="路径-48" stroke="none" fill="#EDF1FF" fill-rule="evenodd" points="48.3895231 14.2550521 36 13.3796491 34 32.5008268 48.3895231 32.1398926"></polygon>
                </g>
            </g>
            <g id="编组-2" mask="url(#mask-2)">
                <g transform="translate(66.000000, 49.379649)">
                    <path d="M9.10272938,2.73761334 L6,30.2974916 C7.92407548,30.365017 10.1613191,30.518818 12.7117307,30.7588947 C15.2621424,30.9989714 17.80325,31.3606912 20.3350535,31.8440541 C21.1722637,26.4360104 22.1658704,21.0653218 23.3158739,15.7319885 C24.4658773,10.3986552 25.2755309,7.07578199 25.7448348,5.76336897 L9.10272938,2.73761334 Z" id="路径-47备份" stroke="none" fill="#F2F4FF" fill-rule="evenodd"></path>
                    <path d="M22.8784728,5.23748544 L19.2567193,31.6511001 C18.9770361,31.5904762 18.5128467,31.5223703 17.864151,31.4467822 C17.2154553,31.3711941 16.596065,31.3048178 16.0059801,31.2476532 L19.600977,4.70081899 C20.2312086,4.78561653 20.7043573,4.85423418 21.0204229,4.90667194 C21.3364885,4.9591097 21.9558385,5.06938087 22.8784728,5.23748544 Z" id="路径-49" stroke="none" fill="#ECF0FF" fill-rule="evenodd"></path>
                    <path d="M2,-1.31450406e-13 L-4.97379915e-14,30.2017966 C2.81560864,30.2399897 5.88263672,30.3795078 9.20108424,30.6203509 C12.5195318,30.861194 15.7185035,31.1749594 18.7979993,31.5616472 L21.1249363,1.29332253 C18.9432611,1.12128413 15.7259665,0.863156318 11.4730525,0.518939085 C7.22013858,0.174721852 4.0624544,0.00174215682 2,-1.31450406e-13 Z" id="路径-47" stroke="none" fill="#F9FBFF" fill-rule="evenodd"></path>
                    <circle id="椭圆形" stroke="#E1E8FF" stroke-width="0.8" fill="#EDF1FF" fill-rule="evenodd" transform="translate(10.933849, 11.815062) rotate(-3.000000) translate(-10.933849, -11.815062) " cx="10.9338489" cy="11.8150619" r="4.5"></circle>
                    <path d="M10.8725883,13.1599254 L9.79422055,13.7268569 C9.64756718,13.8039571 9.46617903,13.7475732 9.38907879,13.6009198 C9.35837707,13.5425217 9.34778266,13.4756312 9.35893572,13.4106039 L9.56488564,12.2098238 L9.56488564,12.2098238 L8.69246776,11.3594265 C8.57382269,11.2437761 8.571395,11.0538422 8.68704536,10.9351971 C8.73309794,10.887952 8.79344067,10.8572058 8.85873178,10.8477185 L10.0643836,10.672527 L10.0643836,10.672527 L10.6035675,9.58002112 C10.6768942,9.43144502 10.856782,9.37044332 11.0053581,9.44377001 C11.0645218,9.47296908 11.1124101,9.52085734 11.1416092,9.58002112 L11.6807931,10.672527 L11.6807931,10.672527 L12.8864449,10.8477185 C13.0504084,10.8715438 13.1640128,11.0237766 13.1401875,11.1877401 C13.1307002,11.2530312 13.099954,11.3133739 13.0527089,11.3594265 L12.1802911,12.2098238 L12.1802911,12.2098238 L12.386241,13.4106039 C12.4142493,13.5739049 12.3045729,13.7289917 12.141272,13.757 C12.0762447,13.768153 12.0093543,13.7575586 11.9509561,13.7268569 L10.8725883,13.1599254 L10.8725883,13.1599254 Z" id="星形" stroke="none" fill="#FDFEFF" fill-rule="evenodd" transform="translate(10.872588, 11.784925) rotate(4.000000) translate(-10.872588, -11.784925) "></path>
                    <path d="M6.54994911,14.8736137 C6.69132566,15.1620467 6.9562465,15.4991576 7.34471163,15.8849463 C7.73317676,16.2707351 8.07061876,16.5557573 8.35703764,16.7400131 L6.05955623,19.3411981 L5.5461567,17.9924831 L3.83628929,17.7138701 L6.54994911,14.8736137 Z" id="路径-50" stroke="none" fill="#DCE4FF" fill-rule="evenodd" transform="translate(6.096663, 17.107406) rotate(-5.000000) translate(-6.096663, -17.107406) "></path>
                    <path d="M14.8072656,16.0227784 C14.972672,16.2930332 15.2163573,16.6081138 15.5383214,16.9680201 C15.8602855,17.3279264 16.1623699,17.6007734 16.4445744,17.7865612 L14.0235483,20.2615989 L13.4656912,19.0410649 L12.0213408,18.4575095 L14.8072656,16.0227784 Z" id="路径-50备份" stroke="none" fill="#DCE4FF" fill-rule="evenodd" transform="translate(14.232958, 18.142189) scale(-1, 1) rotate(-21.000000) translate(-14.232958, -18.142189) "></path>
                    <line x1="4.23561355" y1="22.9028146" x2="15.6631936" y2="23.927496" id="路径-51" stroke="#DCE4FF" stroke-width="0.5" fill="none"></line>
                    <line x1="3.65020288" y1="26.1578709" x2="15.371839" y2="27.1203509" id="路径-51备份" stroke="#DCE4FF" stroke-width="0.5" fill="none"></line>
                </g>
            </g>
        </g>
    </g>
</svg>