<?xml version="1.0" encoding="UTF-8"?>
<svg width="18px" height="18px" viewBox="0 0 18 18" version="1.1" xmlns="http://www.w3.org/2000/svg" xmlns:xlink="http://www.w3.org/1999/xlink">
    <!-- Generator: Sketch 60 (88103) - https://sketch.com -->
    <title>hdpi/输入框-删除</title>
    <desc>Created with Sketch.</desc>
    <g id="引擎组件" stroke="none" stroke-width="1" fill="none" fill-rule="evenodd">
        <g id="输入框-删除">
            <rect id="切图区域" x="0" y="0" width="18" height="18"></rect>
            <g id="Shape" transform="translate(1.500000, 1.500000)">
                <path d="M7.5,0 C11.6421356,0 15,3.35786438 15,7.5 C15,11.6421356 11.6421356,15 7.5,15 C3.35786438,15 0,11.6421356 0,7.5 C0,3.35786438 3.35786438,0 7.5,0 Z" fill="#CCCCCC"></path>
                <path d="M5.02512627,4.31801948 L7.5,6.79289322 L9.97487373,4.31801948 C10.1701359,4.12275734 10.4867184,4.12275734 10.6819805,4.31801948 C10.8772427,4.51328163 10.8772427,4.82986412 10.6819805,5.02512627 L8.20710678,7.5 L10.6819805,9.97487373 C10.8772427,10.1701359 10.8772427,10.4867184 10.6819805,10.6819805 C10.4867184,10.8772427 10.1701359,10.8772427 9.97487373,10.6819805 L7.5,8.20710678 L5.02512627,10.6819805 C4.82986412,10.8772427 4.51328163,10.8772427 4.31801948,10.6819805 C4.12275734,10.4867184 4.12275734,10.1701359 4.31801948,9.97487373 L6.79289322,7.5 L4.31801948,5.02512627 C4.12275734,4.82986412 4.12275734,4.51328163 4.31801948,4.31801948 C4.51328163,4.12275734 4.82986412,4.12275734 5.02512627,4.31801948 Z" id="Path" fill="#FFFFFF" fill-rule="nonzero"></path>
            </g>
        </g>
    </g>
</svg>