<?xml version="1.0" encoding="UTF-8"?>
<svg width="24px" height="24px" viewBox="0 0 24 24" version="1.1" xmlns="http://www.w3.org/2000/svg" xmlns:xlink="http://www.w3.org/1999/xlink">
    <!-- Generator: Sketch 60 (88103) - https://sketch.com -->
    <title>hdpi/字体调节-小</title>
    <desc>Created with Sketch.</desc>
    <g id="引擎组件" stroke="none" stroke-width="1" fill="none" fill-rule="evenodd">
        <g id="字体调节-小">
            <rect id="切图大小" x="0" y="0" width="24" height="24"></rect>
            <g id="Group" transform="translate(3.000000, 3.000000)" fill="#000000">
                <g id="Group-2" transform="translate(1.333108, 2.289474)">
                    <path d="M12.1726342,6.05035622 C12.3073614,6.10498343 12.4199438,6.20060515 12.4950735,6.32208173 L12.5441592,6.41780039 L14.8857048,12.0538022 C14.9911609,12.3076308 14.8691522,12.5981762 14.6131906,12.7027535 C14.3856692,12.7957112 14.1288932,12.7898398 14.0005756,12.6091155 L13.958786,12.5329992 L13.1565,10.609 L11.4495,10.608 L10.5005,8.323 L11.2855067,6.41947075 C11.4276955,6.07461052 11.824876,5.90935232 12.1726342,6.05035622 Z M6.04354668,0.274134169 C6.22081932,0.346012076 6.36773991,0.474077634 6.46245318,0.63671562 L6.51284142,0.738274182 L11.1959325,12.0102779 C11.3013886,12.2641064 11.1793799,12.5546518 10.9234183,12.6592292 C10.6930529,12.7533488 10.3122768,12.6647572 10.1615476,12.4610567 L10.1203468,12.388986 L8.53136753,8.50652632 L2.90236753,8.50652632 L1.31261314,12.3877552 C1.21948363,12.6136286 0.891861063,12.7349383 0.640238222,12.6861369 L0.550048575,12.6597343 C0.322277116,12.5673809 0.199947963,12.3278094 0.249159511,12.0972436 L0.27578391,12.0115087 L4.92296452,0.7403841 C5.10257143,0.304771185 5.60427316,0.0960239801 6.04354668,0.274134169 Z M11.9163143,7.63324979 L11.1235,9.615 L12.7425,9.615 L11.9163143,7.63324979 Z M5.71884436,1.63074353 L3.33836753,7.44152632 L8.09536753,7.44152632 L5.71884436,1.63074353 Z" id="Combined-Shape"></path>
                </g>
            </g>
        </g>
    </g>
</svg>