<?xml version="1.0" encoding="UTF-8"?>
<svg width="24px" height="24px" viewBox="0 0 24 24" version="1.1" xmlns="http://www.w3.org/2000/svg" xmlns:xlink="http://www.w3.org/1999/xlink">
    <!-- Generator: Sketch 60 (88103) - https://sketch.com -->
    <title>hdpi/字体调节-大</title>
    <desc>Created with Sketch.</desc>
    <g id="引擎组件" stroke="none" stroke-width="1" fill="none" fill-rule="evenodd">
        <g id="字体调节-大">
            <rect id="切图大小" x="0" y="0" width="24" height="24"></rect>
            <g id="Group" fill="#000000">
                <g id="Group-2" transform="translate(1.777478, 3.052632)">
                    <path d="M16.230179,8.06714162 C16.4173001,8.14301275 16.5723829,8.27819306 16.6723581,8.44986649 L16.7255456,8.55706719 L19.8476063,16.0717363 C19.9882146,16.4101744 19.8255362,16.7975682 19.4842542,16.9370047 C19.1739977,17.0637651 18.822942,17.0526958 18.6560367,16.795362 L18.6117146,16.7106656 L17.5423333,14.146 L15.2653333,14.145 L13.9993333,11.099 L15.0473423,8.55929433 C15.2369273,8.09948069 15.7665014,7.87913642 16.230179,8.06714162 Z M8.05806225,0.365512226 C8.301179,0.464087641 8.50148079,0.641922044 8.62725746,0.867653576 L8.68378856,0.984365576 L14.92791,16.0137038 C15.0685182,16.3521419 14.9058398,16.7395357 14.5645578,16.8789722 C14.2517159,17.006789 13.7308298,16.8818845 13.5378839,16.599496 L13.4937957,16.518648 L11.3758234,11.3427018 L3.86882337,11.3427018 L1.75015085,16.5170069 C1.62209778,16.8275828 1.16154087,16.9898907 0.822507616,16.9080818 L0.733398101,16.8796458 C0.422800656,16.7537093 0.259256015,16.4224583 0.337041916,16.1087186 L0.36771188,16.0153449 L6.56395269,0.9871788 C6.80342858,0.406361579 7.47236421,0.128031974 8.05806225,0.365512226 Z M15.8884191,10.1776664 L14.8313333,12.821 L16.9903333,12.821 L15.8884191,10.1776664 Z M7.62512582,2.1743247 L4.45082337,9.92170175 L10.7948234,9.92170175 L7.62512582,2.1743247 Z" id="Combined-Shape"></path>
                </g>
            </g>
        </g>
    </g>
</svg>