<?xml version="1.0" encoding="UTF-8"?>
<svg width="16px" height="16px" viewBox="0 0 16 16" version="1.1" xmlns="http://www.w3.org/2000/svg" xmlns:xlink="http://www.w3.org/1999/xlink">
    <!-- Generator: Sketch 60 (88103) - https://sketch.com -->
    <title>hdpi/返回首页</title>
    <desc>Created with Sketch.</desc>
    <g id="引擎组件" stroke="none" stroke-width="1" fill="none" fill-rule="evenodd" opacity="0.800000012">
        <g id="返回首页" stroke="#000000" stroke-width="1.33333333">
            <path d="M1.19168266,7.7290714 L3.54119265,7.72889091 L3.5412667,13.4012095 C3.5412667,14.0840275 4.10122831,14.6382979 4.79670229,14.6382979 L11.2034097,14.6382979 C11.8980742,14.6382979 12.4588453,14.0829185 12.4588453,13.40122 L12.458756,7.72889092 L13.1254844,7.72894213 L14.8088257,7.72907142 L12.645208,5.65497389 L12.6453334,5.37037289 L12.6461217,3.58169123 C12.6461217,3.55402775 12.619551,3.5273011 12.6370683,3.52581196 L12.5834997,3.52787794 C12.5580807,3.53131309 12.5389465,3.55314559 12.5389464,3.58214743 L12.5375983,5.55211008 L8.22825456,1.42154894 C8.10555661,1.30394108 7.89492032,1.30391559 7.77219641,1.42154834 L1.19168266,7.7290714 Z" id="形状结合"></path>
        </g>
    </g>
</svg>