<?xml version="1.0" encoding="UTF-8"?>
<svg width="120px" height="120px" viewBox="0 0 120 120" version="1.1" xmlns="http://www.w3.org/2000/svg" xmlns:xlink="http://www.w3.org/1999/xlink">
    <!-- Generator: Sketch 60 (88103) - https://sketch.com -->
    <title>访问地址有误或不存在配图</title>
    <desc>Created with Sketch.</desc>
    <defs>
        <circle id="path-1" cx="60" cy="60" r="60"></circle>
        <linearGradient x1="100%" y1="72.3811506%" x2="22.5097915%" y2="41.9692034%" id="linearGradient-3">
            <stop stop-color="#EFF3FF" offset="0%"></stop>
            <stop stop-color="#D6DFFF" offset="30.8638867%"></stop>
            <stop stop-color="#D0DAFF" offset="100%"></stop>
        </linearGradient>
        <linearGradient x1="100%" y1="72.3811506%" x2="-2.87571457%" y2="30.2231197%" id="linearGradient-4">
            <stop stop-color="#EFF3FF" offset="0%"></stop>
            <stop stop-color="#D6DFFF" offset="46.6204058%"></stop>
            <stop stop-color="#D0DAFF" offset="100%"></stop>
        </linearGradient>
        <linearGradient x1="100%" y1="68.4162572%" x2="22.5097915%" y2="43.3918851%" id="linearGradient-5">
            <stop stop-color="#EFF3FF" offset="0%"></stop>
            <stop stop-color="#D6DFFF" offset="30.8638867%"></stop>
            <stop stop-color="#D0DAFF" offset="100%"></stop>
        </linearGradient>
        <path d="M116.623188,40.3816797 C128.482187,41.378289 139.793461,44.299998 150.243449,48.8332473 C150.845847,52.2289384 149.627232,54.7760243 146.586797,56.4780452 C141.604672,59.267016 135.334909,57.232156 133.231336,57.2777761 C127.170464,57.4092181 127.089793,53.842919 126.378677,53.3710515 C124.941787,52.4175908 124.865847,51.6423122 125.394816,50.7861672 C125.923784,49.9300222 128.346523,49.5721255 127.012544,49.0578232 C125.678564,48.5435209 122.904795,50.1076457 121.717323,50.9637907 C120.529851,51.8199357 120.164131,50.9637907 118.997482,50.9637907 C117.830833,50.9637907 117.03294,51.562279 116.371631,52.1674211 C116.007237,52.500866 115.364931,53.3744216 114.646204,53.9416917 C114.060571,54.4039142 112.683311,53.8004785 112.345886,53.3710515 C112.061697,53.0093756 112.061697,51.4897872 112.345886,50.7861672 C112.652956,50.0258958 113.303359,48.3233875 113.972077,47.8746741 C115.170851,47.0702898 113.660967,46.7973705 114.646204,45.4128436 C115.631441,44.0283167 116.033886,44.7947443 116.033886,43.5970272 C116.033886,42.9335088 117.478397,42.235963 116.371631,41.8207165 C116.105161,41.7207399 116.163108,41.2914932 116.54547,40.5329765 Z" id="path-6"></path>
        <filter x="-1.3%" y="-2.8%" width="102.6%" height="111.4%" filterUnits="objectBoundingBox" id="filter-7">
            <feOffset dx="0" dy="1" in="SourceAlpha" result="shadowOffsetOuter1"></feOffset>
            <feColorMatrix values="0 0 0 0 0.863681402   0 0 0 0 0.893974424   0 0 0 0 1  0 0 0 1 0" type="matrix" in="shadowOffsetOuter1"></feColorMatrix>
        </filter>
        <path d="M54.5845535,56.4222726 C54.2987955,57.9873931 52.8538064,59.1901749 54.7110891,59.2557885 L54.8784761,59.2586095 C56.2839339,59.2586095 56.7920833,59.7444282 56.4029243,60.7160656 L57.1860513,60.9536452 C57.5768166,61.1538282 57.9119541,61.2539197 58.1914638,61.2539197 C59.2244399,61.2539197 59.7211859,61.7601061 59.7211859,62.4523085 C59.7211859,63.1445108 61.2969891,62.9604897 61.2969891,62.9604897 L61.3637382,62.8938198 C61.5784754,62.6984847 62.3563844,62.1168015 64.3348063,61.7276587 C66.74332,61.2539197 68.166634,62.9611811 69.2305012,62.4523085 C70.2352647,61.9717066 71.3804699,62.2473293 72.0372632,62.8506979 L72.1479699,62.9604897 C72.5694926,63.4125681 73.5086359,63.7367676 74.9653997,63.9330883 C75.1551083,64.6893496 74.5647069,65.0846679 73.1941956,65.1190435 L72.2843095,65.1261843 C70.6599922,65.1519812 70.3926358,65.2979304 69.7110262,65.890083 C68.940511,66.5594729 68.1459658,67.8541853 65.9166877,68.3946356 C63.6874096,68.9350858 61.1647999,68.9032386 60.3832834,68.3946356 C59.6017668,67.8860325 58.4808395,67.413125 57.5012733,67.413125 C56.5217071,67.413125 55.6705691,67.757424 54.0898029,68.3946356 C52.5090367,69.0318472 49.6316041,68.7362472 46.6010983,68.7362472 C43.9877571,68.7362472 44.3793814,67.2770468 41.503148,67.2770468 C40.3366053,67.2770468 39.121025,69 37.9636611,69 C36.5616349,69 35.3090652,68.9541296 34.205952,68.8623888 C40.2591247,63.2153445 46.9654344,58.2612752 54.1987121,54.1234615 C54.6380831,54.6629754 54.7659545,55.4287241 54.5845535,56.4222726 Z" id="path-8"></path>
        <filter x="-1.2%" y="-3.4%" width="102.5%" height="113.4%" filterUnits="objectBoundingBox" id="filter-9">
            <feOffset dx="0" dy="1" in="SourceAlpha" result="shadowOffsetOuter1"></feOffset>
            <feColorMatrix values="0 0 0 0 0.863681402   0 0 0 0 0.893974424   0 0 0 0 1  0 0 0 1 0" type="matrix" in="shadowOffsetOuter1"></feColorMatrix>
        </filter>
        <path d="M17.3138054,38.1605077 C18.7058307,37.5728027 19.9677603,38.3506096 20.3301927,38.971313 C20.6926252,39.5920163 21.0192583,40.0844957 21.1784486,41.5819761 C21.337639,43.0794565 20.7917248,43.8757896 19.4173944,44.3273869 C18.7812497,44.5364205 17.8120284,44.5277143 17.1077595,44.0682728 C16.2905219,43.5351343 15.6512161,42.1545883 15.4877038,41.2919983 C15.1832819,39.686056 15.92178,38.7482126 17.3138054,38.1605077 Z" id="path-10"></path>
        <linearGradient x1="50%" y1="0%" x2="50%" y2="100%" id="linearGradient-12">
            <stop stop-color="#D0DAFF" offset="0%"></stop>
            <stop stop-color="#FFFFFF" offset="100%"></stop>
        </linearGradient>
    </defs>
    <g id="引擎组件" stroke="none" stroke-width="1" fill="none" fill-rule="evenodd">
        <g id="访问地址有误或不存在配图">
            <mask id="mask-2" fill="white">
                <use xlink:href="#path-1"></use>
            </mask>
            <use id="蒙版" fill="#D0DAFF" xlink:href="#path-1"></use>
            <g id="编组-7" mask="url(#mask-2)">
                <g transform="translate(-27.000000, 23.000000)">
                    <line x1="31.5639203" y1="26.7375107" x2="53.1278405" y2="40.2994441" id="路径-24备份-5" stroke="url(#linearGradient-3)" stroke-width="0.2" fill="none" opacity="0.486351376"></line>
                    <line x1="30" y1="22" x2="51.5639203" y2="35.5619334" id="路径-24备份-6" stroke="url(#linearGradient-3)" stroke-width="0.2" fill="none" opacity="0.486351376"></line>
                    <line x1="76" y1="1" x2="97.5639203" y2="14.5619334" id="路径-24" stroke="url(#linearGradient-3)" stroke-width="0.2" fill="none"></line>
                    <line x1="93.5639203" y1="8.73751071" x2="115.127841" y2="22.2994441" id="路径-24备份" stroke="url(#linearGradient-3)" stroke-width="0.2" fill="none"></line>
                    <line x1="46" y1="1.81188398e-13" x2="67.5639203" y2="13.5619334" id="路径-24备份-2" stroke="url(#linearGradient-4)" stroke-width="0.2" fill="none"></line>
                    <line x1="127.739715" y1="31.6880666" x2="138.803635" y2="38" id="路径-24备份-3" stroke="url(#linearGradient-5)" stroke-width="0.2" fill="none"></line>
                    <line x1="131" y1="38" x2="142.06392" y2="44.3119334" id="路径-24备份-4" stroke="url(#linearGradient-5)" stroke-width="0.2" fill="none"></line>
                    <circle id="椭圆形" stroke="none" fill="#EDF1FF" fill-rule="evenodd" cx="107.5" cy="147.5" r="107.5"></circle>
                    <g id="形状结合" stroke="none" fill="none">
                        <use fill="black" fill-opacity="1" filter="url(#filter-7)" xlink:href="#path-6"></use>
                        <use fill="#E3E9FF" fill-rule="evenodd" xlink:href="#path-6"></use>
                    </g>
                    <g id="路径" stroke="none" fill="none">
                        <use fill="black" fill-opacity="1" filter="url(#filter-9)" xlink:href="#path-8"></use>
                        <use fill="#E3E9FF" fill-rule="evenodd" xlink:href="#path-8"></use>
                    </g>
                    <ellipse id="椭圆形" stroke="none" fill="#E3E9FF" fill-rule="evenodd" cx="69" cy="80" rx="11" ry="8"></ellipse>
                    <ellipse id="椭圆形备份-25" stroke="none" fill="#E3E9FF" fill-rule="evenodd" cx="111.75" cy="65" rx="6" ry="5"></ellipse>
                    <ellipse id="椭圆形" stroke="none" fill="#DAE2FF" fill-rule="evenodd" cx="69" cy="78.5" rx="6" ry="4.5"></ellipse>
                    <ellipse id="椭圆形备份-26" stroke="none" fill="#DAE2FF" fill-rule="evenodd" cx="111.75" cy="64" rx="4" ry="3"></ellipse>
                    <ellipse id="椭圆形" stroke="none" fill="#E3E9FF" fill-rule="evenodd" cx="71.5" cy="50.5" rx="2.5" ry="1.5"></ellipse>
                    <ellipse id="椭圆形" stroke="none" fill="#DCE4FF" fill-rule="evenodd" cx="71.5" cy="50.5" rx="2" ry="1"></ellipse>
                </g>
            </g>
            <g id="编组-3" mask="url(#mask-2)">
                <g transform="translate(5.000000, 0.000000)">
                    <circle id="椭圆形" fill="#D9E2FF" cx="25" cy="10" r="10"></circle>
                    <path d="M28.6907192,15.1411891 C27.9136796,15.7694201 27.6435692,16.3606408 26.858915,16.6628032 C26.0742608,16.9649656 25.0942842,18.2273894 24.16637,18.5025324 C23.4207881,18.7236107 21.556357,18.9203456 20.6136528,18.9891252 C20.0974267,18.7368512 19.6055105,18.4409116 19.1433293,18.1064153 C20.098384,18.144995 20.8617186,18.1035626 21.4339223,17.9815983 C22.3981385,17.7760773 24.1513428,18.0540843 25,17.1502533 C25.8486572,16.2464223 26.9447842,15.847009 27.8096729,15.2998554 C28.2851527,14.9990531 28.7829489,14.6465356 29.1669541,14.3086635 C29.481447,14.0319527 29.7135585,13.7431353 29.8455356,13.6850367 C30.1386607,13.5559979 29.4677588,14.5129581 28.6907192,15.1411891 Z" id="形状结合" fill="#D1DCFF"></path>
                    <circle id="椭圆形备份" fill="#EDF1FF" cx="93" cy="17" r="1"></circle>
                    <circle id="椭圆形备份-11" fill="#EDF1FF" cx="41.5" cy="14.5" r="1"></circle>
                    <circle id="椭圆形备份-7" fill="#EDF1FF" cx="57.5" cy="3.5" r="1"></circle>
                    <circle id="椭圆形备份-10" fill="#EDF1FF" cx="0.5" cy="52.5" r="1"></circle>
                    <circle id="椭圆形备份-8" fill="#EDF1FF" cx="24.25" cy="12.25" r="1"></circle>
                    <circle id="椭圆形备份-12" fill="#EDF1FF" cx="34.25" cy="12.25" r="1"></circle>
                    <circle id="椭圆形备份-9" fill="#EDF1FF" cx="12.25" cy="22.25" r="1"></circle>
                    <circle id="椭圆形备份-13" fill="#EDF1FF" cx="9.25" cy="44.25" r="1"></circle>
                    <circle id="椭圆形备份-14" fill="#EDF1FF" cx="10.25" cy="59.25" r="1"></circle>
                    <circle id="椭圆形备份-17" fill="#EDF1FF" cx="43.25" cy="62.25" r="1"></circle>
                    <circle id="椭圆形备份-6" fill="#EDF1FF" cx="91.5" cy="38.5" r="1"></circle>
                    <circle id="椭圆形备份-18" fill="#F0F4FF" cx="108.5" cy="76.5" r="1"></circle>
                    <circle id="椭圆形备份-2" fill="#EDF1FF" cx="112.25" cy="37.25" r="1"></circle>
                    <circle id="椭圆形备份-3" fill="#EDF1FF" cx="107.25" cy="34.25" r="1"></circle>
                    <circle id="椭圆形备份-4" fill="#EDF1FF" cx="82.25" cy="27.25" r="1"></circle>
                    <circle id="椭圆形备份-15" fill="#EDF1FF" cx="114.25" cy="53.25" r="1"></circle>
                    <circle id="椭圆形备份-16" fill="#EDF1FF" cx="110.25" cy="61.25" r="1"></circle>
                    <circle id="椭圆形备份-19" fill="#DCE4FF" cx="95.25" cy="86.25" r="1"></circle>
                    <circle id="椭圆形备份-5" fill="#EDF1FF" cx="62.25" cy="9.25" r="1"></circle>
                    <circle id="椭圆形备份-20" fill="#EDF1FF" cx="61.25" cy="31.25" r="1"></circle>
                    <circle id="椭圆形备份-21" fill="#EDF1FF" cx="44.25" cy="26.25" r="1"></circle>
                    <circle id="椭圆形备份-21" fill="#EDF1FF" cx="39.25" cy="49.25" r="1"></circle>
                    <path d="M28.6104572,12.7365915 C22.2954689,16.5870721 17.2417452,18.0085052 16.4982223,17.7057278 C16.0025403,17.5038762 15.8767243,17.1422305 16.1207743,16.6207908 L16.2642359,16.4563128 C15.8987085,17.0341092 16.0066099,17.3929935 16.5879401,17.5329659 C17.4599354,17.7429244 22.4952111,15.6537574 27.4963473,12.5993839 C31.7208186,10.0193476 33.0024895,8.53037092 34.2596339,7.04566542 C35.0523961,6.10940194 35.6084203,5.01502191 35.653802,4.66390425 C35.7122139,4.21197231 35.3869367,4.00854078 34.6779704,4.05360965 C35.2994784,3.91351297 35.6987921,4.04799949 35.8759114,4.45706922 C36.1415903,5.07067381 34.9254454,8.88611081 28.6104572,12.7365915 Z" id="路径-14" fill="#E4EAFF"></path>
                    <path d="M33.7984619,5.25352478 C33.3582022,5.97151456 33.040062,6.42661166 32.8440414,6.6188161 C32.5500106,6.90712275 32.3420418,6.99694582 32.0131294,7.4046245 C31.684217,7.81230318 31.4068889,7.84594431 31.0827993,8.13755513 C30.7587098,8.42916596 30.2610618,8.36482536 29.9136438,8.79556177 C29.5662258,9.22629818 29.0076743,9.54370362 28.6463758,9.92953792 C28.2850773,10.3153722 27.3670088,10.770725 26.9409099,11.136377 C26.5148109,11.502029 25.0568578,12.2877197 25.15138,12.2877197 C25.2459021,12.2877197 27.7626886,11.176096 28.0980604,10.971153 C28.4334322,10.76621 28.9976879,10.4151999 29.3211885,10.0622563 C29.6446891,9.70931261 30.1014647,9.3644713 30.2803022,9.25353546 C30.4591397,9.14259962 31.4600625,8.80027857 31.6828843,8.53009077 C31.9057062,8.25990297 32.3440759,7.82315193 32.6550688,7.71355181 C32.9660617,7.6039517 33.5786998,6.89020507 33.7606977,6.67864789 C33.8820296,6.53760978 34.0205535,6.31488808 34.1762695,6.01048279 C34.0962931,5.83612408 34.0296834,5.69396303 33.9764404,5.58399963 C33.9231975,5.47403623 33.8638713,5.36387795 33.7984619,5.25352478 Z" id="路径-15" fill="#D1DCFF"></path>
                    <path d="M17.1584473,16.2109985 C17.7027511,16.0499371 18.1191166,15.9325678 18.4075437,15.8588906 C18.8419389,15.7479266 19.5116166,15.441373 19.8599561,15.3734605 C20.2082956,15.305548 21.5208966,14.7770359 21.8454383,14.6891833 C22.1699799,14.6013306 22.6745235,14.3653621 22.866142,14.2140201 C22.9998289,14.1084331 23.2320119,13.9055419 23.562691,13.6053466 C23.3392415,13.9075124 23.1070585,14.1656655 22.866142,14.3798059 C22.5047673,14.7010164 22.2141202,14.7010164 21.8454383,14.9268424 C21.4767563,15.1526684 20.7824803,15.3304464 20.5048412,15.4505777 C20.2272022,15.570709 19.5215854,15.9152618 19.1433293,16.2109985 C18.8911585,16.4081564 18.4343245,16.6443675 17.7728271,16.919632 C17.6552663,16.7938217 17.543511,16.6742233 17.437561,16.5608368 C17.3316111,16.4474502 17.2385732,16.3308375 17.1584473,16.2109985 Z" id="路径-20" fill="#D1DCFF"></path>
                    <circle id="椭圆形备份-22" fill="#E3E9FF" cx="45" cy="91" r="1"></circle>
                    <circle id="椭圆形备份-23" fill="#E3E9FF" cx="87.5" cy="82.5" r="1"></circle>
                    <circle id="椭圆形备份-24" fill="#E3E9FF" cx="50.3" cy="79.3" r="1"></circle>
                </g>
            </g>
            <g id="编组-6" mask="url(#mask-2)">
                <g transform="translate(54.000000, 62.000000)">
                    <g id="编组-5" stroke-width="1" fill="none" transform="translate(0.750000, 0.000000)">
                        <path d="M14.0160971,44.4296669 C15.1566472,42.5271521 11.2048956,34.3966267 11.8121252,32.3740093 C12.216945,31.0255976 12.9516023,30.113553 14.0160971,29.6378754 C15.4292354,32.2514657 16.2889362,34.5489995 16.5951997,36.5304771 C17.0545949,39.5026933 15.5540317,42.1010132 16.1247556,43.1016952 C16.6954795,44.1023773 17.1194998,45.4387323 19.5568235,45.4387323 C21.9941472,45.4387323 23.1022837,43.6436549 23.483871,41.5769231 C23.8654583,39.5101912 23.8559477,36.2722847 23.8559477,34.5030539 C23.8559477,32.7338231 22.6435884,28.0796821 22.6435884,25.4479383 C22.6435884,23.9595869 24.7784432,23.8535092 24.3657378,21.2307692 C24.1838514,20.0748818 21.193133,19.1397487 19.5568235,19.9816255 C17.2760813,21.1550611 7.69180251,19.0738388 6.5483871,20.7884615 C5.40497168,22.5030843 6.5483871,23.6425665 5.64516129,26.0531565 C4.74193548,28.4637465 4.74193548,31.2012049 5.03647897,33.6780181 C5.33102245,36.1548313 6.77015263,43.5649204 8.02334282,44.8055317 C9.276533,46.0461429 12.8755471,46.3321817 14.0160971,44.4296669 Z" id="路径-35" fill="#E3E9FF"></path>
                        <rect id="矩形" fill="#FBFCFF" x="6.5483871" y="7.07692308" width="12.6451613" height="3.53846154" rx="1.76923077"></rect>
                        <path d="M22.3857414,0.53674785 C23.3301619,-0.0572362149 24.5874154,0.211073859 25.1938956,1.13603517 L25.5179448,1.63647443 C26.5967558,3.32648154 27.0967742,4.38605559 27.0967742,5.30769231 C27.0967742,8.06119845 26.0840827,11.5221745 23.4537249,12.202458 C22.0957948,12.5536564 20.6120571,13.3333732 17.3219006,13.2651286 C16.1997671,13.2418532 15.5568801,12.0109002 15.5806452,10.9118876 C15.6044102,9.81287493 16.1997671,8.60217085 17.3219006,8.62544622 L18.0637824,8.6368491 C20.281266,8.66440381 21.1402773,8.5881458 22.0523118,8.43015826 L22.2265806,8.39676923 L22.2560388,8.35390839 C22.3783317,8.16375499 22.5045466,7.87687979 22.6191395,7.52187757 L22.6753954,7.33883159 C22.8379312,6.78334885 22.9578494,6.10639589 23.0073104,5.66055368 L23.0259355,5.45630769 L22.9512524,5.28463083 L22.851648,5.08104883 C22.6255048,4.63808166 22.2647406,4.03571949 21.7738463,3.28704175 C21.1673661,2.36208044 21.4413209,1.13073191 22.3857414,0.53674785 Z" id="路径-30" fill="#FFFFFF" fill-rule="nonzero"></path>
                        <path d="M7.74193548,8.84615385 L17.0967742,8.84615385 C18.7536284,8.84615385 20.0967742,10.1892996 20.0967742,11.8461538 L20.0967742,24.8658429 L20.0967742,24.8658429 L20.0434194,25.543252 C19.9204965,27.1039181 18.6181812,28.3076923 17.0526817,28.3076923 L7.74193548,28.3076923 C6.08508123,28.3076923 4.74193548,26.9645466 4.74193548,25.3076923 L4.74193548,11.8461538 C4.74193548,10.1892996 6.08508123,8.84615385 7.74193548,8.84615385 Z" id="矩形" fill="#FFFFFF"></path>
                        <path d="M6.99564894,24.3269231 C8.01017822,23.2494619 10.504251,22.7093046 11.6043796,23.7029301 C12.7045083,24.6965557 13.885497,27.2302311 12.8709677,28.3076923 C11.1507805,30.1345838 9.63183594,31.0036501 9.63183594,31.9519764 C9.63183594,32.9067708 10.1109524,36.0257411 11.7254,40.2429671 C12.2349485,41.573999 10.7595291,42.5648492 9.33848531,43.024422 C7.91744154,43.4839948 7.01762832,43.6014256 6.5483871,42.2096615 L5.95105102,39.7944265 C5.48285239,38.3786495 5.20507145,37.2693065 4.86127043,36.1001549 C4.26847996,34.084274 3.32903308,32.4209813 3.32903308,31.3299488 C3.32903308,29.533531 4.15784317,28.9813431 5.25,25.9944822 C5.55588973,25.1579264 6.52410874,24.8277132 6.99564894,24.3269231 Z" id="路径-31" fill="#FFFFFF" fill-rule="nonzero"></path>
                        <path d="M14.7934905,22.6123003 C16.2245724,22.1836458 18.3785604,22.9253277 18.8162328,24.3269231 C20.1229716,27.9721499 20.8203459,30.0623971 20.9083555,30.5976646 C20.9862967,31.0716968 21.0797013,32.5782342 21.2117158,34.5 C21.3141887,35.9917221 21.3141887,37.5083493 21.2117158,40.4407896 C21.1363599,42.5972312 19.7785049,42.9351336 18.2903226,43.089574 C16.8021402,43.2440144 15.7171976,41.8983089 15.5595081,40.4407896 L15.5595081,34.5 C15.3658017,32.8340445 15.3547742,32.7018032 15.2975164,32.4070861 C14.6626495,30.7800608 14.1792755,29.708468 13.8473943,29.1923077 C12.709813,27.4230769 12.3822439,26.9812409 11.9677419,25.6538462 C11.5300695,24.2522508 13.3624085,23.0409548 14.7934905,22.6123003 Z" id="路径-32" fill="#FFFFFF" fill-rule="nonzero"></path>
                        <path d="M23.7891647,0.220910501 C24.4476406,0.313986679 24.9886603,0.817395638 25.1576558,1.06405992 L25.4176023,1.45148929 L25.6611944,1.82927408 C25.922712,2.24306717 26.2276089,2.75341102 26.4823116,3.25703841 C26.8111934,3.90734108 27.0240002,4.56786449 27.0967742,4.89890033 C27.1912569,5.32868527 27.1428198,6.17728065 26.9208591,7.39460226 C26.7573132,8.20946637 26.5846769,8.82922583 26.4029501,9.25388063 C26.2574587,9.59386172 26.0502209,9.99043197 25.8661952,10.282763 C25.5856742,10.7283801 25.3335665,11.0123063 25.2356351,11.1175162 C24.6901454,11.7035477 24.1092223,11.9904557 23.7908501,12.1026027 L22.515457,12.4952352 L21.5592709,12.7766584 C21.2204113,12.8740223 20.8406401,12.9640599 20.4199573,13.0467713 L20.0967742,13.1074312 L20.0967742,24.6791589 C20.0967742,25.124848 20.0602963,25.4493672 19.9980396,26.0064784 C19.9837198,26.134621 19.9384937,26.3200132 19.8623613,26.562655 L19.7561674,26.881305 L20.2556456,28.3688928 L20.4201379,28.8435783 C20.6491796,29.5222064 21.0822257,30.8367036 21.0822257,31.9744134 C21.0822257,33.1121231 21.2885705,35.2360694 21.2885705,35.6664599 L21.3009563,36.9526411 C21.3019,37.2031952 21.3016169,37.4841707 21.2989746,37.7941228 L21.2885705,38.5398037 C21.2835672,38.7985553 21.2712026,39.1640025 21.2514767,39.6361453 L21.1979397,40.8111896 L20.5529323,38.5398037 C20.6493913,37.4722093 20.6976208,36.6365025 20.6976208,36.0326835 C20.6976208,35.1269549 20.6295323,34.2336389 20.5529323,33.8372703 C20.435908,33.2317258 20.4201379,32.7964525 19.4087736,32.5332102 C20.5529323,31.8963135 20.2009805,29.8682323 19.8623613,28.8435783 C19.523742,27.8189244 18.7916351,26.8763894 17.8955108,26.7547713 C16.9518886,26.626707 14.9439653,26.562655 14.1941901,27.644688 C13.2125519,29.0613324 14.1941901,29.2344842 15.1054943,31.9519764 L13.257395,28.3076923 C13.0507342,28.3421228 12.9269649,28.3489333 12.886087,28.3281236 L12.1769288,29.0703901 C11.726601,29.5245045 11.3920016,29.8574875 11.1731304,30.0693392 C11.0351733,30.2028718 10.7955935,30.4483576 10.5389692,30.7035123 C10.1848855,31.0555681 9.80841496,31.4528683 9.71248444,31.8421231 C9.54702768,32.5134928 9.75945446,32.9936805 9.84450687,33.7370575 C9.90120848,34.2326422 10.0239205,34.6959413 10.2126429,35.1269549 L10.4751827,36.2232222 C10.638451,36.8909105 10.7782026,37.4322855 10.8944376,37.8473472 L11.3741917,39.241606 C11.4252978,39.3883859 11.4756706,39.5324532 11.5253102,39.6738079 L11.8008434,40.504796 C11.8242253,40.5784466 11.8407587,40.632785 11.8504436,40.6678111 L11.929976,40.9631795 L10.3027619,39.6738079 C10.2950009,39.5015269 10.2442403,39.156716 10.1504802,38.6393751 C9.8702774,37.3866051 9.59961244,36.3313502 9.33848531,35.4736104 C8.94679461,34.1870007 8.27670973,33.6789001 7.62166005,33.6391975 C6.5130162,34.0130559 5.46394734,34.1229091 4.47445347,33.9687572 C6.51073721,33.4365092 7.64059668,32.9579935 7.86403188,32.5332102 C8.19918468,31.8960351 8.35483871,31.1349127 8.35483871,30.4741313 C8.35483871,29.8133499 8.47018132,28.4897612 7.02272178,28.4897612 C5.57526224,28.4897612 5.29359298,27.9842363 4.47445347,27.8494568 L4.91547176,26.7547713 L5.35001229,25.6477842 C5.42395013,25.4554279 4.68356195,23.0834541 4.74193548,22.9259471 C4.85043301,22.6331925 4.62928978,21.1143991 4.74193548,19.1738318 C4.82149212,17.8032957 4.92343836,16.2493204 5.04777421,14.511906 C5.15341486,17.8168674 5.35254389,19.9209549 5.64516129,20.8241685 C6.08408739,22.1789889 7.54513787,23.3118298 8.5145413,23.8535092 C9.48394473,24.3951885 11.8475047,23.9977962 12.8705592,24 C14.4497045,24.0034017 17.2601704,22.1986758 18.2490546,21.2307692 C19.2379388,20.2628627 19.1616853,18.5026173 19.1935484,17.6 C19.2147904,16.9982551 19.2147904,15.8495372 19.1935484,14.1538462 C19.1935484,13.561831 19.0666021,12.9234261 18.8127097,12.2386313 L18.6961264,11.9423077 L18.2903226,10.8656546 C19.2491326,11.4868042 20.1797669,11.8456885 21.0822257,11.9423077 C21.9773664,12.0381433 22.8008788,11.7959488 24.1837839,11.0305748 C24.7262349,10.7303532 25.2041939,9.84317761 25.7352952,8.84615385 C25.9954334,8.3578028 26.2716552,7.22004442 26.4029501,6.4268384 C26.5342451,5.63363238 26.4029501,4.77425405 26.1323235,4.14457517 C25.8252591,3.43011478 24.7980079,1.48953799 24.1837839,0.947626971 C23.7743012,0.586352955 23.2188099,0.324966154 22.51731,0.456502134 L22.7205494,0.370405178 C22.8119674,0.334342484 22.8880829,0.308758463 22.9488958,0.293653117 C23.2869658,0.210063075 23.6169351,0.1965657 23.7891647,0.220910501 Z" id="路径" fill="#F8F9FF"></path>
                        <rect id="矩形" fill="#EDF1FF" x="8.35483871" y="12.3846154" width="8.12903226" height="8.84615385" rx="2"></rect>
                        <path d="M16.483871,14.3846154 L16.483871,19.2307692 C16.483871,20.3353387 15.5884405,21.2307692 14.483871,21.2307692 L10.3548387,21.2307692 C9.57940861,21.2307692 8.90704897,20.7894721 8.57520175,20.1443198 C8.8401295,20.2736991 9.13740985,20.3461538 9.4516129,20.3461538 L9.4516129,20.3461538 L13.5806452,20.3461538 C14.6852147,20.3461538 15.5806452,19.4507233 15.5806452,18.3461538 L15.5806452,18.3461538 L15.5806452,13.5 C15.5806452,13.1714408 15.5014182,12.861386 15.3610264,12.5878979 C16.0257552,12.9114772 16.483871,13.5945469 16.483871,14.3846154 Z" id="形状结合" fill="#E6ECFF"></path>
                        <path d="M10.1752735,25.6538462 C11.0447453,26.2909668 11.6284275,26.6717463 11.54846,28.2290554 C11.508417,29.008864 11.3850497,29.2421078 10.7411502,29.9892248 C10.3611376,30.4301536 10.2269174,30.5818211 9.91079295,30.9331775 C9.76670898,31.0933196 9.60275564,31.4261168 9.57062949,31.8461943 C9.55850302,32.0047585 9.58750136,32.1883207 9.6576245,32.3968809 C9.64511951,32.3451545 9.64511951,32.234064 9.6576245,32.0636092 C9.67638198,31.8079271 9.92926813,31.3437119 10.0367963,31.2276142 C10.1443245,31.1115165 10.7204028,30.517373 11.2857313,29.9485618 C11.6626169,29.5693544 12.1989553,29.0383672 12.8947463,28.3556002 C13.1176921,28.3545238 13.2497052,28.3385545 13.2907854,28.3076923 C13.8690441,27.8732656 13.904922,27.6613397 14.0665742,27.3916228 C14.269498,27.0530442 14.6704439,26.2282181 15.2694117,24.9171446 C14.8023371,25.9987424 14.4372416,26.6911735 14.1741251,26.9944381 C13.610802,27.6437167 13.2360681,27.8732656 12.8947463,27.8732656 C12.5163378,27.8732656 11.8868305,26.1849368 10.6494486,25.4899448 C10.2153349,25.246119 9.45046498,24.9436846 8.35483871,24.5826414 C8.98881398,24.8720308 9.59562557,25.229099 10.1752735,25.6538462 Z" id="路径-39" fill="#F2F3FF"></path>
                        <path d="M4.47445347,27.8494568 C4.76490096,27.742844 5.03886217,27.7193271 5.29633711,27.7789062 C5.97546434,27.9360547 6.29833192,28.1465235 6.86798513,28.1930014 C7.90415293,28.2775422 8.86585392,27.7910186 9.10692332,26.7866132 C9.26763625,26.1170097 9.08134592,25.3823524 8.54805232,24.5826414 C7.83957492,25.3178145 7.20464284,25.8072457 6.64325607,26.0509351 C6.27614936,26.2102905 5.0342609,25.7916792 4.86127043,26.5911757 C4.74594346,27.1241733 4.61700447,27.5436004 4.47445347,27.8494568 Z" id="路径-42" fill="#F2F3FF"></path>
                        <path d="M8.13376859,38.1235897 C9.82112728,37.6212836 11.2671828,38.7216488 11.7514094,40.3286893 C12.2356359,41.9357299 12.5474379,44.0267302 11.0609957,44.6463852 C9.5745535,45.2660402 8.42074915,45.0135228 7.56713604,44.0204054 C6.71352294,43.027288 6.4577518,42.1118748 6.30421369,41.1059788 C6.15067558,40.1000828 6.4464099,38.6258958 8.13376859,38.1235897 Z" id="路径-33" fill="#F6F8FF"></path>
                        <path d="M4.74193548,21.9983851 C7.60794444,22.6661284 10.2320769,23 12.6143329,23 C14.9965888,23 17.4907359,22.7051282 20.0967742,22.1153846 L20.0967742,23 C17.3459922,23.5690061 14.8518451,23.8535092 12.6143329,23.8535092 C10.3768206,23.8535092 7.75268817,23.5159529 4.74193548,22.8408403 L4.74193548,21.9983851 Z" id="路径-36" fill="#ADBFFF" opacity="0.361328125"></path>
                        <path d="M15.5252892,40.6805493 C15.5252892,41.5264584 15.532388,44.0928995 17.8145811,44.3916023 C20.0967742,44.6903052 20.8248669,43.1692187 21.0567187,41.9907403 C21.2885705,40.8122619 21.3825139,39.3966636 20.6744675,38.1978667 C19.966421,36.9990698 17.769046,36.999612 16.801378,37.6803886 C15.8337101,38.3611653 15.5252892,39.8346401 15.5252892,40.6805493 Z" id="路径-34" fill="#F6F8FF"></path>
                        <path d="M7.31990249,8.62918453 C8.43992796,8.55794167 9.40685676,9.38944 9.47959841,10.486388 C9.55234006,11.583336 8.70334878,12.5303418 7.58332332,12.6015847 C6.82091735,12.65008 5.32281488,13.0266615 5.20175129,13.5055822 C5.09560114,14.1765278 5.02132562,15.0716835 4.97892473,16.1910491 L4.74371884,18.5170108 C4.54387641,19.5919409 4.35792161,20.6708223 4.23129551,21.4532137 L4.15303226,21.9411154 L4.34311299,22.0625478 L4.65885924,22.253223 C5.39166989,22.6832195 6.44035492,23.2223607 7.7925278,23.8610845 C8.80347264,24.3386229 9.22773977,25.528391 8.74015496,26.5185059 C8.25257016,27.5086209 7.03777187,27.9241462 6.02682703,27.4466078 L5.15191023,27.0300151 C1.25938318,25.158577 1.98063788e-13,24.2631709 1.98063788e-13,22.6123003 C1.98063788e-13,20.8870471 1.81930092,11.5668526 2.82056942,10.3797933 C3.75792224,9.26850955 5.26874098,8.75965531 7.31990249,8.62918453 Z" id="路径-29" fill="#FFFFFF" fill-rule="nonzero"></path>
                        <path d="M4.04152984,33.8246765 C5.09826537,33.8469375 6.09113813,33.7580925 7.02014812,33.5581416 C7.94915812,33.3581907 8.83898841,33.0574152 9.68963899,32.655815 L9.75945446,33.1204918 C8.90741441,33.5136041 8.02588928,33.8161428 7.11487906,34.0281077 C6.20386885,34.2400726 5.25427882,34.368358 4.26610898,34.4129639 L4.04152984,33.8246765 Z" id="路径-37" fill="#E3E9FF" opacity="0.733630952"></path>
                        <path d="M15.3671426,32.9750102 C16.2498972,33.2770304 17.1958221,33.373546 18.2049173,33.264557 C19.2140125,33.155568 20.1737983,32.8127159 21.0842748,32.2360007 L21.1309665,32.8711226 C20.5079245,33.2963937 19.6438945,33.5849068 18.5388764,33.7366618 C17.4338583,33.8884168 16.4079806,33.8592155 15.4612433,33.6490578 L15.3671426,32.9750102 Z" id="路径-37备份" fill="#E3E9FF" opacity="0.878720238"></path>
                        <path d="M4.86127043,17.4386437 L4.74193548,18.5769231 L4.2017898,21.9334748 L5.64516129,22.815453 C4.76464938,22.5021996 4.08594567,22.323502 3.60905017,22.2793602 C3.13215467,22.2352184 2.4120598,22.3058349 1.44876555,22.4912098 C1.85266764,22.3587817 2.22781031,22.0633455 2.57419355,21.6049011 C3.22351268,20.7455156 3.76511292,18.666779 3.83870968,18.1567964 C3.99202312,17.0944238 4.2017898,16.0322929 4.37025764,14.4369643 C4.48256954,13.3734118 4.48256954,12.6910931 4.37025764,12.3900081 C4.63653362,12.8876912 4.80020455,13.2362151 4.86127043,13.4355796 C4.94487488,13.7085268 5.02409255,13.9807179 5.09892344,14.252153 L4.86127043,17.4386437 Z" id="路径-41" fill="#F8F9FF"></path>
                        <path d="M1.24420954,15.354467 C1.55935758,15.5909845 2.102831,15.9110801 2.82092701,16.0030552 C3.42341417,16.080223 3.84533753,16.1199844 4.2981325,16.0945508 C4.59999582,16.0775951 4.82692656,16.0322127 4.97892473,15.9584035 L4.93438777,16.4651006 C4.35398859,16.5869094 4.01145693,16.6211753 3.29741667,16.5532409 C2.60083187,16.4869672 2.25782344,16.3639677 1.85409307,16.2202945 C1.5849395,16.1245123 1.34611613,15.9949354 1.13762297,15.8315638 L1.24420954,15.354467 Z" id="路径-44" fill="#D0DAFF" fill-rule="nonzero" opacity="0.65952846"></path>
                        <path d="M1.44876555,25.0624348 C3.40557903,25.9204675 4.7596302,26.4351041 5.51091905,26.6063446 C6.63785234,26.8632053 7.5636056,26.8429531 8.09493652,26.3925256 C8.44915714,26.0922406 8.66607357,25.5588427 8.7456858,24.7923318 C8.94158728,25.234771 8.9998046,25.6642787 8.92033775,26.0808548 C8.80113748,26.7057191 8.28391974,27.4497146 7.28903682,27.644688 C6.29415391,27.8396613 4.90247573,26.8838348 4.15377689,26.5480683 C3.65464434,26.324224 2.75297389,25.8290128 1.44876555,25.0624348 Z" id="路径-45" fill="#F8F9FF"></path>
                        <path d="M8.35483871,38.9230769 C9.31580612,38.6939003 10.5043499,39.0370154 11.1278796,39.6828524 C11.7514094,40.3286893 11.9834456,40.6854937 12.1522145,42.1809917 C12.3209834,43.6764898 11.7572341,44.5403336 10.3829349,44.9827201 C9.74680467,45.1874903 8.9352109,45.0670038 8.22668649,44.6042015 C7.40451088,44.0671633 6.71756117,42.9498329 6.5483871,42.0879499 C6.23342427,40.4833239 7.3938713,39.1522535 8.35483871,38.9230769 Z" id="路径-46" fill="#EAEFFF"></path>
                        <mask id="mask-11" fill="white">
                            <use xlink:href="#path-10"></use>
                        </mask>
                        <use id="路径-46备份" fill="#EAEFFF" transform="translate(18.312513, 41.205393) rotate(18.000000) translate(-18.312513, -41.205393) " xlink:href="#path-10"></use>
                    </g>
                    <ellipse id="椭圆形" fill="#FFFFFF" cx="13.6209677" cy="5.30769231" rx="5.41935484" ry="5.30769231"></ellipse>
                    <path d="M16.9743709,1.13788918 C18.2326125,2.10984714 19.0403226,3.61638785 19.0403226,5.30769231 C19.0403226,6.5323883 18.6168079,7.66020526 17.9053925,8.55832338 L17.9072831,8.55567687 L19.2740373,8.63464148 C18.4682607,9.13990607 17.8433806,9.51498794 17.3993971,9.75988708 C16.7334218,10.1272358 15.8842215,10.3225207 15.0009977,10.4689527 C14.8327646,10.4968445 14.6750352,10.5207517 14.5278094,10.5406744 L14.5000152,10.5459159 C14.2139062,10.5916213 13.9202704,10.6153846 13.6209677,10.6153846 C11.8930914,10.6153846 10.3540823,9.82340927 9.36173382,8.58987981 C10.2844211,9.30461733 11.450268,9.73076923 12.7177419,9.73076923 C15.710769,9.73076923 18.1370968,7.35443444 18.1370968,4.42307692 C18.1370968,3.25053392 17.7488843,2.16679455 17.0914757,1.28842278 Z" id="形状结合" fill="#F8F9FF"></path>
                    <ellipse id="椭圆形" fill="#E7ECFF" cx="13.6209677" cy="5.30769231" rx="3.61290323" ry="3.53846154"></ellipse>
                    <path d="M13.6209677,1.76923077 C15.4994162,1.76923077 17.0430371,3.17326009 17.2174635,4.96826421 C16.3925688,5.71240922 15.0885142,6.19230769 13.6209677,6.19230769 C12.1529358,6.19230769 10.848504,5.71209167 10.023655,4.96829008 C10.1988983,3.17326009 11.7425193,1.76923077 13.6209677,1.76923077 Z" id="形状结合" fill="#F0F3FF"></path>
                </g>
            </g>
            <path d="M42.968715,69.7888529 L41.6286327,66.1011363 C41.4416121,65.586482 41.7032914,65.0171286 42.2156532,64.823916 L44.3784637,64.0083162 C44.8952261,63.8134442 45.4721197,64.0743879 45.6669918,64.5911502 C45.6681509,64.594224 45.6692949,64.5973035 45.6704237,64.6003886 L47.0513001,68.3744461 L47.0513001,68.3744461 L42.968715,69.7888529 Z" id="路径-22" fill="#D8E1FF" mask="url(#mask-2)"></path>
            <polygon id="路径-23" fill="#D0DAFF" mask="url(#mask-2)" points="42.0513001 67.3040113 46.041626 65.6032867 46.1656494 65.9459534 42.1462303 67.6519746"></polygon>
            <path d="M54.0001954,31.0409448 C58.0600387,31.0814084 63.075,35.31 63.135,43.59 C63.175,51.97 57.3199091,55.7426538 54.0001019,55.7102101 C50.6802948,55.6773462 44.925,51.79 44.865,43.59 C45.005,35.47 49.9403522,31.0004813 54.0001954,31.0409448 Z M40.135,31.53 L40.135,45.67 L40.315,45.6898221 L42.315,47.67 L42.315,52.22 L40.135,52.22 L40.135,55.71 L35.205,55.71 L33.205,53.7104175 L35.205,52.22 L24.145,52.219 L22.145,50.219 L24.145,46.344 L35.325,31.53 L38.135,29.53 L40.135,31.53 Z M82.135,31.53 L82.135,45.6898221 L82.315,45.67 L84.315,47.67 L84.315,52.22 L82.135,52.22 L82.135,55.71 L77.205,55.71 L75.205,53.71 L77.205,52.22 L66.145,52.219 L64.145,50.219 L66.145,46.344 L77.325,31.53 L80.135,29.53 L82.135,31.53 Z M50.0530708,43.835 C50.0530708,49.1080666 52.2604026,53.020609 54.0001019,53.0059841 C55.7398013,52.9911944 57.7555778,49.2477922 57.7461652,43.62 C57.7367526,37.9922078 56.140333,33.5 54.015,33.5 C51.889667,33.5 50.0530708,38.5619334 50.0530708,43.835 Z M35.205,40 L29.562691,47.67 L35.205,47.67 L35.205,40 Z M77.205,40 L71.562691,47.67 L77.205,47.67 L77.205,40 Z" id="形状" fill-rule="nonzero" mask="url(#mask-2)"></path>
            <path d="M52.0001954,29.0409448 C56.0600387,29.0814084 61.075,33.31 61.135,41.59 C61.175,49.97 55.3199091,53.7426538 52.0001019,53.7102101 C48.6802948,53.6773462 42.925,49.79 42.865,41.59 C43.005,33.47 47.9403522,29.0004813 52.0001954,29.0409448 Z M38.135,29.53 L38.135,45.67 L40.315,45.67 L40.315,50.22 L38.135,50.22 L38.135,53.71 L33.205,53.71 L33.205,50.22 L22.145,50.219 L22.145,44.344 L33.325,29.53 L38.135,29.53 Z M80.135,29.53 L80.135,45.67 L82.315,45.67 L82.315,50.22 L80.135,50.22 L80.135,53.71 L75.205,53.71 L75.205,50.22 L64.145,50.219 L64.145,44.344 L75.325,29.53 L80.135,29.53 Z M48.0530708,41.835 C48.0530708,47.1080666 50.2604026,51.020609 52.0001019,51.0059841 C53.7398013,50.9911944 55.7555778,47.2477922 55.7461652,41.62 C55.7367526,35.9922078 54.140333,31.5 52.015,31.5 C49.889667,31.5 48.0530708,36.5619334 48.0530708,41.835 Z M33.205,38 L27.562691,45.67 L33.205,45.67 L33.205,38 Z M75.205,38 L69.562691,45.67 L75.205,45.67 L75.205,38 Z" id="形状" fill="#FFFFFF" fill-rule="nonzero" mask="url(#mask-2)"></path>
            <path d="M33.8196823,67.4221154 L37.3607963,65.7985755 C38.3701379,65.3358097 39.5635167,65.778897 40.0262825,66.7882386 C40.047674,66.8348957 40.0672709,66.8823549 40.0850302,66.9305118 C40.5061003,68.0723033 39.9599721,69.3439431 38.8420352,69.8247808 L35.6903866,71.1803417 C34.6210246,71.6402867 33.3785914,71.1851933 32.859324,70.1433459 C32.3645935,69.150729 32.7682103,67.9449957 33.7608273,67.4502653 C33.7802919,67.4405639 33.7999128,67.4311794 33.8196823,67.4221154 Z" id="矩形" fill="#D8E1FF" mask="url(#mask-2)"></path>
            <path d="M40.0262825,66.7882386 C40.047674,66.8348957 40.0672709,66.8823549 40.0850302,66.9305118 C40.5061003,68.0723033 39.9599721,69.3439431 38.8420352,69.8247808 L35.6903866,71.1803417 C34.6210246,71.6402867 33.3785914,71.1851933 32.859324,70.1433459 L32.8538598,70.1332059 C33.4109274,70.4071609 34.0789482,70.4433285 34.6903866,70.1803417 L34.6903866,70.1803417 L37.8420352,68.8247808 C38.9599721,68.3439431 39.5061003,67.0723033 39.0850302,65.9305118 C39.0672709,65.8823549 39.047674,65.8348957 39.0262825,65.7882386 C39.4560814,65.9890211 39.8163562,66.3303668 40.0262825,66.7882386 Z" id="形状结合" fill="#D3DDFF" mask="url(#mask-2)"></path>
            <path d="M33.8400969,70.5517701 C33.9081924,70.6462481 34.0276926,70.7285823 34.1985974,70.7987728 C34.3695023,70.8689632 34.5209293,70.9178564 34.6528786,70.9454524 L33.84819,72.3347455 L34.4549547,72.6037713 L34.1497741,74.996367 L33.9317127,75 L34.1120076,72.931216 L33,72.6280116 L33.8400969,70.5517701 Z M39.928822,68 C39.926302,68.0688803 39.88434,68.2000768 39.8029361,68.3935895 C39.7215322,68.5871022 39.6431501,68.7210015 39.5677896,68.7952875 L41.1566969,69.2888299 L40.9051627,69.8805585 L42.8379241,71.4317339 L43,71.2924431 L41.3899453,69.8967938 L41.9865694,68.9511789 L39.928822,68 Z" id="路径-38" fill="#CDD8FF" fill-rule="nonzero" mask="url(#mask-2)"></path>
            <line x1="26.5669037" y1="37.1300046" x2="36.1245161" y2="42.9051375" id="路径-40" stroke="url(#linearGradient-12)" stroke-width="0.2" opacity="0.261811756" mask="url(#mask-2)"></line>
            <line x1="62" y1="42" x2="71.5576124" y2="47.7751329" id="路径-40备份" stroke="url(#linearGradient-12)" stroke-width="0.2" opacity="0.261811756" mask="url(#mask-2)"></line>
        </g>
    </g>
</svg>