<?xml version="1.0" encoding="UTF-8"?>
<svg width="120px" height="120px" viewBox="0 0 120 120" version="1.1" xmlns="http://www.w3.org/2000/svg" xmlns:xlink="http://www.w3.org/1999/xlink">
    <!-- Generator: Sketch 60 (88103) - https://sketch.com -->
    <title>页面出错配图</title>
    <desc>Created with Sketch.</desc>
    <defs>
        <circle id="path-1" cx="60" cy="60" r="60"></circle>
        <linearGradient x1="50%" y1="45.6807498%" x2="50%" y2="105.617267%" id="linearGradient-3">
            <stop stop-color="#B0C2FF" offset="0%"></stop>
            <stop stop-color="#EDF1FF" offset="100%"></stop>
        </linearGradient>
        <linearGradient x1="100%" y1="72.3811506%" x2="22.5097915%" y2="41.9692034%" id="linearGradient-4">
            <stop stop-color="#EFF3FF" offset="0%"></stop>
            <stop stop-color="#D6DFFF" offset="30.8638867%"></stop>
            <stop stop-color="#D0DAFF" offset="100%"></stop>
        </linearGradient>
        <linearGradient x1="100%" y1="72.3811506%" x2="-2.87571457%" y2="30.2231197%" id="linearGradient-5">
            <stop stop-color="#EFF3FF" offset="0%"></stop>
            <stop stop-color="#D6DFFF" offset="46.6204058%"></stop>
            <stop stop-color="#D0DAFF" offset="100%"></stop>
        </linearGradient>
        <linearGradient x1="100%" y1="68.4162572%" x2="22.5097915%" y2="43.3918851%" id="linearGradient-6">
            <stop stop-color="#EFF3FF" offset="0%"></stop>
            <stop stop-color="#D6DFFF" offset="30.8638867%"></stop>
            <stop stop-color="#D0DAFF" offset="100%"></stop>
        </linearGradient>
    </defs>
    <g id="引擎组件" stroke="none" stroke-width="1" fill="none" fill-rule="evenodd">
        <g id="页面出错配图">
            <mask id="mask-2" fill="white">
                <use xlink:href="#path-1"></use>
            </mask>
            <use id="蒙版" fill="#D0DAFF" xlink:href="#path-1"></use>
            <ellipse id="椭圆形" fill="#EDF1FF" mask="url(#mask-2)" cx="63.5" cy="106" rx="69.5" ry="49"></ellipse>
            <ellipse id="椭圆形" fill="#E1E7FF" mask="url(#mask-2)" cx="88.5" cy="89.5" rx="8.5" ry="5.5"></ellipse>
            <ellipse id="椭圆形备份-24" fill="#E1E7FF" mask="url(#mask-2)" cx="40" cy="116" rx="11" ry="7"></ellipse>
            <ellipse id="椭圆形备份-22" fill="#E1E7FF" mask="url(#mask-2)" cx="26" cy="71.5" rx="4" ry="2.5"></ellipse>
            <ellipse id="椭圆形" fill="#D5DEFF" mask="url(#mask-2)" cx="88.5" cy="90.3333333" rx="6.5" ry="4.33333333"></ellipse>
            <ellipse id="椭圆形备份-25" fill="#D5DEFF" mask="url(#mask-2)" cx="40" cy="117.5" rx="8" ry="5.5"></ellipse>
            <ellipse id="椭圆形备份-23" fill="#D5DEFF" mask="url(#mask-2)" cx="26" cy="72" rx="3" ry="2"></ellipse>
            <path d="M40.2307094,63.2994441 C40.4265996,63.7534629 40.8496964,64.4405999 41.5,65.3608553 C43.77004,68.5732265 44.5500123,69 46.25,70.7273484 C50.8723503,70.6851582 83.4339678,70 89.2394714,70 C87.9027493,67.3119334 85.4419634,63.8209538 84.5,62.4739737 C83.7739796,61.4357858 83.1403933,60.4293601 82.5992409,59.4546967 L40.2307094,59.5798828 L40.2307094,63.2994441 Z" id="路径-3" fill="url(#linearGradient-3)" mask="url(#mask-2)"></path>
            <g id="编组-3" mask="url(#mask-2)">
                <g transform="translate(2.000000, -2.000000)">
                    <circle id="椭圆形" fill="#D9E2FF" cx="24" cy="14" r="14"></circle>
                    <path d="M30.6748433,21.1984232 C29.4884053,22.13926 29.075982,23.0246703 27.8779177,23.4771878 C26.6798533,23.9297054 25.1835571,25.8203074 23.7667533,26.2323608 C22.7178262,26.5374235 20.2185598,26.8115355 18.7061978,26.9333161 C17.8409167,26.5821893 17.0181105,26.1492527 16.247003,25.644503 C17.6360656,25.6924591 18.751322,25.628522 19.5946629,25.4522115 C21.066895,25.1444239 23.7438088,25.5607662 25.0395975,24.2071917 C26.3353861,22.8536171 28.0090288,22.255457 29.3296007,21.4360413 C30.0555962,20.9855606 30.815666,20.4576315 31.4019917,19.9516353 C31.8821813,19.5372341 32.2365852,19.104702 32.438097,19.0176936 C32.8856608,18.8244455 31.8612812,20.2575863 30.6748433,21.1984232 Z" id="形状结合" fill="#D1DCFF"></path>
                    <circle id="椭圆形备份" fill="#EDF1FF" cx="93" cy="19" r="1"></circle>
                    <circle id="椭圆形备份-11" fill="#EDF1FF" cx="41.5" cy="16.5" r="1"></circle>
                    <circle id="椭圆形备份-7" fill="#EDF1FF" cx="57.5" cy="5.5" r="1"></circle>
                    <circle id="椭圆形备份-10" fill="#EDF1FF" cx="0.5" cy="54.5" r="1"></circle>
                    <circle id="椭圆形备份-8" fill="#EDF1FF" cx="24.25" cy="14.25" r="1"></circle>
                    <circle id="椭圆形备份-12" fill="#EDF1FF" cx="34.25" cy="14.25" r="1"></circle>
                    <circle id="椭圆形备份-9" fill="#EDF1FF" cx="12.25" cy="24.25" r="1"></circle>
                    <circle id="椭圆形备份-13" fill="#EDF1FF" cx="9.25" cy="46.25" r="1"></circle>
                    <circle id="椭圆形备份-14" fill="#EDF1FF" cx="10.25" cy="61.25" r="1"></circle>
                    <circle id="椭圆形备份-17" fill="#EDF1FF" cx="44.25" cy="66.25" r="1"></circle>
                    <circle id="椭圆形备份-6" fill="#EDF1FF" cx="91.5" cy="40.5" r="1"></circle>
                    <circle id="椭圆形备份-18" fill="#F0F4FF" cx="108.5" cy="78.5" r="1"></circle>
                    <circle id="椭圆形备份-2" fill="#EDF1FF" cx="112.25" cy="39.25" r="1"></circle>
                    <circle id="椭圆形备份-3" fill="#EDF1FF" cx="107.25" cy="36.25" r="1"></circle>
                    <circle id="椭圆形备份-4" fill="#EDF1FF" cx="82.25" cy="29.25" r="1"></circle>
                    <circle id="椭圆形备份-15" fill="#EDF1FF" cx="114.25" cy="55.25" r="1"></circle>
                    <circle id="椭圆形备份-26" fill="#D0DAFF" opacity="0.635974702" cx="109" cy="71" r="2"></circle>
                    <circle id="椭圆形备份-27" fill="#D0DAFF" opacity="0.27780878" cx="63" cy="104" r="2"></circle>
                    <circle id="椭圆形备份-28" fill="#D0DAFF" opacity="0.27780878" cx="38" cy="73" r="1"></circle>
                    <circle id="椭圆形备份-16" fill="#EDF1FF" cx="110.25" cy="63.25" r="1"></circle>
                    <circle id="椭圆形备份-19" fill="#DCE4FF" cx="95.25" cy="88.25" r="1"></circle>
                    <circle id="椭圆形备份-5" fill="#EDF1FF" cx="62.25" cy="11.25" r="1"></circle>
                    <circle id="椭圆形备份-20" fill="#EDF1FF" cx="61.25" cy="33.25" r="1"></circle>
                    <circle id="椭圆形备份-21" fill="#EDF1FF" cx="44.25" cy="28.25" r="1"></circle>
                    <circle id="椭圆形备份-21" fill="#EDF1FF" cx="39.25" cy="51.25" r="1"></circle>
                    <path d="M28.7349938,18.7122629 C19.8537712,24.3149424 12.7463557,26.3832126 11.7006858,25.9426533 C11.0035726,25.6489472 10.8266285,25.1227311 11.1698536,24.3640051 L11.371614,24.1246799 C10.8575465,24.9654081 11.0092959,25.4876062 11.8268625,25.6912744 C13.0532123,25.9967766 20.1346829,22.9569137 27.1681409,18.5126177 C33.109319,14.7585106 34.9118251,12.5919605 36.6798378,10.4316253 C37.7947563,9.06930594 38.5767332,7.47691757 38.6405567,6.96602037 C38.7227056,6.30843238 38.2652448,6.01242734 37.2681744,6.07800525 C38.142246,5.8741562 38.7038296,6.06984213 38.9529252,6.66506304 C39.3265686,7.5578944 37.6162164,13.1095833 28.7349938,18.7122629 Z" id="路径-14" fill="#E4EAFF"></path>
                    <path d="M36.4978901,7 C35.9127808,8.0207135 35.4899695,8.66769174 35.2294563,8.94093472 C34.8386866,9.35079918 34.5622941,9.47849406 34.1251665,10.058061 C33.6880388,10.6376279 33.3194672,10.6854531 32.8887491,11.1000148 C32.458031,11.5145766 31.7966522,11.4231083 31.3349304,12.0354547 C30.8732086,12.6478011 30.1308884,13.0990332 29.6507193,13.6475456 C29.1705502,14.1960579 27.9504286,14.8433996 27.3841391,15.3632203 C26.8178496,15.883041 24.8802163,17 25.0058371,17 C25.1314579,17 28.4762907,15.419686 28.922003,15.1283335 C29.3677153,14.836981 30.1176165,14.3379756 30.5475518,13.8362215 C30.9774871,13.3344674 31.5845461,12.8442317 31.8222228,12.6865224 C32.0598996,12.528813 33.3901353,12.0421602 33.6862677,11.658054 C33.9824,11.2739478 34.5649975,10.6530508 34.9783099,10.4972403 C35.3916224,10.3414299 36.2058242,9.32674855 36.4477011,9.0259932 C36.6089523,8.82548964 36.793052,8.5088625 37,8.07611178 C36.8937106,7.82823878 36.8051857,7.62613882 36.7344252,7.46981191 C36.6636648,7.31348499 36.5848198,7.15688102 36.4978901,7 Z" id="路径-15" fill="#D1DCFF"></path>
                    <path d="M13.0556936,22.7500419 C14.3651601,22.1521313 15.2000409,21.8087155 15.5603359,21.7197947 C16.1029701,21.5858727 16.9395125,21.2158942 17.3746484,21.1339308 C17.8097842,21.0519674 19.4494482,20.414108 19.8548565,20.3080789 C20.2602647,20.2020497 20.8905262,19.9172602 21.1298907,19.734606 C21.2968885,19.6071734 21.586925,19.3623047 22,19 C21.7208732,19.3646829 21.4308368,19.676247 21.1298907,19.9346923 C20.6784716,20.3223602 20.3154035,20.3223602 19.8548565,20.5949089 C19.3943094,20.8674576 18.5270394,21.0820172 18.1802206,21.2270032 C17.8334018,21.3719893 16.9519652,21.787829 16.4794584,22.1447527 C16.1644538,22.3827018 15.3148172,22.9184785 13.9305483,23.7520829 C13.7170657,23.5208442 13.5530337,23.3322542 13.4384524,23.186313 C13.3238711,23.0403717 13.1962848,22.894948 13.0556936,22.7500419 Z" id="路径-20" fill="#D1DCFF"></path>
                </g>
            </g>
            <line x1="49" y1="24" x2="70.5639203" y2="37.5619334" id="路径-24" stroke="url(#linearGradient-4)" stroke-width="0.5" mask="url(#mask-2)"></line>
            <line x1="63.5639203" y1="27.7375107" x2="85.1278405" y2="41.2994441" id="路径-24备份" stroke="url(#linearGradient-4)" stroke-width="0.5" mask="url(#mask-2)"></line>
            <line x1="4.56392027" y1="49.7375107" x2="26.1278405" y2="63.2994441" id="路径-24备份-5" stroke="url(#linearGradient-4)" stroke-width="0.5" opacity="0.486351376" mask="url(#mask-2)"></line>
            <line x1="62" y1="23" x2="83.5639203" y2="36.5619334" id="路径-24备份-2" stroke="url(#linearGradient-5)" stroke-width="0.5" mask="url(#mask-2)"></line>
            <line x1="3" y1="45" x2="24.5639203" y2="58.5619334" id="路径-24备份-6" stroke="url(#linearGradient-4)" stroke-width="0.5" opacity="0.486351376" mask="url(#mask-2)"></line>
            <line x1="100.739715" y1="54.6880666" x2="111.803635" y2="61" id="路径-24备份-3" stroke="url(#linearGradient-6)" stroke-width="0.5" mask="url(#mask-2)"></line>
            <line x1="104" y1="61" x2="115.06392" y2="67.3119334" id="路径-24备份-4" stroke="url(#linearGradient-6)" stroke-width="0.5" mask="url(#mask-2)"></line>
            <path d="M82,59.4546967 C86.2418651,60.6396583 87.8599353,62.232139 86.8542106,64.232139 C85.3456237,67.232139 94.9660178,67.6098505 92.2482755,71.1352758 C89.5305332,74.6607011 84.2076108,70.4324818 75.5201747,74.5033249 C68.8568141,77.6257071 67.0294033,78.5666658 63.9427164,81.9150974 C63.1005092,82.828722 61.8138542,84.1903562 60.0827514,86" id="路径-23" stroke="#DFE6FF" stroke-width="1.5" mask="url(#mask-2)"></path>
            <path d="M81,57.4546967 C85.2418651,58.6396583 86.8599353,60.232139 85.8542106,62.232139 C84.3456237,65.232139 93.9660178,65.6098505 91.2482755,69.1352758 C88.5305332,72.6607011 83.2076108,68.4324818 74.5201747,72.5033249 C67.8568141,75.6257071 66.0294033,76.5666658 62.9427164,79.9150974 C62.1005092,80.828722 60.8138542,82.1903562 59.0827514,84" id="路径-23" stroke="#C4D1FF" stroke-width="1.5" mask="url(#mask-2)"></path>
            <rect id="矩形" fill="#ACBEFF" mask="url(#mask-2)" transform="translate(49.250000, 31.500000) rotate(-14.000000) translate(-49.250000, -31.500000) " x="49" y="24" width="1" height="15" rx="0.5"></rect>
            <rect id="矩形备份-4" fill="#ACBEFF" mask="url(#mask-2)" transform="translate(71.250000, 31.500000) scale(-1, 1) rotate(-14.000000) translate(-71.250000, -31.500000) " x="71" y="24" width="1" height="15" rx="0.5"></rect>
            <rect id="矩形" stroke="#ACBEFF" stroke-width="2" fill="#F5F7FF" mask="url(#mask-2)" x="41" y="35" width="42" height="30" rx="3"></rect>
            <path d="M67,41 L46,41 C45.4477153,41 45,41.4477153 45,42 L45,58 C45,58.5522847 45.4477153,59 46,59 L67,59 C67.5522847,59 68,58.5522847 68,58 L68,42 C68,41.4477153 67.5522847,41 67,41 Z" id="路径" fill="#D0DAFF" fill-rule="nonzero" mask="url(#mask-2)"></path>
            <path d="M47,43.7552448 C47,43.2997003 47.2921279,43 47.7361624,43 L65.2638376,43 C65.7078721,43 66,43.2997003 66,43.7552448 L66,54.4725275 L62.5645756,50.9480519 C62.1205412,50.4925075 61.6180812,50.2767233 61.0338253,50.2767233 C60.4495695,50.2767233 59.8653137,50.5044955 59.503075,50.8761239 L54.8290283,55 L51.6156212,52.3746254 C50.8093481,51.5474525 49.3487085,51.5474525 48.5424354,52.3746254 L47.0116851,53.9450549 L47.0116851,43.7552448 L47,43.7552448 Z" id="路径" fill="#EAEFFE" fill-rule="nonzero" mask="url(#mask-2)"></path>
            <circle id="椭圆形" fill="#D0DAFF" mask="url(#mask-2)" cx="53.5" cy="47.5" r="1.5"></circle>
            <path d="M65.9301471,56.2727273 C65.9301471,56.7113997 65.6390931,57 65.1966912,57 L47.7334559,57 C47.2910539,57 47,56.7113997 47,56.2727273 L47,55.1183261 L49.5496324,52.6594517 C49.8406863,52.3708514 50.2830882,52.3708514 50.5741422,52.6594517 C50.5741422,52.6594517 50.6439951,52.6594517 50.6439951,52.7287157 L54.3578431,55.6839827 C54.6488971,55.9033189 55.0098039,55.9033189 55.3008578,55.6839827 L60.4699755,51.2857143 L60.5398284,51.2164502 C60.8308824,50.9278499 61.2732843,50.9278499 61.5643382,51.2164502 L66,55.6147186 L66,56.2611833 L65.9301471,56.2611833 L65.9301471,56.2727273 Z" id="形状" fill="#D0DAFF" fill-rule="nonzero" mask="url(#mask-2)"></path>
            <path d="M71,35 L80,35 C81.6568542,35 83,36.3431458 83,38 L83,62 C83,63.6568542 81.6568542,65 80,65 L71,65 L71,65 L71,35 Z" id="矩形" fill="#ACBEFF" mask="url(#mask-2)"></path>
            <circle id="椭圆形" stroke="#B7C6FF" fill="#C8D5FF" mask="url(#mask-2)" cx="78" cy="43" r="3"></circle>
            <rect id="矩形" fill="#ACBEFF" mask="url(#mask-2)" x="77" y="40" width="2" height="6" rx="1"></rect>
            <path d="M22.281848,110.023833 C27.930073,108.156784 32.0725552,106.371124 34.7092943,104.666851 C37.3460334,102.962578 43.9958244,98.0616825 54.6586673,89.9641656" id="路径-2" stroke="#DFE6FF" stroke-width="1.5" mask="url(#mask-2)"></path>
            <path d="M21.281848,108.023833 C25.9845061,106.472867 29.7249662,104.939823 32.5032284,103.4247 C35.2814905,101.909577 42.447081,96.6570505 54,87.6671212" id="路径-2" stroke="#C4D1FF" stroke-width="1.5" mask="url(#mask-2)"></path>
            <polygon id="路径-4" fill="#ACBEFF" mask="url(#mask-2)" transform="translate(60.599126, 92.497903) rotate(36.000000) translate(-60.599126, -92.497903) " points="55.3810857 90.8292964 60.7220345 91.0227256 59.6269035 93.0468974 65.8171654 93.6715275 57.7096549 94.1665094 58.7096549 91.8247707"></polygon>
            <polygon id="路径-4备份" fill="#ACBEFF" mask="url(#mask-2)" transform="translate(50.598553, 81.070353) rotate(28.000000) translate(-50.598553, -81.070353) " points="44.1534738 79.4984609 51.9485015 79.4984609 50.8533706 81.5226327 57.0436324 82.1472628 48.9361219 82.6422447 49.9361219 80.300506"></polygon>
            <polygon id="路径-4备份-2" fill="#ACBEFF" mask="url(#mask-2)" transform="translate(62.012677, 87.804765) rotate(2.000000) translate(-62.012677, -87.804765) " points="58.0126769 86.8047646 62.8504934 86.8047646 62.1708239 88.0924942 66.0126769 88.489869 60.9809248 88.8047646 61.6015533 87.3150065"></polygon>
            <polygon id="路径-4备份-3" fill="#ACBEFF" mask="url(#mask-2)" transform="translate(49.000000, 86.000000) rotate(-11.000000) translate(-49.000000, -86.000000) " points="45 85 49.8378165 85 49.158147 86.2877296 53 86.6851044 47.9682478 87 48.5888763 85.5102419"></polygon>
            <rect id="矩形" fill="#B7C6FF" mask="url(#mask-2)" x="74" y="50" width="8" height="2" rx="1"></rect>
            <rect id="矩形备份" fill="#B7C6FF" mask="url(#mask-2)" x="74" y="55" width="8" height="2" rx="1"></rect>
            <rect id="矩形备份-5" fill="#B7C6FF" mask="url(#mask-2)" x="74" y="59" width="8" height="2" rx="1"></rect>
            <polygon id="路径-5" fill="#F5F7FF" mask="url(#mask-2)" points="50 39 55.4998274 47.5 53.3080734 50 61.9184429 61 65.6405499 61 56.8294267 50 58.9143907 47.5 53.5 39"></polygon>
        </g>
    </g>
</svg>