<?xml version="1.0" encoding="UTF-8"?>
<svg width="120px" height="120px" viewBox="0 0 120 120" version="1.1" xmlns="http://www.w3.org/2000/svg" xmlns:xlink="http://www.w3.org/1999/xlink">
    <!-- Generator: Sketch 60 (88103) - https://sketch.com -->
    <title>快应用暂未上架配图</title>
    <desc>Created with Sketch.</desc>
    <defs>
        <circle id="path-1" cx="60" cy="60" r="60"></circle>
        <linearGradient x1="100%" y1="72.3811506%" x2="22.5097915%" y2="41.9692034%" id="linearGradient-3">
            <stop stop-color="#EFF3FF" offset="0%"></stop>
            <stop stop-color="#D6DFFF" offset="30.8638867%"></stop>
            <stop stop-color="#D0DAFF" offset="100%"></stop>
        </linearGradient>
        <linearGradient x1="100%" y1="72.3811506%" x2="-2.87571457%" y2="30.2231197%" id="linearGradient-4">
            <stop stop-color="#EFF3FF" offset="0%"></stop>
            <stop stop-color="#D6DFFF" offset="46.6204058%"></stop>
            <stop stop-color="#D0DAFF" offset="100%"></stop>
        </linearGradient>
        <ellipse id="path-5" cx="69.5" cy="49" rx="69.5" ry="49"></ellipse>
        <path d="M101.477294,4.61902178 C103.344551,5.30118496 108.648047,7.78653679 113.737056,10.6976371 C117.8999,13.0789372 122.050462,16.0591789 126.12837,19.0713231 C125.951811,22.5150573 124.191442,24.7230722 120.845733,25.6976176 C115.478121,27.2611071 109.947989,24.0404897 107.786058,23.5031112 L107.652671,23.4725264 C101.71757,22.2371999 102.441209,18.7441578 101.854466,18.1244179 C100.668886,16.8721646 100.769292,16.0996735 101.477294,15.3844634 C102.185296,14.6692534 104.626449,14.8655272 103.442352,14.0643264 C102.258256,13.2631256 99.2037267,14.1631996 97.8540985,14.7302785 C96.5044704,15.2973575 96.3407149,14.3808864 95.2039668,14.1184474 C94.0672187,13.8560084 93.1551453,14.2596708 92.3746585,14.700541 C91.9445954,14.943469 91.122244,15.650148 90.2943297,16.0412005 C89.6197294,16.3598376 88.4135115,15.4620517 88.1813351,14.9677269 C87.9857893,14.5513921 88.3276224,13.0707506 88.7628075,12.449093 L89.2052754,11.8199415 C89.7248762,11.0977122 90.4378751,10.1931228 91.0022629,9.97803461 C92.3512593,9.46393212 90.9414668,8.85835763 92.2129031,7.73094619 C93.4843394,6.60353475 93.7040608,7.4408492 93.9734885,6.27382957 C94.1227476,5.62731711 95.6871499,5.27259364 94.7021606,4.61902178 C94.5101817,4.49163764 94.6063436,4.08457276 94.9906464,3.39782715 C97.0046109,3.36787633 99.1668268,3.77494121 101.477294,4.61902178 Z" id="path-7"></path>
        <filter x="-1.3%" y="-2.2%" width="102.6%" height="108.8%" filterUnits="objectBoundingBox" id="filter-8">
            <feOffset dx="0" dy="1" in="SourceAlpha" result="shadowOffsetOuter1"></feOffset>
            <feColorMatrix values="0 0 0 0 0.863681402   0 0 0 0 0.893974424   0 0 0 0 1  0 0 0 1 0" type="matrix" in="shadowOffsetOuter1"></feColorMatrix>
        </filter>
        <path d="M25.6262599,13.28238 C25.3405019,14.8475005 23.8955128,16.0502823 25.7527956,16.1158959 L25.9201825,16.1187169 C27.3256403,16.1187169 27.8337897,16.6045356 27.4446308,17.5761731 L28.2277577,17.8137527 C28.6185231,18.0139357 28.9536606,18.1140272 29.2331702,18.1140272 C30.2661463,18.1140272 30.7628923,18.6202136 30.7628923,19.3124159 C30.7628923,20.0046182 32.3386955,19.8205972 32.3386955,19.8205972 L32.4054446,19.7539273 C32.6201818,19.5585921 33.3980908,18.9769089 35.3765128,18.5877662 C37.7850265,18.1140272 39.2083404,19.8212885 40.2722076,19.3124159 C41.2769711,18.831814 42.4221763,19.1074367 43.0789697,19.7108053 L43.1896764,19.8205972 C43.6111991,20.2726755 44.5503423,20.596875 46.0071062,20.7931957 C46.1968147,21.549457 45.6064134,21.9447754 44.235902,21.9791509 L43.326016,21.9862917 C41.7016986,22.0120886 41.4343422,22.1580378 40.7527326,22.7501904 C39.9822174,23.4195803 39.1876722,24.7142927 36.9583941,25.254743 C34.7291161,25.7952549 32.2065063,25.7633461 31.4249898,25.254743 C30.6434732,24.7461399 29.5225459,24.2732324 28.5429797,24.2732324 C27.5634135,24.2732324 26.7122755,24.6175314 25.1315093,25.254743 C23.5507432,25.8919546 20.6733105,25.5963547 17.6428047,25.5963547 C15.0294636,25.5963547 17.1075139,24.2732324 14.2312804,24.2732324 C13.0647377,24.2732324 12.4563643,25.7952549 11.2990005,25.7952549 C9.89697429,25.7952549 9.68411635,25.0134184 9.33333333,24.2732324 C10.9620296,22.4922467 12.9310299,20.1537627 16.3265842,17.3426319 C19.7221385,14.5315012 22.6196788,12.6078339 25.3983806,11 C25.8377516,11.5395139 25.8076609,12.2888315 25.6262599,13.28238 Z" id="path-9"></path>
        <filter x="-1.4%" y="-3.4%" width="102.7%" height="113.5%" filterUnits="objectBoundingBox" id="filter-10">
            <feOffset dx="0" dy="1" in="SourceAlpha" result="shadowOffsetOuter1"></feOffset>
            <feColorMatrix values="0 0 0 0 0.863681402   0 0 0 0 0.893974424   0 0 0 0 1  0 0 0 1 0" type="matrix" in="shadowOffsetOuter1"></feColorMatrix>
        </filter>
        <linearGradient x1="50%" y1="14.5687591%" x2="50%" y2="95.5475384%" id="linearGradient-11">
            <stop stop-color="#B0C2FF" stop-opacity="0.8" offset="0%"></stop>
            <stop stop-color="#EDF1FF" stop-opacity="0" offset="100%"></stop>
        </linearGradient>
        <linearGradient x1="48.5134465%" y1="50%" x2="64.6534727%" y2="64.2143599%" id="linearGradient-12">
            <stop stop-color="#B0C2FF" stop-opacity="0.571405157" offset="0%"></stop>
            <stop stop-color="#EDF1FF" stop-opacity="0" offset="100%"></stop>
            <stop stop-color="#EDF1FF" stop-opacity="0" offset="100%"></stop>
        </linearGradient>
        <filter x="-23.7%" y="-36.3%" width="147.4%" height="172.6%" filterUnits="objectBoundingBox" id="filter-13">
            <feGaussianBlur stdDeviation="2.66666667" in="SourceGraphic"></feGaussianBlur>
        </filter>
        <linearGradient x1="50%" y1="0%" x2="50%" y2="100%" id="linearGradient-14">
            <stop stop-color="#ACBEFF" offset="0%"></stop>
            <stop stop-color="#D6E0FF" offset="100%"></stop>
        </linearGradient>
        <linearGradient x1="50%" y1="0%" x2="50%" y2="100%" id="linearGradient-15">
            <stop stop-color="#ACBEFF" offset="0%"></stop>
            <stop stop-color="#D8E0FF" offset="100%"></stop>
        </linearGradient>
        <rect id="path-16" x="0" y="0" width="16" height="16" rx="4"></rect>
        <mask id="mask-17" maskContentUnits="userSpaceOnUse" maskUnits="objectBoundingBox" x="0" y="0" width="16" height="16" fill="white">
            <use xlink:href="#path-16"></use>
        </mask>
        <linearGradient x1="81.2264749%" y1="3.7027312%" x2="38.0140127%" y2="41.5940803%" id="linearGradient-18">
            <stop stop-color="#E8EDFF" offset="0%"></stop>
            <stop stop-color="#BBCAFF" offset="100%"></stop>
        </linearGradient>
        <linearGradient x1="63.572654%" y1="3.7027312%" x2="38.8569695%" y2="102.827419%" id="linearGradient-19">
            <stop stop-color="#F8FBFF" offset="0%"></stop>
            <stop stop-color="#DAE2FF" offset="100%"></stop>
        </linearGradient>
        <linearGradient x1="68.2270657%" y1="4.10719931%" x2="29.3338559%" y2="75.2882547%" id="linearGradient-20">
            <stop stop-color="#FFFFFF" offset="0%"></stop>
            <stop stop-color="#D0DAFF" offset="100%"></stop>
        </linearGradient>
        <linearGradient x1="32.7054127%" y1="-2.42660404%" x2="62.5775519%" y2="45.7208302%" id="linearGradient-21">
            <stop stop-color="#E1E7FE" offset="0%"></stop>
            <stop stop-color="#BFCCFB" offset="100%"></stop>
        </linearGradient>
        <linearGradient x1="38.7345765%" y1="-2.57841037%" x2="65.3073134%" y2="105.621761%" id="linearGradient-22">
            <stop stop-color="#EFF3FF" offset="0%"></stop>
            <stop stop-color="#C8D4FF" offset="100%"></stop>
            <stop stop-color="#D4DDFD" offset="100%"></stop>
            <stop stop-color="#D4DDFD" offset="100%"></stop>
        </linearGradient>
        <linearGradient x1="90.6466434%" y1="74.2123338%" x2="36.055419%" y2="50%" id="linearGradient-23">
            <stop stop-color="#C8D4FF" offset="0%"></stop>
            <stop stop-color="#D5DEFF" offset="100%"></stop>
            <stop stop-color="#D5DEFF" offset="100%"></stop>
        </linearGradient>
        <linearGradient x1="97.9736887%" y1="48.1741394%" x2="99.2131068%" y2="50%" id="linearGradient-24">
            <stop stop-color="#E8EEFF" offset="0%"></stop>
            <stop stop-color="#ABBCFF" offset="100%"></stop>
        </linearGradient>
        <linearGradient x1="98.2653081%" y1="48.8707393%" x2="98.846341%" y2="50%" id="linearGradient-25">
            <stop stop-color="#E8EEFF" offset="0%"></stop>
            <stop stop-color="#C7D3FF" offset="100%"></stop>
        </linearGradient>
    </defs>
    <g id="引擎组件" stroke="none" stroke-width="1" fill="none" fill-rule="evenodd">
        <g id="快应用暂未上架配图">
            <mask id="mask-2" fill="white">
                <use xlink:href="#path-1"></use>
            </mask>
            <use id="蒙版" fill="#D0DAFF" xlink:href="#path-1"></use>
            <line x1="41" y1="17" x2="62.5639203" y2="30.5619334" id="路径-24" stroke="url(#linearGradient-3)" stroke-width="0.5" mask="url(#mask-2)"></line>
            <line x1="71.5639203" y1="31.7375107" x2="93.1278405" y2="45.2994441" id="路径-24备份" stroke="url(#linearGradient-3)" stroke-width="0.5" mask="url(#mask-2)"></line>
            <line x1="72.5639203" y1="34.7375107" x2="94.1278405" y2="48.2994441" id="路径-24备份" stroke="url(#linearGradient-3)" stroke-width="0.5" opacity="0.677199591" mask="url(#mask-2)"></line>
            <line x1="16" y1="34" x2="37.5639203" y2="47.5619334" id="路径-24备份-2" stroke="url(#linearGradient-4)" stroke-width="0.5" mask="url(#mask-2)"></line>
            <g id="编组" mask="url(#mask-2)">
                <g transform="translate(-6.000000, 57.000000)">
                    <mask id="mask-6" fill="white">
                        <use xlink:href="#path-5"></use>
                    </mask>
                    <use id="蒙版" stroke="none" fill="#EDF1FF" fill-rule="evenodd" xlink:href="#path-5"></use>
                    <path d="M38.0793645,57.0639999 C40.2588022,56.9268574 42.1764727,56.7161314 43.832376,56.4318219 C46.3162309,56.0053576 48.0937292,54.8555634 52.2498912,55.1975153 C56.4060531,55.5394671 57.2767848,58.0315337 59.2047133,58.342464 C61.1326417,58.6533944 62.4697287,58.6638785 63.1815916,57.0639999 C63.6087081,56.1040755 63.3906552,55.2607065 63.1815916,54.2932504 C62.9064403,53.0199688 62.22947,51.8317485 62.6053794,51.1549404 C62.9812887,50.4781323 64.6143456,50.7621141 65.0861835,50.7621141 C65.5580214,50.7621141 67.4746942,50.3274058 67.5508503,50.3135378 C70.6196332,49.7547141 71.0982208,50.1086994 72.8262607,49.8287577 C74.9301258,49.4879325 76.0605797,49.82068 77.6176439,50.3135378 C79.174708,50.8063955 79.5810501,50.7907487 80.844842,52.6756787 C82.1086339,54.5606088 81.0074628,54.7706217 82.1509947,55.1975153 C83.2945267,55.6244088 84.777809,55.6136223 85.5892435,54.6456679 C86.4006779,53.6777135 86.9904216,53.3430969 86.5,52.3427886 C86.0095784,51.3424802 85.9620743,49.1158163 86.8313064,47.9302672 C87.7005384,46.744718 88.7495357,46.3408229 90.0230959,45.4881377 C91.2966562,44.6354525 93.6866359,43.4019662 94.7334048,42.9858264 C95.7287369,42.5901351 101.869417,42.8330827 103.337074,42.3832546 C104.804732,41.9334265 106.792155,41.2436041 109.524199,41.2436041 C111.345561,41.2436041 112.822881,41.2436041 113.956158,41.2436041 C106.876769,49.9433683 100.469185,55.6429883 94.7334048,58.342464 C86.1297352,62.3916776 65.0302345,64.9371019 55.7549164,63.7283195 C49.571371,62.9224646 43.6795204,60.7010248 38.0793645,57.0639999 Z" id="路径-7" stroke="none" fill="#E7ECFF" fill-rule="evenodd" mask="url(#mask-6)"></path>
                    <g id="路径" stroke="none" fill="none" mask="url(#mask-6)">
                        <use fill="black" fill-opacity="1" filter="url(#filter-8)" xlink:href="#path-7"></use>
                        <use fill="#E3E9FF" fill-rule="evenodd" xlink:href="#path-7"></use>
                    </g>
                    <g id="路径" stroke="none" fill="none" mask="url(#mask-6)">
                        <use fill="black" fill-opacity="1" filter="url(#filter-10)" xlink:href="#path-9"></use>
                        <use fill="#E3E9FF" fill-rule="evenodd" xlink:href="#path-9"></use>
                    </g>
                    <path d="M99.5725837,36.6742235 C104.259366,37.0441844 108.273839,35.1259685 108.539159,32.3897682 C108.80448,29.653568 105.220176,27.1355268 100.533393,26.7655658 C95.8466105,26.3956049 91.8321379,28.3138208 91.5668176,31.0500211 C91.3014974,33.7862213 94.885801,36.3042625 99.5725837,36.6742235 Z" id="椭圆形" stroke="none" fill="#E1E7FF" fill-rule="evenodd" mask="url(#mask-6)"></path>
                    <ellipse id="椭圆形备份-24" stroke="none" fill="#E1E7FF" fill-rule="evenodd" mask="url(#mask-6)" cx="44.5" cy="55" rx="12.5" ry="8"></ellipse>
                    <ellipse id="椭圆形备份-22" stroke="none" fill="#E1E7FF" fill-rule="evenodd" mask="url(#mask-6)" cx="37" cy="14.5" rx="4" ry="2.5"></ellipse>
                    <ellipse id="椭圆形" stroke="none" fill="#D5DEFF" fill-rule="evenodd" mask="url(#mask-6)" transform="translate(100.052988, 32.719895) rotate(5.000000) translate(-100.052988, -32.719895) " cx="100.052988" cy="32.7198947" rx="6.5" ry="4"></ellipse>
                    <ellipse id="椭圆形备份-25" stroke="none" fill="#D5DEFF" fill-rule="evenodd" mask="url(#mask-6)" cx="44.5" cy="56.5" rx="9.5" ry="6.5"></ellipse>
                    <ellipse id="椭圆形备份-23" stroke="none" fill="#D5DEFF" fill-rule="evenodd" mask="url(#mask-6)" cx="37" cy="15" rx="3" ry="2"></ellipse>
                    <circle id="椭圆形备份-27" stroke="none" fill="#D0DAFF" fill-rule="evenodd" opacity="0.27780878" mask="url(#mask-6)" cx="63" cy="45" r="2"></circle>
                </g>
            </g>
            <g id="编组-3" mask="url(#mask-2)">
                <g transform="translate(2.000000, -2.000000)">
                    <circle id="椭圆形" fill="#D9E2FF" cx="24" cy="14" r="14"></circle>
                    <path d="M30.6748433,21.1984232 C29.4884053,22.13926 29.075982,23.0246703 27.8779177,23.4771878 C26.6798533,23.9297054 25.1835571,25.8203074 23.7667533,26.2323608 C22.7178262,26.5374235 20.2185598,26.8115355 18.7061978,26.9333161 C17.8409167,26.5821893 17.0181105,26.1492527 16.247003,25.644503 C17.6360656,25.6924591 18.751322,25.628522 19.5946629,25.4522115 C21.066895,25.1444239 23.7438088,25.5607662 25.0395975,24.2071917 C26.3353861,22.8536171 28.0090288,22.255457 29.3296007,21.4360413 C30.0555962,20.9855606 30.815666,20.4576315 31.4019917,19.9516353 C31.8821813,19.5372341 32.2365852,19.104702 32.438097,19.0176936 C32.8856608,18.8244455 31.8612812,20.2575863 30.6748433,21.1984232 Z" id="形状结合" fill="#D1DCFF"></path>
                    <circle id="椭圆形备份" fill="#EDF1FF" cx="93" cy="19" r="1"></circle>
                    <circle id="椭圆形备份-11" fill="#EDF1FF" cx="41.5" cy="16.5" r="1"></circle>
                    <circle id="椭圆形备份-7" fill="#EDF1FF" cx="57.5" cy="5.5" r="1"></circle>
                    <circle id="椭圆形备份-10" fill="#EDF1FF" cx="0.5" cy="54.5" r="1"></circle>
                    <circle id="椭圆形备份-8" fill="#EDF1FF" cx="24.25" cy="14.25" r="1"></circle>
                    <circle id="椭圆形备份-12" fill="#EDF1FF" cx="34.25" cy="14.25" r="1"></circle>
                    <circle id="椭圆形备份-9" fill="#EDF1FF" cx="12.25" cy="24.25" r="1"></circle>
                    <circle id="椭圆形备份-13" fill="#EDF1FF" cx="9.25" cy="46.25" r="1"></circle>
                    <circle id="椭圆形备份-14" fill="#EDF1FF" cx="10.25" cy="61.25" r="1"></circle>
                    <circle id="椭圆形备份-17" fill="#EDF1FF" cx="44.25" cy="66.25" r="1"></circle>
                    <circle id="椭圆形备份-6" fill="#EDF1FF" cx="91.5" cy="40.5" r="1"></circle>
                    <circle id="椭圆形备份-18" fill="#F0F4FF" cx="108.5" cy="78.5" r="1"></circle>
                    <circle id="椭圆形备份-2" fill="#EDF1FF" cx="112.25" cy="39.25" r="1"></circle>
                    <circle id="椭圆形备份-3" fill="#EDF1FF" cx="107.25" cy="36.25" r="1"></circle>
                    <circle id="椭圆形备份-4" fill="#EDF1FF" cx="82.25" cy="29.25" r="1"></circle>
                    <circle id="椭圆形备份-15" fill="#EDF1FF" cx="114.25" cy="55.25" r="1"></circle>
                    <circle id="椭圆形备份-26" fill="#D0DAFF" opacity="0.635974702" cx="109" cy="71" r="2"></circle>
                    <circle id="椭圆形备份-16" fill="#EDF1FF" cx="110.25" cy="63.25" r="1"></circle>
                    <circle id="椭圆形备份-19" fill="#DCE4FF" cx="101.25" cy="82.25" r="1"></circle>
                    <circle id="椭圆形备份-5" fill="#EDF1FF" cx="62.25" cy="11.25" r="1"></circle>
                    <circle id="椭圆形备份-20" fill="#EDF1FF" cx="61.25" cy="33.25" r="1"></circle>
                    <circle id="椭圆形备份-21" fill="#EDF1FF" cx="44.25" cy="28.25" r="1"></circle>
                    <circle id="椭圆形备份-21" fill="#EDF1FF" cx="39.25" cy="51.25" r="1"></circle>
                    <path d="M28.7349938,18.7122629 C19.8537712,24.3149424 12.7463557,26.3832126 11.7006858,25.9426533 C11.0035726,25.6489472 10.8266285,25.1227311 11.1698536,24.3640051 L11.371614,24.1246799 C10.8575465,24.9654081 11.0092959,25.4876062 11.8268625,25.6912744 C13.0532123,25.9967766 20.1346829,22.9569137 27.1681409,18.5126177 C33.109319,14.7585106 34.9118251,12.5919605 36.6798378,10.4316253 C37.7947563,9.06930594 38.5767332,7.47691757 38.6405567,6.96602037 C38.7227056,6.30843238 38.2652448,6.01242734 37.2681744,6.07800525 C38.142246,5.8741562 38.7038296,6.06984213 38.9529252,6.66506304 C39.3265686,7.5578944 37.6162164,13.1095833 28.7349938,18.7122629 Z" id="路径-14" fill="#E4EAFF"></path>
                    <path d="M36.4978901,7 C35.9127808,8.0207135 35.4899695,8.66769174 35.2294563,8.94093472 C34.8386866,9.35079918 34.5622941,9.47849406 34.1251665,10.058061 C33.6880388,10.6376279 33.3194672,10.6854531 32.8887491,11.1000148 C32.458031,11.5145766 31.7966522,11.4231083 31.3349304,12.0354547 C30.8732086,12.6478011 30.1308884,13.0990332 29.6507193,13.6475456 C29.1705502,14.1960579 27.9504286,14.8433996 27.3841391,15.3632203 C26.8178496,15.883041 24.8802163,17 25.0058371,17 C25.1314579,17 28.4762907,15.419686 28.922003,15.1283335 C29.3677153,14.836981 30.1176165,14.3379756 30.5475518,13.8362215 C30.9774871,13.3344674 31.5845461,12.8442317 31.8222228,12.6865224 C32.0598996,12.528813 33.3901353,12.0421602 33.6862677,11.658054 C33.9824,11.2739478 34.5649975,10.6530508 34.9783099,10.4972403 C35.3916224,10.3414299 36.2058242,9.32674855 36.4477011,9.0259932 C36.6089523,8.82548964 36.793052,8.5088625 37,8.07611178 C36.8937106,7.82823878 36.8051857,7.62613882 36.7344252,7.46981191 C36.6636648,7.31348499 36.5848198,7.15688102 36.4978901,7 Z" id="路径-15" fill="#D1DCFF"></path>
                    <path d="M13.0556936,22.7500419 C14.3651601,22.1521313 15.2000409,21.8087155 15.5603359,21.7197947 C16.1029701,21.5858727 16.9395125,21.2158942 17.3746484,21.1339308 C17.8097842,21.0519674 19.4494482,20.414108 19.8548565,20.3080789 C20.2602647,20.2020497 20.8905262,19.9172602 21.1298907,19.734606 C21.2968885,19.6071734 21.586925,19.3623047 22,19 C21.7208732,19.3646829 21.4308368,19.676247 21.1298907,19.9346923 C20.6784716,20.3223602 20.3154035,20.3223602 19.8548565,20.5949089 C19.3943094,20.8674576 18.5270394,21.0820172 18.1802206,21.2270032 C17.8334018,21.3719893 16.9519652,21.787829 16.4794584,22.1447527 C16.1644538,22.3827018 15.3148172,22.9184785 13.9305483,23.7520829 C13.7170657,23.5208442 13.5530337,23.3322542 13.4384524,23.186313 C13.3238711,23.0403717 13.1962848,22.894948 13.0556936,22.7500419 Z" id="路径-20" fill="#D1DCFF"></path>
                </g>
            </g>
            <g id="编组-9" mask="url(#mask-2)">
                <g transform="translate(39.000000, 71.333333)">
                    <path d="M38.0840948,0 L44.4588649,5.90615858 C47.1114473,8.41130802 49.4971219,10.6661913 51.6158889,12.6708084 C48.7928345,13.2742056 46.7539108,14.793367 46.5674128,16.7166877 C46.3020926,19.452888 49.8863961,21.9709292 54.5731789,22.3408901 C56.9365867,22.5274507 59.1290334,22.1321528 60.7559738,21.3435202 C62.3441654,22.8574172 63.3877082,23.8615359 63.886917,24.3552596 C58.0814134,24.3552596 28.5853797,25.0404178 23.9630294,25.0826079 C21.1940613,23.092156 3.53992569,9.11852975 1.26988573,5.90615858 C0.294430373,4.52577554 0.30510718,3.66376259 -4.40536496e-13,1.29364687 L-4.40536496e-13,1.29364687 L-4.40536496e-13,0.125186032 L38.0840948,0 Z" id="形状结合" fill="url(#linearGradient-11)"></path>
                    <path d="M36.6564968,2.33333333 L43.0005952,6.8396455 L48.4523257,13.2307746 L36.6559016,24.3802822 L14.6672618,6.8396455 L15.3339285,2.84078345 L36.6564968,2.33333333 Z" id="形状结合备份" fill="url(#linearGradient-12)" filter="url(#filter-13)"></path>
                </g>
            </g>
            <g id="编组-6" mask="url(#mask-2)">
                <g transform="translate(40.000000, 24.666667)">
                    <g id="编组-4" transform="translate(8.666667, 9.666667)">
                        <rect id="矩形" stroke="#C5D1FF" stroke-width="2" fill="#EDF2FF" x="18.6666667" y="1" width="10.6666667" height="33" rx="3"></rect>
                        <g id="编组-2" opacity="0.696963356" transform="translate(0.000000, 3.000000)">
                            <g id="编组-5备份">
                                <rect id="矩形" fill="#E3E9FF" x="0" y="0" width="6.33333333" height="6.33333333" rx="1"></rect>
                                <rect id="矩形备份-12" fill="#F3F6FF" x="8.33333333" y="4.33333333" width="10" height="1" rx="0.5"></rect>
                                <rect id="矩形备份-13" fill="#F3F6FF" x="8.33333333" y="1" width="6.33333333" height="2" rx="0.5"></rect>
                                <rect id="矩形备份-14" fill="#E3E9FF" x="22.3333333" y="2" width="4" height="2" rx="1"></rect>
                            </g>
                            <g id="编组-5备份-5" transform="translate(0.000000, 5.333333)">
                                <rect id="矩形" fill="#E3E9FF" x="0" y="0" width="6.33333333" height="6.33333333" rx="1"></rect>
                                <rect id="矩形备份-12" fill="#F3F6FF" x="8.33333333" y="4.33333333" width="10" height="1" rx="0.5"></rect>
                                <rect id="矩形备份-13" fill="#F3F6FF" x="8.33333333" y="1" width="6.33333333" height="2" rx="0.5"></rect>
                                <rect id="矩形备份-14" fill="#E3E9FF" x="22.3333333" y="2" width="4" height="2" rx="1"></rect>
                            </g>
                            <g id="编组-5备份-6" transform="translate(0.000000, 10.666667)">
                                <rect id="矩形" fill="#E3E9FF" x="0" y="0" width="6.33333333" height="6.33333333" rx="1"></rect>
                                <rect id="矩形备份-12" fill="#F3F6FF" x="8.33333333" y="4.33333333" width="10" height="1" rx="0.5"></rect>
                                <rect id="矩形备份-13" fill="#F3F6FF" x="8.33333333" y="1" width="6.33333333" height="2" rx="0.5"></rect>
                                <rect id="矩形备份-14" fill="#E3E9FF" x="22.3333333" y="2" width="4" height="2" rx="1"></rect>
                            </g>
                            <g id="编组-5备份-7" transform="translate(1.000000, 16.000000)">
                                <rect id="矩形" fill="#E3E9FF" x="0" y="0" width="6.33333333" height="6.33333333" rx="1"></rect>
                                <rect id="矩形备份-12" fill="#F3F6FF" x="8.33333333" y="4.33333333" width="10" height="1" rx="0.5"></rect>
                                <rect id="矩形备份-13" fill="#F3F6FF" x="8.33333333" y="1" width="6.33333333" height="2" rx="0.5"></rect>
                                <rect id="矩形备份-14" fill="#E3E9FF" x="21.3333333" y="2" width="4" height="2" rx="1"></rect>
                            </g>
                        </g>
                        <rect id="矩形" fill="url(#linearGradient-14)" opacity="0.482724144" x="10.6666667" y="0" width="13.631746" height="35"></rect>
                    </g>
                    <g id="手机">
                        <rect id="矩形" stroke="url(#linearGradient-15)" stroke-width="2" fill="#F4F7FF" x="0" y="0" width="30" height="50.6666667" rx="3"></rect>
                        <g id="编组-5备份-4" transform="translate(7.000000, 7.666667)">
                            <use id="矩形" stroke="#D0DAFF" mask="url(#mask-17)" stroke-width="2" stroke-dasharray="1" xlink:href="#path-16"></use>
                            <path d="M1.86708861,22.6666667 L14.2004219,22.6666667 C14.4765643,22.6666667 14.7004219,22.8905243 14.7004219,23.1666667 C14.7004219,23.442809 14.4765643,23.6666667 14.2004219,23.6666667 L1.86708861,23.6666667 C1.59094623,23.6666667 1.36708861,23.442809 1.36708861,23.1666667 C1.36708861,22.8905243 1.59094623,22.6666667 1.86708861,22.6666667 Z" id="矩形备份-12" fill="#D0DAFF" opacity="0.195833333"></path>
                            <path d="M5.83333333,19.3333333 L10.3649789,19.3333333 C10.6411213,19.3333333 10.8649789,19.557191 10.8649789,19.8333333 L10.8649789,20.8333333 C10.8649789,21.1094757 10.6411213,21.3333333 10.3649789,21.3333333 L5.83333333,21.3333333 C5.55719096,21.3333333 5.33333333,21.1094757 5.33333333,20.8333333 L5.33333333,19.8333333 C5.33333333,19.557191 5.55719096,19.3333333 5.83333333,19.3333333 Z" id="矩形备份-13" fill="#D0DAFF" opacity="0.3"></path>
                            <path d="M3.532,10.6533333 L3.532,6.26133333 L2.66,6.26133333 L2.66,10.6533333 L3.532,10.6533333 Z M3.532,5.66666667 L3.532,4.66666667 L2.66,4.66666667 L2.66,5.66666667 L3.532,5.66666667 Z M6.548,10.7893333 C6.852,10.7893333 7.11466667,10.752 7.336,10.6773333 C7.55733333,10.6026667 7.744,10.5026667 7.896,10.3773333 C8.048,10.252 8.17066667,10.108 8.264,9.94533333 C8.35733333,9.78266667 8.428,9.61333333 8.476,9.43733333 L8.476,9.43733333 L7.588,9.43733333 C7.40133333,9.848 7.05466667,10.0533333 6.548,10.0533333 C6.35066667,10.0533333 6.17466667,10.0146667 6.02,9.93733333 C5.86533333,9.86 5.73466667,9.752 5.628,9.61333333 C5.52133333,9.47466667 5.44,9.30666667 5.384,9.10933333 C5.328,8.912 5.3,8.696 5.3,8.46133333 C5.3,8.22133333 5.32933333,8.00533333 5.388,7.81333333 C5.44666667,7.62133333 5.53066667,7.456 5.64,7.31733333 C5.74933333,7.17866667 5.88266667,7.072 6.04,6.99733333 C6.19733333,6.92266667 6.372,6.88533333 6.564,6.88533333 C6.81466667,6.88533333 7.02,6.936 7.18,7.03733333 C7.34,7.13866667 7.47333333,7.29066667 7.58,7.49333333 L7.58,7.49333333 L8.476,7.49333333 C8.428,7.33333333 8.35866667,7.172 8.268,7.00933333 C8.17733333,6.84666667 8.05733333,6.70133333 7.908,6.57333333 C7.75866667,6.44533333 7.57466667,6.34 7.356,6.25733333 C7.13733333,6.17466667 6.87333333,6.13333333 6.564,6.13333333 C6.21733333,6.13333333 5.912,6.19333333 5.648,6.31333333 C5.384,6.43333333 5.16133333,6.59866667 4.98,6.80933333 C4.79866667,7.02 4.66133333,7.26666667 4.568,7.54933333 C4.47466667,7.832 4.428,8.136 4.428,8.46133333 C4.428,8.78133333 4.476,9.08266667 4.572,9.36533333 C4.668,9.648 4.80533333,9.89466667 4.984,10.1053333 C5.16266667,10.316 5.384,10.4826667 5.648,10.6053333 C5.912,10.728 6.212,10.7893333 6.548,10.7893333 Z M11.356,10.7893333 C11.7133333,10.7893333 12.0266667,10.7266667 12.296,10.6013333 C12.5653333,10.476 12.7906667,10.308 12.972,10.0973333 C13.1533333,9.88666667 13.288,9.64 13.376,9.35733333 C13.464,9.07466667 13.508,8.776 13.508,8.46133333 C13.508,8.152 13.464,7.85733333 13.376,7.57733333 C13.288,7.29733333 13.1546667,7.05066667 12.976,6.83733333 C12.7973333,6.624 12.5733333,6.45333333 12.304,6.32533333 C12.0346667,6.19733333 11.7186667,6.13333333 11.356,6.13333333 C10.9933333,6.13333333 10.6773333,6.19733333 10.408,6.32533333 C10.1386667,6.45333333 9.91333333,6.62533333 9.732,6.84133333 C9.55066667,7.05733333 9.416,7.30533333 9.328,7.58533333 C9.24,7.86533333 9.196,8.15733333 9.196,8.46133333 C9.196,8.77066667 9.24133333,9.06666667 9.332,9.34933333 C9.42266667,9.632 9.55733333,9.88 9.736,10.0933333 C9.91466667,10.3066667 10.1386667,10.476 10.408,10.6013333 C10.6773333,10.7266667 10.9933333,10.7893333 11.356,10.7893333 Z M11.356,10.0533333 C11.1533333,10.0533333 10.9733333,10.0146667 10.816,9.93733333 C10.6586667,9.86 10.5253333,9.752 10.416,9.61333333 C10.3066667,9.47466667 10.2226667,9.30666667 10.164,9.10933333 C10.1053333,8.912 10.076,8.696 10.076,8.46133333 C10.076,8.22666667 10.1066667,8.012 10.168,7.81733333 C10.2293333,7.62266667 10.316,7.456 10.428,7.31733333 C10.54,7.17866667 10.6746667,7.072 10.832,6.99733333 C10.9893333,6.92266667 11.164,6.88533333 11.356,6.88533333 C11.7506667,6.88533333 12.0626667,7.028 12.292,7.31333333 C12.5213333,7.59866667 12.636,7.98133333 12.636,8.46133333 C12.636,8.696 12.608,8.912 12.552,9.10933333 C12.496,9.30666667 12.4133333,9.47466667 12.304,9.61333333 C12.1946667,9.752 12.0613333,9.86 11.904,9.93733333 C11.7466667,10.0146667 11.564,10.0533333 11.356,10.0533333 Z" id="ico" fill="#D0DAFF" fill-rule="nonzero"></path>
                        </g>
                    </g>
                    <g id="纸盒" transform="translate(11.333333, 26.333333)">
                        <polygon id="矩形备份-6" fill="#E8EEFF" transform="translate(9.333333, 16.000000) scale(1, -1) translate(-9.333333, -16.000000) " points="2.33333333 6.66666667 16.3333333 12.6175232 16.3333333 25.3333333 2.33333333 19.6577166"></polygon>
                        <polygon id="矩形备份-6" fill="#C8D4FF" transform="translate(9.333333, 16.333333) scale(1, -1) translate(-9.333333, -16.333333) " points="2.33333333 7 16.3333333 12.9508565 16.3333333 25.6666667 2.33333333 19.99105"></polygon>
                        <polygon id="矩形备份-7" fill="#E3E9FF" transform="translate(23.500000, 16.000000) scale(-1, -1) translate(-23.500000, -16.000000) " points="16.3333333 6.66666667 30.6666667 12.6175232 30.6666667 25.3333333 16.3333333 19.6577166"></polygon>
                        <polygon id="矩形备份-7" fill="#CFDAFF" transform="translate(23.500000, 16.333333) scale(-1, -1) translate(-23.500000, -16.333333) " points="16.3333333 7 30.6666667 12.9508565 30.6666667 25.6666667 16.3333333 19.99105"></polygon>
                        <polygon id="矩形" fill="#CED9FF" points="2.33333333 12.3333333 16.3333333 19.067118 16.3333333 35 2.33333333 27.033559"></polygon>
                        <g id="编组-8" transform="translate(16.849842, 11.814999) rotate(-6.000000) translate(-16.849842, -11.814999) translate(6.349842, 1.314999)" stroke-linecap="round">
                            <path d="M20.6371787,10.3333333 C15.5586118,11.5588256 12.9017745,14.9207542 12.6666667,20.4191192" id="路径-21" stroke="url(#linearGradient-18)"></path>
                            <path d="M14.6648226,1.7184006 C12.336044,3.1636558 11.1144365,5.50833977 11,8.75245251" id="路径-21备份-2" stroke="url(#linearGradient-19)"></path>
                            <path d="M19.3757877,4.33333333 C13.3603704,8.42402571 10.2351078,13.2185544 10,18.7169194" id="路径-21备份" stroke="url(#linearGradient-20)"></path>
                            <path d="M-1.77635684e-14,8 C4.09996887,9.96074313 6.31150273,13.5584891 6.63460159,18.793238" id="路径-22" stroke="url(#linearGradient-21)"></path>
                            <path d="M2.33333333,3.19744231e-14 C2.33333333,3.19744231e-14 8.37834626,3.18862939 8.73785208,12.7137686" id="路径-22备份" stroke="url(#linearGradient-22)"></path>
                        </g>
                        <polygon id="矩形" fill="#C2CEFC" opacity="0.504092262" points="2.33333333 12.3333333 16.3333333 19.067118 16.3333333 30.1851204 2.33333333 22.2186794"></polygon>
                        <polygon id="矩形备份-5" fill="url(#linearGradient-23)" transform="translate(23.500000, 23.666667) scale(-1, 1) translate(-23.500000, -23.666667) " points="16.3333333 12.3333333 30.6666667 19.067118 30.6666667 35 16.3333333 27.033559"></polygon>
                        <polygon id="矩形" fill="#BBC9FF" opacity="0.700404576" transform="translate(23.500000, 24.333333) scale(-1, 1) translate(-23.500000, -24.333333) " points="16.3333333 13.6666667 30.6666667 19.067118 30.6666667 35 16.3333333 27.033559"></polygon>
                        <g id="编组-7" transform="translate(0.000000, 12.333333)">
                            <path d="M2.33333333,-1.13686838e-13 L16.3548635,6.7159357 C16.1801768,7.91182683 15.8396667,9.15945782 15.3333333,10.4588287 C14.8269999,11.7581995 14.1813169,13.0497011 13.3962841,14.3333333 L13.1403883,14.4429579 L0.333333333,6.7159357 C0.798603732,5.9944384 1.22356563,5.05219171 1.60821903,3.88919564 C1.8590352,3.1308552 2.03368695,1.90771979 2.13217428,0.219789418 L2.33333333,-1.13686838e-13 Z" id="矩形" fill="url(#linearGradient-24)"></path>
                            <path d="M2.13217428,0.219789418 L16.0215301,7.04926903 C15.8468434,8.24516016 15.5063334,9.49279115 15,10.792162 C14.4936666,12.0915328 13.873796,13.3084648 13.1403883,14.4429579 L-3.12638804e-13,7.04926903 C0.465270398,6.32777174 0.890232297,5.38552505 1.2748857,4.22252897 C1.65953909,3.05953289 1.94530196,1.72528637 2.13217428,0.219789418 Z" id="矩形" fill="#E4EAFF"></path>
                        </g>
                        <g id="编组-7" transform="translate(24.500000, 19.500000) scale(-1, 1) translate(-24.500000, -19.500000) translate(16.000000, 12.000000)">
                            <path d="M2.51977543,0.267604508 L16.6881968,7.04926903 C16.5135101,8.24516016 16.1730001,9.49279115 15.6666667,10.792162 C15.1603333,12.0915328 14.5404627,13.3084648 13.807055,14.4429579 L13.4737217,14.4429579 L0.666666667,7.04926903 C1.13193706,6.32777174 1.55689896,5.38552505 1.94155236,4.22252897 C2.19355939,3.460588 2.21304194,2.16418945 2,0.333333333 L2.51977543,0.267604508 Z" id="矩形" fill="url(#linearGradient-25)"></path>
                            <path d="M2,0.333333333 L16.3333333,7.3881456 C16.188822,8.4119116 15.8633996,9.57348002 15.3570662,10.8728509 C14.8507328,12.1722217 14.2229513,13.3622574 13.4737217,14.4429579 L0,7.04926903 C0.465270398,6.32777174 0.890232297,5.38552505 1.2748857,4.22252897 C1.65953909,3.05953289 1.90124386,1.76313435 2,0.333333333 Z" id="矩形" fill="#D4DDFD"></path>
                        </g>
                    </g>
                </g>
            </g>
        </g>
    </g>
</svg>