<?xml version="1.0" encoding="UTF-8"?>
<svg width="120px" height="120px" viewBox="0 0 120 120" version="1.1" xmlns="http://www.w3.org/2000/svg" xmlns:xlink="http://www.w3.org/1999/xlink">
    <!-- Generator: Sketch 60 (88103) - https://sketch.com -->
    <title>快应用已下架配图</title>
    <desc>Created with Sketch.</desc>
    <defs>
        <circle id="path-1" cx="60" cy="60" r="60"></circle>
        <linearGradient x1="50%" y1="0%" x2="50%" y2="100%" id="linearGradient-3">
            <stop stop-color="#B0C2FF" offset="0%"></stop>
            <stop stop-color="#EDF1FF" offset="100%"></stop>
        </linearGradient>
        <linearGradient x1="100%" y1="72.3811506%" x2="22.5097915%" y2="41.9692034%" id="linearGradient-4">
            <stop stop-color="#EFF3FF" offset="0%"></stop>
            <stop stop-color="#D6DFFF" offset="30.8638867%"></stop>
            <stop stop-color="#D0DAFF" offset="100%"></stop>
        </linearGradient>
        <linearGradient x1="100%" y1="72.3811506%" x2="-2.87571457%" y2="30.2231197%" id="linearGradient-5">
            <stop stop-color="#EFF3FF" offset="0%"></stop>
            <stop stop-color="#D6DFFF" offset="46.6204058%"></stop>
            <stop stop-color="#D0DAFF" offset="100%"></stop>
        </linearGradient>
        <linearGradient x1="100%" y1="68.4162572%" x2="22.5097915%" y2="43.3918851%" id="linearGradient-6">
            <stop stop-color="#EFF3FF" offset="0%"></stop>
            <stop stop-color="#D6DFFF" offset="30.8638867%"></stop>
            <stop stop-color="#D0DAFF" offset="100%"></stop>
        </linearGradient>
        <linearGradient x1="50%" y1="0%" x2="50%" y2="100%" id="linearGradient-7">
            <stop stop-color="#D0DAFF" offset="0%"></stop>
            <stop stop-color="#FFFFFF" offset="100%"></stop>
        </linearGradient>
        <linearGradient x1="50%" y1="0%" x2="50%" y2="100%" id="linearGradient-8">
            <stop stop-color="#D0DAFF" offset="0%"></stop>
            <stop stop-color="#FFFFFF" offset="100%"></stop>
        </linearGradient>
        <linearGradient x1="50%" y1="0%" x2="50%" y2="100%" id="linearGradient-9">
            <stop stop-color="#D0DAFF" offset="0%"></stop>
            <stop stop-color="#FFFFFF" offset="100%"></stop>
        </linearGradient>
        <linearGradient x1="50%" y1="0%" x2="50%" y2="100%" id="linearGradient-10">
            <stop stop-color="#FFFFFF" offset="0%"></stop>
            <stop stop-color="#D0DAFF" offset="100%"></stop>
        </linearGradient>
    </defs>
    <g id="引擎组件" stroke="none" stroke-width="1" fill="none" fill-rule="evenodd">
        <g id="快应用已下架配图">
            <mask id="mask-2" fill="white">
                <use xlink:href="#path-1"></use>
            </mask>
            <use id="蒙版" fill="#D0DAFF" xlink:href="#path-1"></use>
            <ellipse id="椭圆形" fill="#EDF1FF" mask="url(#mask-2)" cx="63.5" cy="107" rx="69.5" ry="49"></ellipse>
            <ellipse id="椭圆形" fill="#E1E7FF" mask="url(#mask-2)" cx="90.5" cy="87.5" rx="8.5" ry="5.5"></ellipse>
            <circle id="椭圆形" fill="#D0DAFF" opacity="0.644554501" mask="url(#mask-2)" transform="translate(30.524777, 60.416354) rotate(14.000000) translate(-30.524777, -60.416354) " cx="30.5247772" cy="60.4163537" r="3"></circle>
            <ellipse id="椭圆形备份-24" fill="#E1E7FF" mask="url(#mask-2)" cx="40.5" cy="114.5" rx="13.5" ry="8.5"></ellipse>
            <ellipse id="椭圆形备份-22" fill="#E1E7FF" mask="url(#mask-2)" cx="31" cy="71.5" rx="4" ry="2.5"></ellipse>
            <ellipse id="椭圆形" fill="#D5DEFF" mask="url(#mask-2)" cx="90.5" cy="88.3333333" rx="6.5" ry="4.33333333"></ellipse>
            <ellipse id="椭圆形备份-25" fill="#D5DEFF" mask="url(#mask-2)" cx="40.5" cy="116.5" rx="9.5" ry="6.5"></ellipse>
            <ellipse id="椭圆形备份-23" fill="#D5DEFF" mask="url(#mask-2)" cx="31" cy="72" rx="3" ry="2"></ellipse>
            <g id="编组-3" mask="url(#mask-2)">
                <g transform="translate(2.000000, -2.000000)">
                    <circle id="椭圆形" fill="#D9E2FF" cx="24" cy="14" r="14"></circle>
                    <path d="M30.6748433,21.1984232 C29.4884053,22.13926 29.075982,23.0246703 27.8779177,23.4771878 C26.6798533,23.9297054 25.1835571,25.8203074 23.7667533,26.2323608 C22.7180542,26.5373572 20.2196459,26.8114164 18.7071838,26.9332367 C17.8412273,26.5823542 17.0182386,26.1493395 16.2469705,25.6444817 C17.6355345,25.6924895 18.7511212,25.628564 19.5946629,25.4522115 C21.066895,25.1444239 23.7438088,25.5607662 25.0395975,24.2071917 C26.3353861,22.8536171 28.0090288,22.255457 29.3296007,21.4360413 C30.0555962,20.9855606 30.815666,20.4576315 31.4019917,19.9516353 C31.8821813,19.5372341 32.2365852,19.104702 32.438097,19.0176936 C32.8856608,18.8244455 31.8612812,20.2575863 30.6748433,21.1984232 Z" id="形状结合" fill="#D1DCFF"></path>
                    <circle id="椭圆形备份" fill="#EDF1FF" cx="93" cy="19" r="1"></circle>
                    <circle id="椭圆形备份-11" fill="#EDF1FF" cx="41.5" cy="16.5" r="1"></circle>
                    <circle id="椭圆形备份-7" fill="#EDF1FF" cx="57.5" cy="5.5" r="1"></circle>
                    <circle id="椭圆形备份-10" fill="#EDF1FF" cx="0.5" cy="54.5" r="1"></circle>
                    <circle id="椭圆形备份-8" fill="#EDF1FF" cx="24.25" cy="14.25" r="1"></circle>
                    <circle id="椭圆形备份-12" fill="#EDF1FF" cx="34.25" cy="14.25" r="1"></circle>
                    <circle id="椭圆形备份-9" fill="#EDF1FF" cx="12.25" cy="24.25" r="1"></circle>
                    <circle id="椭圆形备份-13" fill="#EDF1FF" cx="9.25" cy="46.25" r="1"></circle>
                    <circle id="椭圆形备份-14" fill="#EDF1FF" cx="10.25" cy="61.25" r="1"></circle>
                    <circle id="椭圆形备份-17" fill="#EDF1FF" cx="44.25" cy="66.25" r="1"></circle>
                    <circle id="椭圆形备份-6" fill="#EDF1FF" cx="91.5" cy="40.5" r="1"></circle>
                    <circle id="椭圆形备份-18" fill="#F0F4FF" cx="108.5" cy="78.5" r="1"></circle>
                    <circle id="椭圆形备份-2" fill="#EDF1FF" cx="112.25" cy="39.25" r="1"></circle>
                    <circle id="椭圆形备份-3" fill="#EDF1FF" cx="107.25" cy="36.25" r="1"></circle>
                    <circle id="椭圆形备份-4" fill="#EDF1FF" cx="82.25" cy="29.25" r="1"></circle>
                    <circle id="椭圆形备份-15" fill="#EDF1FF" cx="114.25" cy="55.25" r="1"></circle>
                    <circle id="椭圆形备份-26" fill="#D0DAFF" opacity="0.635974702" cx="109" cy="71" r="2"></circle>
                    <circle id="椭圆形备份-27" fill="#D0DAFF" opacity="0.27780878" cx="63" cy="104" r="2"></circle>
                    <circle id="椭圆形备份-28" fill="#D0DAFF" opacity="0.27780878" cx="38" cy="73" r="1"></circle>
                    <circle id="椭圆形备份-16" fill="#EDF1FF" cx="110.25" cy="63.25" r="1"></circle>
                    <circle id="椭圆形备份-19" fill="#DCE4FF" cx="95.25" cy="88.25" r="1"></circle>
                    <circle id="椭圆形备份-5" fill="#EDF1FF" cx="62.25" cy="11.25" r="1"></circle>
                    <circle id="椭圆形备份-20" fill="#EDF1FF" cx="61.25" cy="33.25" r="1"></circle>
                    <circle id="椭圆形备份-21" fill="#EDF1FF" cx="44.25" cy="28.25" r="1"></circle>
                    <circle id="椭圆形备份-21" fill="#EDF1FF" cx="39.25" cy="51.25" r="1"></circle>
                    <path d="M28.7349938,18.7122629 C19.8537712,24.3149424 12.7463557,26.3832126 11.7006858,25.9426533 C11.0035726,25.6489472 10.8266285,25.1227311 11.1698536,24.3640051 L11.371614,24.1246799 C10.8575465,24.9654081 11.0092959,25.4876062 11.8268625,25.6912744 C13.0532123,25.9967766 20.1346829,22.9569137 27.1681409,18.5126177 C33.109319,14.7585106 34.9118251,12.5919605 36.6798378,10.4316253 C37.7947563,9.06930594 38.5767332,7.47691757 38.6405567,6.96602037 C38.7227056,6.30843238 38.2652448,6.01242734 37.2681744,6.07800525 C38.142246,5.8741562 38.7038296,6.06984213 38.9529252,6.66506304 C39.3265686,7.5578944 37.6162164,13.1095833 28.7349938,18.7122629 Z" id="路径-14" fill="#E4EAFF"></path>
                    <path d="M36.4978901,7 C35.9127808,8.0207135 35.4899695,8.66769174 35.2294563,8.94093472 C34.8386866,9.35079918 34.5622941,9.47849406 34.1251665,10.058061 C33.6880388,10.6376279 33.3194672,10.6854531 32.8887491,11.1000148 C32.458031,11.5145766 31.7966522,11.4231083 31.3349304,12.0354547 C30.8732086,12.6478011 30.1308884,13.0990332 29.6507193,13.6475456 C29.1705502,14.1960579 27.9504286,14.8433996 27.3841391,15.3632203 C26.8178496,15.883041 24.8802163,17 25.0058371,17 C25.1314579,17 28.4762907,15.419686 28.922003,15.1283335 C29.3677153,14.836981 30.1176165,14.3379756 30.5475518,13.8362215 C30.9774871,13.3344674 31.5845461,12.8442317 31.8222228,12.6865224 C32.0598996,12.528813 33.3901353,12.0421602 33.6862677,11.658054 C33.9824,11.2739478 34.5649975,10.6530508 34.9783099,10.4972403 C35.3916224,10.3414299 36.2058242,9.32674855 36.4477011,9.0259932 C36.6089523,8.82548964 36.793052,8.5088625 37,8.07611178 C36.8937106,7.82823878 36.8051857,7.62613882 36.7344252,7.46981191 C36.6636648,7.31348499 36.5848198,7.15688102 36.4978901,7 Z" id="路径-15" fill="#D1DCFF"></path>
                    <path d="M13.0556936,22.7500419 C14.3651601,22.1521313 15.2000409,21.8087155 15.5603359,21.7197947 C16.1029701,21.5858727 16.9395125,21.2158942 17.3746484,21.1339308 C17.8097842,21.0519674 19.4494482,20.414108 19.8548565,20.3080789 C20.2602647,20.2020497 20.8905262,19.9172602 21.1298907,19.734606 C21.2968885,19.6071734 21.586925,19.3623047 22,19 C21.7208732,19.3646829 21.4308368,19.676247 21.1298907,19.9346923 C20.6784716,20.3223602 20.3154035,20.3223602 19.8548565,20.5949089 C19.3943094,20.8674576 18.5270394,21.0820172 18.1802206,21.2270032 C17.8334018,21.3719893 16.9519652,21.787829 16.4794584,22.1447527 C16.1644538,22.3827018 15.3148172,22.9184785 13.9305483,23.7520829 C13.7170657,23.5208442 13.5530337,23.3322542 13.4384524,23.186313 C13.3238711,23.0403717 13.1962848,22.894948 13.0556936,22.7500419 Z" id="路径-20" fill="#D1DCFF"></path>
                </g>
            </g>
            <path d="M53.5,86.25 C62,85.25 77.5497514,85.0898078 83.5639203,85.0898078 C80.2009393,81.4885382 76.6796326,77.6569336 73,73.5949941 L43.771362,75.2994667 C44.1259389,75.7664889 47.3688183,79.4166667 53.5,86.25 Z" id="路径-3" fill="url(#linearGradient-3)" mask="url(#mask-2)"></path>
            <line x1="49" y1="24" x2="70.5639203" y2="37.5619334" id="路径-24" stroke="url(#linearGradient-4)" stroke-width="0.2" mask="url(#mask-2)"></line>
            <line x1="63.5639203" y1="27.7375107" x2="85.1278405" y2="41.2994441" id="路径-24备份" stroke="url(#linearGradient-4)" stroke-width="0.2" mask="url(#mask-2)"></line>
            <line x1="4.56392027" y1="49.7375107" x2="26.1278405" y2="63.2994441" id="路径-24备份-5" stroke="url(#linearGradient-4)" stroke-width="0.2" opacity="0.486351376" mask="url(#mask-2)"></line>
            <line x1="62" y1="23" x2="83.5639203" y2="36.5619334" id="路径-24备份-2" stroke="url(#linearGradient-5)" stroke-width="0.2" mask="url(#mask-2)"></line>
            <line x1="3" y1="45" x2="24.5639203" y2="58.5619334" id="路径-24备份-6" stroke="url(#linearGradient-4)" stroke-width="0.2" opacity="0.486351376" mask="url(#mask-2)"></line>
            <line x1="100.739715" y1="54.6880666" x2="111.803635" y2="61" id="路径-24备份-3" stroke="url(#linearGradient-6)" stroke-width="0.2" mask="url(#mask-2)"></line>
            <line x1="104" y1="61" x2="115.06392" y2="67.3119334" id="路径-24备份-4" stroke="url(#linearGradient-6)" stroke-width="0.2" mask="url(#mask-2)"></line>
            <path d="M47,29 L69,29 C71.209139,29 73,30.790861 73,33 L73,73 C73,75.209139 71.209139,77 69,77 L47,77 C44.790861,77 43,75.209139 43,73 L43,33 C43,30.790861 44.790861,29 47,29 Z" id="矩形" fill="#BBCAFF" mask="url(#mask-2)"></path>
            <path d="M48,32 L68,32 C69.1045695,32 70,32.8954305 70,34 L70,68 L70,68 L46,68 L46,34 C46,32.8954305 46.8954305,32 48,32 Z" id="矩形" fill="#EDF1FF" mask="url(#mask-2)"></path>
            <circle id="椭圆形" fill="#EDF1FF" mask="url(#mask-2)" cx="58" cy="72" r="2"></circle>
            <rect id="矩形" fill="#D0DAFF" mask="url(#mask-2)" x="53.5" y="40" width="9" height="9" rx="2"></rect>
            <rect id="矩形备份-6" fill="#D5DEFF" mask="url(#mask-2)" x="50.5" y="59" width="15" height="4" rx="2"></rect>
            <rect id="矩形备份-7" fill="#D5DEFF" mask="url(#mask-2)" x="55" y="30" width="5" height="1" rx="0.5"></rect>
            <path d="M56.9435534,42.7264466 L58.004,43.787 L59.0648737,42.7264466 C59.2601359,42.5311845 59.5767184,42.5311845 59.7719805,42.7264466 C59.9672427,42.9217088 59.9672427,43.2382912 59.7719805,43.4335534 L58.711,44.494 L59.7719805,45.5548737 C59.9672427,45.7501359 59.9672427,46.0667184 59.7719805,46.2619805 C59.5767184,46.4572427 59.2601359,46.4572427 59.0648737,46.2619805 L58.004,45.201 L56.9435534,46.2619805 C56.7482912,46.4572427 56.4317088,46.4572427 56.2364466,46.2619805 C56.0411845,46.0667184 56.0411845,45.7501359 56.2364466,45.5548737 L57.297,44.494 L56.2364466,43.4335534 C56.0411845,43.2382912 56.0411845,42.9217088 56.2364466,42.7264466 C56.4317088,42.5311845 56.7482912,42.5311845 56.9435534,42.7264466 Z" id="路径" fill="#F7F9FF" mask="url(#mask-2)"></path>
            <path d="M40.751341,52.8586606 C33.6295377,53.6767349 29,55.0030027 29,56.5 C29,58.9852814 41.7598846,61 57.5,61 C73.2401154,61 86,58.9852814 86,56.5 C86,55.0599605 81.7160499,53.7779058 75.0506292,52.9542274" id="路径" stroke="url(#linearGradient-7)" stroke-width="0.2" opacity="0.530598958" mask="url(#mask-2)"></path>
            <path d="M40.7236361,50.5386159 C37.7681491,51.1066224 36,51.8279217 36,52.6129227 C36,54.444524 45.6258779,55.9293303 57.5,55.9293303 C69.3741221,55.9293303 79,54.444524 79,52.6129227 C79,51.8789143 77.4541031,51.2006005 74.8371276,50.6512227" id="路径" stroke="url(#linearGradient-8)" stroke-width="0.2" opacity="0.530598958" mask="url(#mask-2)"></path>
            <path d="M36.6376353,57.0706697 C27.7666171,58.0755097 22,59.7045633 22,61.5433237 C22,64.5959926 37.8938914,67.0706697 57.5,67.0706697 C77.1061086,67.0706697 93,64.5959926 93,61.5433237 C93,59.7745245 87.6638517,58.1997779 79.36131,57.1880544" id="路径备份" stroke="url(#linearGradient-9)" stroke-width="0.2" opacity="0.530598958" mask="url(#mask-2)"></path>
            <polygon id="路径-25" fill="#FFFFFF" mask="url(#mask-2)" transform="translate(84.044471, 23.722497) rotate(-4.000000) translate(-84.044471, -23.722497) " points="81.9940287 21.1712894 86.0949141 24.9088001 84.0444714 26.273704"></polygon>
            <polygon id="路径-26" fill="#FFFFFF" mask="url(#mask-2)" transform="translate(85.037240, 22.849912) rotate(-4.000000) translate(-85.037240, -22.849912) " points="81.9355786 21.0999118 88.1389016 24.0999118 86.206932 24.5999118"></polygon>
            <polygon id="路径-27" fill="#E4EAFF" mask="url(#mask-2)" transform="translate(84.105561, 23.374234) rotate(-4.000000) translate(-84.105561, -23.374234) " points="86.2412373 24.6661797 86.2412373 25.5822885 85.7371252 25.1242341 86.0707693 24.9036904 81.969884 21.1661797"></polygon>
            <path d="M87.5267104,25.7817753 C89.953559,27.9752549 91.1669833,30.5395293 91.1669833,33.4745986 C91.1669833,36.4096679 89.1506045,39.9258809 85.1178469,44.0232377" id="路径-28" stroke="url(#linearGradient-10)" stroke-width="0.2" mask="url(#mask-2)" transform="translate(88.142415, 34.902507) rotate(-4.000000) translate(-88.142415, -34.902507) "></path>
        </g>
    </g>
</svg>