<?xml version="1.0" encoding="UTF-8"?>
<svg width="24px" height="24px" viewBox="0 0 24 24" version="1.1" xmlns="http://www.w3.org/2000/svg" xmlns:xlink="http://www.w3.org/1999/xlink">
    <!-- Generator: Sketch 60 (88103) - https://sketch.com -->
    <title>hdpi/搜索框-搜索</title>
    <desc>Created with Sketch.</desc>
    <g id="引擎组件" stroke="none" stroke-width="1" fill="none" fill-rule="evenodd">
        <g id="搜索框-搜索">
            <g id="Search">
                <rect id="Rectangle" x="0" y="0" width="24" height="24"></rect>
                <path d="M11.0833333,5.58333333 C14.1208995,5.58333333 16.5833333,8.04576721 16.5833333,11.0833333 C16.5833333,12.2028699 16.2488383,13.244281 15.6743368,14.113078 L18.2910543,16.7293133 C18.6490349,17.0872939 18.6490349,17.6676951 18.2910543,18.0256757 C17.9330737,18.3836563 17.3526725,18.3836563 16.9946919,18.0256757 L14.4227101,15.4538826 C13.4968319,16.1623849 12.3392415,16.5833333 11.0833333,16.5833333 C8.04576721,16.5833333 5.58333333,14.1208995 5.58333333,11.0833333 C5.58333333,8.04576721 8.04576721,5.58333333 11.0833333,5.58333333 Z M11.0833333,7.41666667 C9.05828925,7.41666667 7.41666667,9.05828925 7.41666667,11.0833333 C7.41666667,13.1083774 9.05828925,14.75 11.0833333,14.75 C13.1083774,14.75 14.75,13.1083774 14.75,11.0833333 C14.75,9.05828925 13.1083774,7.41666667 11.0833333,7.41666667 Z" id="Shape" fill="#C0C0C0"></path>
            </g>
        </g>
    </g>
</svg>