<?xml version="1.0" encoding="UTF-8"?>
<svg width="16px" height="16px" viewBox="0 0 16 16" version="1.1" xmlns="http://www.w3.org/2000/svg" xmlns:xlink="http://www.w3.org/1999/xlink">
    <!-- Generator: Sketch 60 (88103) - https://sketch.com -->
    <title>步骤条-异常</title>
    <desc>Created with Sketch.</desc>
    <g id="引擎组件" stroke="none" stroke-width="1" fill="none" fill-rule="evenodd">
        <g id="步骤条-异常">
            <circle id="椭圆形备份" fill="#F19E38" transform="translate(8.000000, 8.000000) rotate(-270.000000) translate(-8.000000, -8.000000) " cx="8" cy="8" r="8"></circle>
            <path d="M11.824005,5.02577387 L8.8497789,8 L11.824005,10.9742261 C12.058665,11.2088861 12.058665,11.5893451 11.824005,11.824005 C11.5893451,12.058665 11.2088861,12.058665 10.9742261,11.824005 L8,8.8497789 L5.02577387,11.824005 C4.7911139,12.058665 4.41065493,12.058665 4.17599497,11.824005 C3.94133501,11.5893451 3.94133501,11.2088861 4.17599497,10.9742261 L7.1502211,8 L4.17599497,5.02577387 C3.94133501,4.7911139 3.94133501,4.41065493 4.17599497,4.17599497 C4.41065493,3.94133501 4.7911139,3.94133501 5.02577387,4.17599497 L8,7.1502211 L10.9742261,4.17599497 C11.2088861,3.94133501 11.5893451,3.94133501 11.824005,4.17599497 C12.058665,4.41065493 12.058665,4.7911139 11.824005,5.02577387 Z" id="Path" fill="#FFFFFF"></path>
        </g>
    </g>
</svg>