<?xml version="1.0" encoding="UTF-8"?>
<svg width="16px" height="16px" viewBox="0 0 16 16" version="1.1" xmlns="http://www.w3.org/2000/svg" xmlns:xlink="http://www.w3.org/1999/xlink">
    <!-- Generator: Sketch 60 (88103) - https://sketch.com -->
    <title>hdpi/占位图标3-未选中</title>
    <desc>Created with Sketch.</desc>
    <g id="引擎组件" stroke="none" stroke-width="1" fill="none" fill-rule="evenodd">
        <g id="占位图标3-未选中">
            <g id="默认">
                <rect id="Rectangle" x="0" y="0" width="16" height="16"></rect>
                <path d="M8,1.33333333 C11.6818983,1.33333333 14.6666667,4.31810167 14.6666667,8 C14.6666667,11.6818983 11.6818983,14.6666667 8,14.6666667 C4.31810167,14.6666667 1.33333333,11.6818983 1.33333333,8 C1.33333333,4.31810167 4.31810167,1.33333333 8,1.33333333 Z M8,2.22222222 C4.80902145,2.22222222 2.22222222,4.80902145 2.22222222,8 C2.22222222,11.1909786 4.80902145,13.7777778 8,13.7777778 C11.1909786,13.7777778 13.7777778,11.1909786 13.7777778,8 C13.7777778,4.80902145 11.1909786,2.22222222 8,2.22222222 Z M7.39574468,6.66666667 C7.76170213,6.66666667 8.04822695,6.80168776 8.23262411,7.0686613 C8.32340426,7.19447641 8.37163121,7.30801688 8.40851064,7.48906789 L7.82411348,7.61181435 C7.77021277,7.33256617 7.61985816,7.19447641 7.37588652,7.19447641 C7.02978723,7.19447641 6.82836879,7.48906789 6.82836879,7.99539701 C6.82836879,8.4955888 7.03829787,8.79938627 7.39007092,8.79938627 C7.54609929,8.79938627 7.67943262,8.72880706 7.76170213,8.60606061 C7.80992908,8.53241273 7.82978723,8.47103951 7.84680851,8.34215573 L8.43687943,8.43728423 C8.38297872,8.69812044 8.32056738,8.84848485 8.20141844,8.99884925 C8.02553191,9.2167242 7.75035461,9.33333333 7.4070922,9.33333333 C7.06099291,9.33333333 6.76879433,9.2167242 6.56737589,8.99578059 C6.35744681,8.76563099 6.23829787,8.40659762 6.23829787,7.99539701 C6.23829787,7.57805907 6.35744681,7.22516302 6.58156028,6.98580744 C6.77730496,6.78020713 7.06382979,6.66666667 7.39574468,6.66666667 Z M9.78156028,6.66666667 C10.4794326,6.66666667 10.9248227,7.18220176 10.9248227,7.98619102 C10.9248227,8.79631761 10.4680851,9.33333333 9.7787234,9.33333333 C9.08368794,9.33333333 8.63546099,8.80859225 8.63546099,7.99539701 C8.63546099,7.18527043 9.08368794,6.66666667 9.78156028,6.66666667 Z M5.95744681,6.72190257 C5.94042553,6.84771768 5.93475177,6.95205217 5.93475177,7.17606444 L5.93475177,8.8208669 C5.93475177,9.03260453 5.94042553,9.14614499 5.95744681,9.27502877 L5.33333333,9.27502877 C5.35035461,9.15535098 5.35602837,9.0264672 5.35602837,8.8208669 L5.35602837,7.17606444 C5.35602837,6.94591484 5.35035461,6.85692367 5.33333333,6.72190257 L5.95744681,6.72190257 Z M9.78156028,7.19447641 C9.43546099,7.19447641 9.22269504,7.49827388 9.22269504,7.99232835 C9.22269504,8.49252014 9.43546099,8.80245493 9.78156028,8.80245493 C10.1248227,8.80245493 10.3347518,8.4955888 10.3347518,7.99232835 C10.3347518,7.49520522 10.1248227,7.19447641 9.78156028,7.19447641 Z" id="Combined-Shape" fill="#000000"></path>
            </g>
        </g>
    </g>
</svg>