<?xml version="1.0" encoding="UTF-8"?>
<svg width="24px" height="24px" viewBox="0 0 24 24" version="1.1" xmlns="http://www.w3.org/2000/svg" xmlns:xlink="http://www.w3.org/1999/xlink">
    <!-- Generator: Sketch 60 (88103) - https://sketch.com -->
    <title>hdpi/占位图标3-选中</title>
    <desc>Created with Sketch.</desc>
    <g id="引擎组件" stroke="none" stroke-width="1" fill="none" fill-rule="evenodd">
        <g id="占位图标3-选中">
            <rect id="Rectangle" x="0" y="0" width="24" height="24"></rect>
            <path d="M12,2 C17.5228475,2 22,6.4771525 22,12 C22,17.5228475 17.5228475,22 12,22 C6.4771525,22 2,17.5228475 2,12 C2,6.4771525 6.4771525,2 12,2 Z M12,3.33333333 C7.21353217,3.33333333 3.33333333,7.21353217 3.33333333,12 C3.33333333,16.7864678 7.21353217,20.6666667 12,20.6666667 C16.7864678,20.6666667 20.6666667,16.7864678 20.6666667,12 C20.6666667,7.21353217 16.7864678,3.33333333 12,3.33333333 Z M11.093617,10 C11.6425532,10 12.0723404,10.2025316 12.3489362,10.6029919 C12.4851064,10.7917146 12.5574468,10.9620253 12.612766,11.2336018 L11.7361702,11.4177215 C11.6553191,10.9988493 11.4297872,10.7917146 11.0638298,10.7917146 C10.5446809,10.7917146 10.2425532,11.2336018 10.2425532,11.9930955 C10.2425532,12.7433832 10.5574468,13.1990794 11.0851064,13.1990794 C11.3191489,13.1990794 11.5191489,13.0932106 11.6425532,12.9090909 C11.7148936,12.7986191 11.7446809,12.7065593 11.7702128,12.5132336 L12.6553191,12.6559264 C12.5744681,13.0471807 12.4808511,13.2727273 12.3021277,13.4982739 C12.0382979,13.8250863 11.6255319,14 11.1106383,14 C10.5914894,14 10.1531915,13.8250863 9.85106383,13.4936709 C9.53617021,13.1484465 9.35744681,12.6098964 9.35744681,11.9930955 C9.35744681,11.3670886 9.53617021,10.8377445 9.87234043,10.4787112 C10.1659574,10.1703107 10.5957447,10 11.093617,10 Z M14.6723404,10 C15.7191489,10 16.387234,10.7733026 16.387234,11.9792865 C16.387234,13.1944764 15.7021277,14 14.6680851,14 C13.6255319,14 12.9531915,13.2128884 12.9531915,11.9930955 C12.9531915,10.7779056 13.6255319,10 14.6723404,10 Z M8.93617021,10.0828539 C8.91489362,10.2401227 8.90543735,10.375016 8.90287628,10.6100669 L8.90212766,13.2313003 C8.90212766,13.5489068 8.9106383,13.7192175 8.93617021,13.9125432 L8,13.9125432 C8.02553191,13.7330265 8.03404255,13.5397008 8.03404255,13.2313003 L8.03404255,10.7640967 C8.03404255,10.4188723 8.02553191,10.2853855 8,10.0828539 L8.93617021,10.0828539 Z M14.6723404,10.7917146 C14.1531915,10.7917146 13.8340426,11.2474108 13.8340426,11.9884925 C13.8340426,12.7387802 14.1531915,13.2036824 14.6723404,13.2036824 C15.187234,13.2036824 15.5021277,12.7433832 15.5021277,11.9884925 C15.5021277,11.2428078 15.187234,10.7917146 14.6723404,10.7917146 Z" id="Combined-Shape" fill="#456FFF"></path>
        </g>
    </g>
</svg>