<?xml version="1.0" encoding="UTF-8"?>
<svg width="120px" height="120px" viewBox="0 0 120 120" version="1.1" xmlns="http://www.w3.org/2000/svg" xmlns:xlink="http://www.w3.org/1999/xlink">
    <!-- Generator: Sketch 60 (88103) - https://sketch.com -->
    <title>版本过低配图</title>
    <desc>Created with Sketch.</desc>
    <defs>
        <circle id="path-1" cx="60" cy="60" r="60"></circle>
        <linearGradient x1="100%" y1="72.3811506%" x2="22.5097915%" y2="41.9692034%" id="linearGradient-3">
            <stop stop-color="#EFF3FF" offset="0%"></stop>
            <stop stop-color="#D6DFFF" offset="30.8638867%"></stop>
            <stop stop-color="#D0DAFF" offset="100%"></stop>
        </linearGradient>
        <linearGradient x1="100%" y1="72.3811506%" x2="-2.87571457%" y2="30.2231197%" id="linearGradient-4">
            <stop stop-color="#EFF3FF" offset="0%"></stop>
            <stop stop-color="#D6DFFF" offset="46.6204058%"></stop>
            <stop stop-color="#D0DAFF" offset="100%"></stop>
        </linearGradient>
        <linearGradient x1="100%" y1="68.4162572%" x2="22.5097915%" y2="43.3918851%" id="linearGradient-5">
            <stop stop-color="#EFF3FF" offset="0%"></stop>
            <stop stop-color="#D6DFFF" offset="30.8638867%"></stop>
            <stop stop-color="#D0DAFF" offset="100%"></stop>
        </linearGradient>
        <path d="M89.6231876,63.3816797 C101.482187,64.378289 112.793461,67.299998 123.243449,71.8332473 C123.845847,75.2289384 122.627232,77.7760243 119.586797,79.4780452 C114.604672,82.267016 108.334909,80.232156 106.231336,80.2777761 C100.170464,80.4092181 100.089793,76.842919 99.3786766,76.3710515 C97.9417871,75.4175908 97.8658472,74.6423122 98.3948156,73.7861672 C98.9237839,72.9300222 101.346523,72.5721255 100.012544,72.0578232 C98.6785642,71.5435209 95.9047951,73.1076457 94.7173229,73.9637907 C93.5298506,74.8199357 93.1641311,73.9637907 91.9974818,73.9637907 C90.8308325,73.9637907 90.0329398,74.562279 89.3716311,75.1674211 C89.0072373,75.500866 88.3649309,76.3744216 87.6462037,76.9416917 C87.0605711,77.4039142 85.6833106,76.8004785 85.345886,76.3710515 C85.0616971,76.0093756 85.0616971,74.4897872 85.345886,73.7861672 C85.6529561,73.0258958 86.3033594,71.3233875 86.9720771,70.8746741 C88.1708509,70.0702898 86.6609667,69.7973705 87.6462037,68.4128436 C88.6314408,67.0283167 89.0338855,67.7947443 89.0338855,66.5970272 C89.0338855,65.9335088 90.4783969,65.235963 89.3716311,64.8207165 C89.1051612,64.7207399 89.1631076,64.2914932 89.5454702,63.5329765 Z" id="path-6"></path>
        <filter x="-1.3%" y="-2.8%" width="102.6%" height="111.4%" filterUnits="objectBoundingBox" id="filter-7">
            <feOffset dx="0" dy="1" in="SourceAlpha" result="shadowOffsetOuter1"></feOffset>
            <feColorMatrix values="0 0 0 0 0.863681402   0 0 0 0 0.893974424   0 0 0 0 1  0 0 0 1 0" type="matrix" in="shadowOffsetOuter1"></feColorMatrix>
        </filter>
        <path d="M27.5845535,79.4222726 C27.2987955,80.9873931 25.8538064,82.1901749 27.7110891,82.2557885 L27.8784761,82.2586095 C29.2839339,82.2586095 29.7920833,82.7444282 29.4029243,83.7160656 L30.1860513,83.9536452 C30.5768166,84.1538282 30.9119541,84.2539197 31.1914638,84.2539197 C32.2244399,84.2539197 32.7211859,84.7601061 32.7211859,85.4523085 C32.7211859,86.1445108 34.2969891,85.9604897 34.2969891,85.9604897 L34.3637382,85.8938198 C34.5784754,85.6984847 35.3563844,85.1168015 37.3348063,84.7276587 C39.74332,84.2539197 41.166634,85.9611811 42.2305012,85.4523085 C43.2352647,84.9717066 44.3804699,85.2473293 45.0372632,85.8506979 L45.1479699,85.9604897 C45.5694926,86.4125681 46.5086359,86.7367676 47.9653997,86.9330883 C48.1551083,87.6893496 47.5647069,88.0846679 46.1941956,88.1190435 L45.2843095,88.1261843 C43.6599922,88.1519812 43.3926358,88.2979304 42.7110262,88.890083 C41.940511,89.5594729 41.1459658,90.8541853 38.9166877,91.3946356 C36.6874096,91.9350858 34.1647999,91.9032386 33.3832834,91.3946356 C32.6017668,90.8860325 31.4808395,90.413125 30.5012733,90.413125 C29.5217071,90.413125 28.6705691,90.757424 27.0898029,91.3946356 C25.5090367,92.0318472 22.6316041,91.7362472 19.6010983,91.7362472 C16.9877571,91.7362472 17.3793814,90.2770468 14.503148,90.2770468 C13.3366053,90.2770468 12.121025,92 10.9636611,92 C9.56163493,92 8.30906522,91.9541296 7.20595201,91.8623888 C13.2591247,86.2153445 19.9654344,81.2612752 27.1987121,77.1234615 C27.6380831,77.6629754 27.7659545,78.4287241 27.5845535,79.4222726 Z" id="path-8"></path>
        <filter x="-1.2%" y="-3.4%" width="102.5%" height="113.4%" filterUnits="objectBoundingBox" id="filter-9">
            <feOffset dx="0" dy="1" in="SourceAlpha" result="shadowOffsetOuter1"></feOffset>
            <feColorMatrix values="0 0 0 0 0.863681402   0 0 0 0 0.893974424   0 0 0 0 1  0 0 0 1 0" type="matrix" in="shadowOffsetOuter1"></feColorMatrix>
        </filter>
        <linearGradient x1="51.2663483%" y1="40.6264567%" x2="65.4338597%" y2="59.3464118%" id="linearGradient-10">
            <stop stop-color="#FFFFFF" offset="0%"></stop>
            <stop stop-color="#FFFFFF" offset="58.582306%"></stop>
            <stop stop-color="#F4F6FF" offset="100%"></stop>
        </linearGradient>
    </defs>
    <g id="引擎组件" stroke="none" stroke-width="1" fill="none" fill-rule="evenodd">
        <g id="版本过低配图">
            <mask id="mask-2" fill="white">
                <use xlink:href="#path-1"></use>
            </mask>
            <use id="蒙版" fill="#D0DAFF" xlink:href="#path-1"></use>
            <line x1="4.56392027" y1="49.7375107" x2="26.1278405" y2="63.2994441" id="路径-24备份-5" stroke="url(#linearGradient-3)" stroke-width="0.5" opacity="0.486351376" mask="url(#mask-2)"></line>
            <line x1="3" y1="45" x2="24.5639203" y2="58.5619334" id="路径-24备份-6" stroke="url(#linearGradient-3)" stroke-width="0.5" opacity="0.486351376" mask="url(#mask-2)"></line>
            <line x1="49" y1="24" x2="70.5639203" y2="37.5619334" id="路径-24" stroke="url(#linearGradient-3)" stroke-width="0.5" mask="url(#mask-2)"></line>
            <line x1="63.5639203" y1="27.7375107" x2="85.1278405" y2="41.2994441" id="路径-24备份" stroke="url(#linearGradient-3)" stroke-width="0.5" mask="url(#mask-2)"></line>
            <line x1="62" y1="23" x2="83.5639203" y2="36.5619334" id="路径-24备份-2" stroke="url(#linearGradient-4)" stroke-width="0.5" mask="url(#mask-2)"></line>
            <line x1="100.739715" y1="54.6880666" x2="111.803635" y2="61" id="路径-24备份-3" stroke="url(#linearGradient-5)" stroke-width="0.5" mask="url(#mask-2)"></line>
            <line x1="104" y1="61" x2="115.06392" y2="67.3119334" id="路径-24备份-4" stroke="url(#linearGradient-5)" stroke-width="0.5" mask="url(#mask-2)"></line>
            <circle id="椭圆形" fill="#EDF1FF" mask="url(#mask-2)" cx="80.5" cy="170.5" r="107.5"></circle>
            <g id="形状结合" mask="url(#mask-2)">
                <use fill="black" fill-opacity="1" filter="url(#filter-7)" xlink:href="#path-6"></use>
                <use fill="#E3E9FF" fill-rule="evenodd" xlink:href="#path-6"></use>
            </g>
            <g id="路径" mask="url(#mask-2)">
                <use fill="black" fill-opacity="1" filter="url(#filter-9)" xlink:href="#path-8"></use>
                <use fill="#E3E9FF" fill-rule="evenodd" xlink:href="#path-8"></use>
            </g>
            <ellipse id="椭圆形" fill="#E3E9FF" mask="url(#mask-2)" cx="64" cy="98" rx="5" ry="4"></ellipse>
            <ellipse id="椭圆形" fill="#DCE4FF" mask="url(#mask-2)" cx="64" cy="97.5" rx="4" ry="3"></ellipse>
            <ellipse id="椭圆形" fill="#E3E9FF" mask="url(#mask-2)" cx="44.5" cy="73.5" rx="2.5" ry="1.5"></ellipse>
            <ellipse id="椭圆形" fill="#DCE4FF" mask="url(#mask-2)" cx="44.5" cy="73.5" rx="2" ry="1"></ellipse>
            <g id="编组" mask="url(#mask-2)">
                <g transform="translate(65.213075, 86.342871) rotate(-31.000000) translate(-65.213075, -86.342871) translate(8.213075, 31.342871)">
                    <path d="M77.8169612,33.588992 L77.9378861,33.1958106 C79.8652069,35.4952794 81.5167174,38.2001126 82.8924175,41.3103101 C84.2681176,44.4205077 85.2789051,46.8173788 85.9247799,48.5009236 L85.81782,49.8916535 L79.5919951,49.9091128 L77.8169612,33.588992 Z" id="路径-2" stroke="none" fill="#C4D0FF" fill-rule="evenodd" transform="translate(81.870871, 41.552462) rotate(34.000000) translate(-81.870871, -41.552462) "></path>
                    <path d="M72.6453505,32.5708594 L78.1609332,31.9751711 C79.8654838,34.2158909 81.4056091,36.8913496 82.7813092,40.0015472 C84.1570093,43.1117448 85.2838369,45.8705066 86.1617921,48.2778326 L79.8344376,48.3908493 C78.7425551,45.5920386 77.6436807,42.9046738 76.5378143,40.3287549 C75.4319479,37.752836 74.13446,35.1668708 72.6453505,32.5708594 Z" id="路径-2" stroke="none" fill="#B5C5FF" fill-rule="evenodd" transform="translate(79.403571, 40.183010) rotate(34.000000) translate(-79.403571, -40.183010) "></path>
                    <polygon id="路径-6" stroke="none" fill="#D6DFFF" fill-rule="evenodd" points="83.2832587 32.4251869 82.9631431 32.6835288 77.8370457 29.960692 77.5896663 29.3203908"></polygon>
                    <path d="M56.2312686,48.2486341 C58.3715829,53.6888822 59.1187266,59.9799263 58.4726999,67.1217665 C57.8266732,74.2636067 56.1454661,78.920598 53.4290787,81.0927402 C51.5312128,79.2759827 49.6196664,78.5967336 47.6944395,79.0549928 C45.7692125,79.5132521 44.5400078,80.8629801 44.0068255,83.1041767 C43.9729756,77.4609647 41.8551203,73.9474752 37.6532597,72.5637082 C33.451399,71.1799412 29.3228327,72.0848468 25.2675606,75.2784249 C25.0890506,72.2830615 23.6044686,70.5892794 20.8138147,70.1970785 C18.0231607,69.8048777 16.1572534,70.6065499 15.2160929,72.6020951 C14.0773702,71.5156467 12.8099974,71.0713145 11.4139746,71.2690986 C10.0179517,71.4668827 8.96478083,72.2145383 8.25446199,73.5120655 C27.1438714,90.1493524 47.8588946,95.278454 70.3995316,88.8993703 C92.9401687,82.5202866 105.488228,69.4704188 108.043709,49.7497666 C106.637217,48.699334 105.195973,48.3523185 103.719979,48.7087203 C102.243984,49.0651221 101.255224,50.0285144 100.753699,51.5988973 C95.4604628,48.4650015 90.6789638,48.4592589 86.4092014,51.5816694 C83.1362049,53.9751607 81.8446358,58.1423165 82.534494,64.0831371 C79.8961993,63.2871914 77.6921565,63.6687368 75.9223653,65.2277732 C74.1525742,66.7868097 73.3624959,69.371696 73.5521303,72.9824322 C73.1749963,70.9144636 72.7105981,68.8134902 72.1589359,66.6795119 C71.3314425,63.4785446 69.5157408,59.705588 67.4280408,54.9260495 C66.0362408,51.7396905 64.0541254,48.6682259 61.4816948,45.7116556 L56.2312686,48.2486341 Z" id="路径-8" stroke="none" fill="url(#linearGradient-10)" fill-rule="evenodd" transform="translate(58.149086, 68.631505) rotate(23.000000) translate(-58.149086, -68.631505) "></path>
                    <circle id="椭圆形" stroke="none" fill="#FFFFFF" fill-rule="evenodd" cx="4.52461553" cy="39.9857873" r="4.5"></circle>
                    <path d="M50.8007152,25.0475976 L47.6562443,30.6686087 C49.5094743,34.679752 51.5614922,38.1905377 53.8122981,41.2009659 C56.0631041,44.2113941 58.7678927,47.1248562 61.9266642,49.9413522 L63.6229949,43.0991202 C60.1774269,39.6377143 57.6033776,36.7037294 55.9008468,34.2971655 C54.1983159,31.8906015 52.4982721,28.8074122 50.8007152,25.0475976 Z" id="路径-5" stroke="none" fill="#B5C5FF" fill-rule="evenodd" transform="translate(55.639620, 37.494475) rotate(32.000000) translate(-55.639620, -37.494475) "></path>
                    <path d="M67,-5.96855898e-12 C69.1633739,-5.96855898e-12 78,10.5316365 78,30.0316365 L77.9948925,31.1038367 C77.8946844,41.4702742 76.3270395,46.6481535 73.9192807,49.1974437 C71.6974997,49.722587 69.3811465,50 67,50 C64.6188535,50 62.3025003,49.722587 60.081497,49.1983177 C57.5913415,46.5617369 56,41.116211 56,30.0316365 C56,10.5316365 64.8366261,-5.96855898e-12 67,-5.96855898e-12 Z" id="路径" stroke="none" fill="#F4F6FF" fill-rule="evenodd"></path>
                    <path d="M67,-5.91171556e-12 C69.1633739,-5.91171556e-12 78,10.5316365 78,30.0316365 L77.9948925,31.1038367 C77.8946844,41.4702742 76.3270395,46.6481535 73.9192807,49.1974437 C71.6974997,49.722587 69.3811465,50 67,50 C66.2820392,50 65.569969,49.9747794 64.864627,49.9251757 C64.6602384,49.910802 60.745482,35.0144492 61.1986087,26.0373007 C62.0304554,9.55711895 65.9939557,1.4460521 67,-5.91171556e-12 Z" id="路径" stroke="none" fill="#FFFFFF" fill-rule="evenodd"></path>
                    <path d="M66.3856413,28.189359 L65.4141675,30.2884222 C65.4909042,34.6183047 65.5086618,37.528575 65.4674404,39.0192332 C65.4262189,40.5098913 65.4428165,43.4948743 65.517233,47.974182 L66.0970055,47.9951563 L66.6315642,48.0003409 L66.3856413,28.189359 Z" id="路径-7" stroke="none" fill="#F4F6FF" fill-rule="evenodd"></path>
                    <path d="M73.9192807,49.1974437 C71.6974997,49.722587 69.3811465,50 67,50 C64.6188535,50 62.3025003,49.722587 60.081497,49.1983177 C59.574532,48.6615424 59.1048211,48.008342 58.6782078,47.2148354 C61.3725276,47.729933 64.154725,48 67,48 C69.8454796,48 72.6278725,47.7298941 75.3229379,47.2139233 C74.8961281,48.0071536 74.4263334,48.6605858 73.9192807,49.1974437 Z" id="形状结合" stroke="none" fill="#B5C5FF" fill-rule="evenodd"></path>
                    <circle id="椭圆形" stroke="#D0DAFF" stroke-width="2" fill="#F3F5FF" fill-rule="evenodd" cx="67" cy="20.5" r="4.5"></circle>
                    <path d="M67,-5.79802872e-12 C68.1085736,-5.79802872e-12 70.969427,2.76542422 73.4956331,8.08592693 C71.4427175,7.3799036 69.2611973,7 67,7 C64.7384357,7 62.5565742,7.38002696 60.503098,8.0858665 C63.030573,2.76542422 65.8914264,-5.79802872e-12 67,-5.79802872e-12 Z" id="形状结合" stroke="none" fill="#B5C5FF" fill-rule="evenodd"></path>
                    <path d="M67.3432171,0.0680518278 L67.4203447,0.097513362 C67.4273279,0.100364823 67.4343459,0.103278648 67.4413983,0.106254812 L67.4204767,0.0975672663 C67.4396612,0.105402546 67.4591076,0.113708435 67.4788111,0.122484462 L67.4781853,0.12220588 C67.5389344,0.149263704 67.6014516,0.180420439 67.6662294,0.215941233 C67.7582311,0.26639152 67.8547609,0.325623183 67.9554662,0.393613653 C68.0151443,0.433904069 68.0763246,0.477297041 68.1388935,0.523761464 C68.3722447,0.697007266 68.6255456,0.913583172 68.8941022,1.17267048 L68.9747356,1.2512902 C69.0079032,1.28396834 69.0412921,1.31728006 69.074895,1.35122459 C69.2081376,1.48581462 69.344985,1.63062207 69.4847322,1.78536646 L69.6314234,1.95025571 C69.7628117,2.100131 69.8965513,2.25853473 70.0322639,2.42542876 C70.1277764,2.54287437 70.2248433,2.66527069 70.3227651,2.79190912 L70.3229709,2.79217528 C70.4693773,2.98151694 70.6179061,3.1806344 70.767901,3.38921609 L70.911325,3.59092866 C70.9876504,3.69948328 71.0643144,3.8104561 71.1412585,3.92384123 C71.2289197,4.0530179 71.317002,4.1854136 71.405362,4.32093577 C71.4871106,4.44631387 71.5693026,4.57469488 71.6516646,4.70575848 L71.6510348,4.70475626 C71.8008592,4.94317361 71.9506119,5.18939126 72.1005127,5.44437013 C72.2690374,5.73102535 72.4378089,6.02886283 72.606185,6.33772283 C72.9048813,6.88564033 73.2022692,7.46811339 73.4951606,8.08493179 C71.4427175,7.3799036 69.2611973,7 67,7 C66.010393,7 65.036047,7.07276491 64.0810407,7.21375244 C65.2584998,3.14834968 66.446213,0.824721952 66.9637154,0.0531498515 L67,-5.51381163e-12 L67,-5.51381163e-12 L67.0727207,0.00371405871 C67.0985096,0.00626632705 67.1251118,0.0101333109 67.1525057,0.0153128245 L67.0892265,0.00551390907 C67.1189093,0.00904575445 67.1496355,0.0142731887 67.1813734,0.0211930088 L67.1525057,0.0153128245 C67.1748291,0.0195336273 67.1976782,0.0246260383 67.2210414,0.0305888749 L67.1813734,0.0211930088 C67.2113595,0.0277309066 67.2422488,0.0357795316 67.2740143,0.0453361824 L67.2210414,0.0305888749 C67.2603315,0.0406166849 67.3010754,0.053106211 67.3432171,0.0680518278 Z" id="形状结合" stroke="none" fill="#C4D0FF" fill-rule="evenodd"></path>
                    <path d="M75.1139225,47.5849725 L74.9829285,47.8022553 L74.9829285,47.8022553 C74.9602238,47.838477 74.9370759,47.8752471 74.913819,47.9116661 C74.7894879,48.1065236 74.6622053,48.2908905 74.5319427,48.4657675 L74.5323897,48.4651053 C74.3891873,48.6574159 74.2428529,48.8376671 74.0930949,49.0071509 L74.1487139,48.9435244 C74.0899466,49.0114744 74.0306429,49.0777337 73.9708123,49.142342 L73.9702856,49.1429108 L73.9192807,49.1974437 L73.9192807,49.1974437 C71.9196778,49.6700727 69.8434714,49.9420401 67.7123704,49.9917073 L67,50 L67,50 C66.3861107,50 65.776528,49.9815611 65.1717755,49.945207 L64.864627,49.9251757 L64.864627,49.9251757 C64.8189208,49.9219614 64.5876669,49.174531 64.2612043,47.9155036 C65.1670095,47.9717771 66.0802088,48 67,48 C69.8451287,48 72.6271864,47.7299607 75.3219409,47.2141142 C75.2535577,47.3420288 75.1842784,47.4652445 75.1139225,47.5849725 Z" id="形状结合" stroke="none" fill="#C4D0FF" fill-rule="evenodd"></path>
                    <polygon id="路径-4" stroke="none" fill="#D0DAFF" fill-rule="evenodd" points="67.5192924 31.1211299 67.9457677 52.5102123 66.5058542 52.5413442 66.2368833 31.152003"></polygon>
                    <polygon id="路径-3" stroke="none" fill="#E3E8FF" fill-rule="evenodd" points="66.2368833 31.152003 67.5192924 31.1211299 67.2956963 28.1936818 66.3856413 28.189359"></polygon>
                    <path d="M64.0234352,62.5461154 C62.2111578,67.4305918 60.4473586,71.3002168 58.7320376,74.1549902 C57.0167167,77.0097637 55.3780658,79.5237209 53.8160851,81.6968618 C53.9596323,81.7412762 54.19867,81.835408 54.5331983,81.9792573 C54.8677265,82.1231067 55.1016857,82.2636835 55.2350758,82.4009879 C56.3820192,80.5805525 57.7804942,77.9717796 59.4305007,74.5746692 C61.0805072,71.1775588 62.6114854,67.1680409 64.0234352,62.5461154 Z" id="路径-9" stroke="none" fill="#EDF1FF" fill-rule="evenodd"></path>
                    <path d="M70.2227539,60.9381832 C70.2802851,64.004359 70.2316305,66.2269331 70.0767899,67.6059057 C69.6150657,71.7179075 68.8806612,74.3892609 68.8372816,76.4852599 C68.7952031,78.518391 68.8906154,80.424236 69.1235185,82.2027951 C68.9693297,82.3747588 68.8028554,82.5239729 68.6240954,82.6504377 C68.4453355,82.7769024 68.2417484,82.9071895 68.0133342,83.0412992 C68.1392724,81.7685629 68.2574837,79.6959336 68.3679684,76.8234113 C68.4429112,74.8749515 69.2874737,71.0144474 69.7718988,67.6187161 C69.9690084,66.2370141 70.1192934,64.0101698 70.2227539,60.9381832 Z" id="路径-11" stroke="none" fill="#EDF1FF" fill-rule="evenodd"></path>
                    <path d="M104.196066,76.6411753 C103.79321,75.3545321 103.122211,74.6124487 102.18307,74.4149251 C101.243929,74.2174015 100.41841,74.4072445 99.706513,74.9844542 C99.0074194,73.3191252 97.9796975,72.3546494 96.6233473,72.0910268 C95.2669972,71.8274042 94.0667203,72.4727437 93.0225168,74.0270451" id="路径-10" stroke="#EDF1FF" stroke-width="0.5" fill="none"></path>
                    <path d="M12.6146512,58.2238873 C13.5296009,57.9893484 14.3713862,58.1029959 15.140007,58.5648299 C15.9086278,59.0266639 16.3385219,59.8063741 16.4296891,60.9039607 C16.9315397,60.6585599 17.4076148,60.622286 17.8579143,60.7951392 C18.3082138,60.9679923 18.5737303,61.4498593 18.6544638,62.2407402 C20.1509085,61.7278244 21.4337506,61.9772298 22.5029901,62.9889565 C23.5722297,64.0006832 23.7054858,65.5093662 22.9027586,67.5150056" id="路径-12" stroke="#EDF1FF" stroke-width="0.5" fill="none"></path>
                    <path d="M39.534176,76.3349168 C39.2850943,76.9481014 39.0770079,77.3937368 38.9099169,77.671823 C38.7428259,77.9499091 38.5332386,78.2490603 38.2811549,78.5692763 C38.7356471,78.2464965 39.1073878,77.8446271 39.3963771,77.3636681 C39.6853663,76.8827092 39.8890707,76.3268772 40.0074902,75.696172 L39.534176,76.3349168 Z" id="路径-16" stroke="none" fill="#EDF1FF" fill-rule="evenodd"></path>
                    <path d="M104.00469,69.5658111 C104.166709,69.8096045 104.299846,70.0236459 104.404101,70.2079353 C104.508355,70.3922248 104.715039,70.859516 105.024153,71.6098091 C104.926672,70.9520397 104.773021,70.4339009 104.5632,70.0553925 C104.35338,69.6768842 104.221214,69.4630778 104.166701,69.4139734 L104.00469,69.5658111 Z" id="路径-17" stroke="none" fill="#EDF1FF" fill-rule="evenodd"></path>
                    <path d="M37.1849777,79.3675525 C37.3712659,78.6429585 37.1766996,78.0404093 36.6012788,77.5599049 C36.025858,77.0794005 35.3661736,77.0282473 34.6222257,77.4064454 C35.0593407,76.1344839 34.7978601,75.3082616 33.8377836,74.9277785 C32.8777072,74.5472954 32.073733,74.7333278 31.4258611,75.4858758 C31.050756,74.9064758 30.6472033,74.5610304 30.2152029,74.4495395 C29.7832024,74.3380487 29.2615115,74.3798608 28.6501302,74.5749759" id="路径-18" stroke="#EDF1FF" stroke-width="0.5" fill="none"></path>
                </g>
            </g>
            <g id="编组-3" mask="url(#mask-2)">
                <g transform="translate(5.000000, 0.000000)">
                    <circle id="椭圆形" fill="#D9E2FF" cx="25" cy="10" r="10"></circle>
                    <path d="M28.6907192,15.1411891 C27.9136796,15.7694201 27.6435692,16.3606408 26.858915,16.6628032 C26.0742608,16.9649656 25.0942842,18.2273894 24.16637,18.5025324 C23.4207881,18.7236107 21.556357,18.9203456 20.6136528,18.9891252 C20.0974267,18.7368512 19.6055105,18.4409116 19.1433293,18.1064153 C20.098384,18.144995 20.8617186,18.1035626 21.4339223,17.9815983 C22.3981385,17.7760773 24.1513428,18.0540843 25,17.1502533 C25.8486572,16.2464223 26.9447842,15.847009 27.8096729,15.2998554 C28.2851527,14.9990531 28.7829489,14.6465356 29.1669541,14.3086635 C29.481447,14.0319527 29.7135585,13.7431353 29.8455356,13.6850367 C30.1386607,13.5559979 29.4677588,14.5129581 28.6907192,15.1411891 Z" id="形状结合" fill="#D1DCFF"></path>
                    <circle id="椭圆形备份" fill="#EDF1FF" cx="93" cy="17" r="1"></circle>
                    <circle id="椭圆形备份-11" fill="#EDF1FF" cx="41.5" cy="14.5" r="1"></circle>
                    <circle id="椭圆形备份-7" fill="#EDF1FF" cx="57.5" cy="3.5" r="1"></circle>
                    <circle id="椭圆形备份-10" fill="#EDF1FF" cx="0.5" cy="52.5" r="1"></circle>
                    <circle id="椭圆形备份-8" fill="#EDF1FF" cx="24.25" cy="12.25" r="1"></circle>
                    <circle id="椭圆形备份-12" fill="#EDF1FF" cx="34.25" cy="12.25" r="1"></circle>
                    <circle id="椭圆形备份-9" fill="#EDF1FF" cx="12.25" cy="22.25" r="1"></circle>
                    <circle id="椭圆形备份-13" fill="#EDF1FF" cx="9.25" cy="44.25" r="1"></circle>
                    <circle id="椭圆形备份-14" fill="#EDF1FF" cx="10.25" cy="59.25" r="1"></circle>
                    <circle id="椭圆形备份-17" fill="#EDF1FF" cx="40.25" cy="64.25" r="1"></circle>
                    <circle id="椭圆形备份-6" fill="#EDF1FF" cx="91.5" cy="38.5" r="1"></circle>
                    <circle id="椭圆形备份-18" fill="#F0F4FF" cx="108.5" cy="76.5" r="1"></circle>
                    <circle id="椭圆形备份-2" fill="#EDF1FF" cx="112.25" cy="37.25" r="1"></circle>
                    <circle id="椭圆形备份-3" fill="#EDF1FF" cx="107.25" cy="34.25" r="1"></circle>
                    <circle id="椭圆形备份-4" fill="#EDF1FF" cx="82.25" cy="27.25" r="1"></circle>
                    <circle id="椭圆形备份-15" fill="#EDF1FF" cx="114.25" cy="53.25" r="1"></circle>
                    <circle id="椭圆形备份-16" fill="#EDF1FF" cx="110.25" cy="61.25" r="1"></circle>
                    <circle id="椭圆形备份-19" fill="#DCE4FF" cx="95.25" cy="86.25" r="1"></circle>
                    <circle id="椭圆形备份-5" fill="#EDF1FF" cx="62.25" cy="9.25" r="1"></circle>
                    <circle id="椭圆形备份-20" fill="#EDF1FF" cx="61.25" cy="31.25" r="1"></circle>
                    <circle id="椭圆形备份-21" fill="#EDF1FF" cx="44.25" cy="26.25" r="1"></circle>
                    <circle id="椭圆形备份-21" fill="#EDF1FF" cx="39.25" cy="49.25" r="1"></circle>
                    <path d="M28.6104572,12.7365915 C22.2954689,16.5870721 17.2417452,18.0085052 16.4982223,17.7057278 C16.0025403,17.5038762 15.8767243,17.1422305 16.1207743,16.6207908 L16.2642359,16.4563128 C15.8987085,17.0341092 16.0066099,17.3929935 16.5879401,17.5329659 C17.4599354,17.7429244 22.4952111,15.6537574 27.4963473,12.5993839 C31.7208186,10.0193476 33.0024895,8.53037092 34.2596339,7.04566542 C35.0523961,6.10940194 35.6084203,5.01502191 35.653802,4.66390425 C35.7122139,4.21197231 35.3869367,4.00854078 34.6779704,4.05360965 C35.2994784,3.91351297 35.6987921,4.04799949 35.8759114,4.45706922 C36.1415903,5.07067381 34.9254454,8.88611081 28.6104572,12.7365915 Z" id="路径-14" fill="#E4EAFF"></path>
                    <path d="M33.7984619,5.25352478 C33.3582022,5.97151456 33.040062,6.42661166 32.8440414,6.6188161 C32.5500106,6.90712275 32.3420418,6.99694582 32.0131294,7.4046245 C31.684217,7.81230318 31.4068889,7.84594431 31.0827993,8.13755513 C30.7587098,8.42916596 30.2610618,8.36482536 29.9136438,8.79556177 C29.5662258,9.22629818 29.0076743,9.54370362 28.6463758,9.92953792 C28.2850773,10.3153722 27.3670088,10.770725 26.9409099,11.136377 C26.5148109,11.502029 25.0568578,12.2877197 25.15138,12.2877197 C25.2459021,12.2877197 27.7626886,11.176096 28.0980604,10.971153 C28.4334322,10.76621 28.9976879,10.4151999 29.3211885,10.0622563 C29.6446891,9.70931261 30.1014647,9.3644713 30.2803022,9.25353546 C30.4591397,9.14259962 31.4600625,8.80027857 31.6828843,8.53009077 C31.9057062,8.25990297 32.3440759,7.82315193 32.6550688,7.71355181 C32.9660617,7.6039517 33.5786998,6.89020507 33.7606977,6.67864789 C33.8820296,6.53760978 34.0205535,6.31488808 34.1762695,6.01048279 C34.0962931,5.83612408 34.0296834,5.69396303 33.9764404,5.58399963 C33.9231975,5.47403623 33.8638713,5.36387795 33.7984619,5.25352478 Z" id="路径-15" fill="#D1DCFF"></path>
                    <path d="M17.1584473,16.2109985 C17.7027511,16.0499371 18.1191166,15.9325678 18.4075437,15.8588906 C18.8419389,15.7479266 19.5116166,15.441373 19.8599561,15.3734605 C20.2082956,15.305548 21.5208966,14.7770359 21.8454383,14.6891833 C22.1699799,14.6013306 22.6745235,14.3653621 22.866142,14.2140201 C22.9998289,14.1084331 23.2320119,13.9055419 23.562691,13.6053466 C23.3392415,13.9075124 23.1070585,14.1656655 22.866142,14.3798059 C22.5047673,14.7010164 22.2141202,14.7010164 21.8454383,14.9268424 C21.4767563,15.1526684 20.7824803,15.3304464 20.5048412,15.4505777 C20.2272022,15.570709 19.5215854,15.9152618 19.1433293,16.2109985 C18.8911585,16.4081564 18.4343245,16.6443675 17.7728271,16.919632 C17.6552663,16.7938217 17.543511,16.6742233 17.437561,16.5608368 C17.3316111,16.4474502 17.2385732,16.3308375 17.1584473,16.2109985 Z" id="路径-20" fill="#D1DCFF"></path>
                    <circle id="椭圆形备份-22" fill="#E3E9FF" cx="43" cy="98" r="1"></circle>
                    <circle id="椭圆形备份-23" fill="#E3E9FF" cx="87.5" cy="82.5" r="1"></circle>
                    <circle id="椭圆形备份-24" fill="#E3E9FF" cx="50.3" cy="79.3" r="1"></circle>
                </g>
            </g>
        </g>
    </g>
</svg>